<mxfile host="65bd71144e">
    <diagram id="QfyccAQwvzy-c6FdiYbv" name="第 1 页">
        <mxGraphModel dx="714" dy="495" grid="1" gridSize="10" guides="1" tooltips="1" connect="1" arrows="1" fold="1" page="1" pageScale="1" pageWidth="827" pageHeight="1169" math="0" shadow="0">
            <root>
                <mxCell id="0"/>
                <mxCell id="1" parent="0"/>
                <mxCell id="23" value="" style="rounded=0;whiteSpace=wrap;html=1;" vertex="1" parent="1">
                    <mxGeometry x="545" y="135" width="120" height="60" as="geometry"/>
                </mxCell>
                <mxCell id="16" value="" style="edgeStyle=none;html=1;" edge="1" parent="1" source="2" target="8">
                    <mxGeometry relative="1" as="geometry"/>
                </mxCell>
                <mxCell id="2" value="" style="shape=image;imageAspect=0;aspect=fixed;verticalLabelPosition=bottom;verticalAlign=top;image=data:image/jpeg,/9j/4AAQSkZJRgABAQEAZABkAAD/2wBDAAgGBgcGBQgHBwcJCQgKDBQNDAsLDBkSEw8UHRofHh0aHBwgJC4nICIsIxwcKDcpLDAxNDQ0Hyc5PTgyPC4zNDL/2wBDAQkJCQwLDBgNDRgyIRwhMjIyMjIyMjIyMjIyMjIyMjIyMjIyMjIyMjIyMjIyMjIyMjIyMjIyMjIyMjIyMjIyMjL/wAARCAEsAZADASIAAhEBAxEB/8QAHwAAAQUBAQEBAQEAAAAAAAAAAAECAwQFBgcICQoL/8QAtRAAAgEDAwIEAwUFBAQAAAF9AQIDAAQRBRIhMUEGE1FhByJxFDKBkaEII0KxwRVS0fAkM2JyggkKFhcYGRolJicoKSo0NTY3ODk6Q0RFRkdISUpTVFVWV1hZWmNkZWZnaGlqc3R1dnd4eXqDhIWGh4iJipKTlJWWl5iZmqKjpKWmp6ipqrKztLW2t7i5usLDxMXGx8jJytLT1NXW19jZ2uHi4+Tl5ufo6erx8vP09fb3+Pn6/8QAHwEAAwEBAQEBAQEBAQAAAAAAAAECAwQFBgcICQoL/8QAtREAAgECBAQDBAcFBAQAAQJ3AAECAxEEBSExBhJBUQdhcRMiMoEIFEKRobHBCSMzUvAVYnLRChYkNOEl8RcYGRomJygpKjU2Nzg5OkNERUZHSElKU1RVVldYWVpjZGVmZ2hpanN0dXZ3eHl6goOEhYaHiImKkpOUlZaXmJmaoqOkpaanqKmqsrO0tba3uLm6wsPExcbHyMnK0tPU1dbX2Nna4uPk5ebn6Onq8vP09fb3+Pn6/9oADAMBAAIRAxEAPwDB8MrpWg2sguMXU0pB3u4UKB2ArdbxVpsUTYt4AMdpa5O10q0xxHn2PNaKWNsiELCg/Ct4047tGDqPoyTwrL9p8SajdmbNvHCuxWOSeTz+laeszW0piiaaMM2V27hn61ymr2VuUSdXkhkHy/umwceh9qy9T1SW602HT2EKwwosYdYwsjbWZgWbqT8xz64HpWqq8vxbi9nzPmWhuap58dsLkEDJ2yc/xeta2heIbW08NwSS43IzqwJwPvZ/rXmE25wN0jYC7fvH8/rXcaBbadH4Xl+z7pJt3myeZhsdMCs62KSj8NzSlh7ySud3qepWt9oLarbMpVlGHU556GvKdev5odUPlTSIcbiN5x3r0Fry0bw7p1oHRFlk3+XuH3VBbH6Vweq6VcXuqs4ZUXaPmLd64ISUpc1rHTNNLlOx8Hu0mlNN9okMkkbs5znC5CgDP0NVfFmnvL4Vu5t0rbWRuWzxmrfhC3lg0preVSH2befTzDXQ6zp4m8KahFkqrRckDJAyCaLvnQRV1Y8Psry6tNGu/J5jmfyixHQ45x+BrMkC+UgAYSD7xLcGun12wbSPDOm2Mo23DXU8zD/ZYR7f0rld2SPrW6d1cyas7EZXjrWglpcXNqJbe3kZY9qOyRkqGxxk+uBmqGM4rvfDN6tr4bREkKrLOzTKXwGH3f8A0HipnLlVyoQ53YxL/ZfadZ20E2ZIV+cspXtXW+F9H1WwjeWWIFZShXb/AHQv+NY9nZJd21zcCZxJbvsQ8YIrvNCaK70uJ5r26WccMFC7RWvs+ZWMVWcJXXQ5a58K6k+p3V5BBKGddqqcYb39qoXHh3X3tUzYtuUcqDk5r08ade72eG+aSDsVjy2PpmoJrltP/ezzSTL02iMgrVKl0TJdZt3seYaV4c1WDV7ea9s5ILeNt7O2Mcdq9G8Ea1qGteLorAXTG2i3Tylxu+VcfKD6ksv4Zqv4o1ea90WG2tbaaKa5YBfNXGeOvrjGTUcuoQ6Lodjp2g3VzbzxS+a0zRjLNj5i3ruPb0FYcjdTfQ6VJKna2rPYLxEUdK5jXLpYIfvMr/w7e9cf/wALUu7OADVtPMuMDzrY/e/4Cawtb+Jmnahu8q3uwMcZXFatW2MzudEuN+srKjbhtIcn+HireqavpVzYanp6zmV2t3UCNC2WxwB+NeN+F/FGpy6xLI1yy2627719uABXU2fh/U9a00XNrqMVp5js2H6tzWKnaXLua8q5OZnNxaNqd3bGG4spo2T7kjED8KpN4X1wKHGmXDKehVt2fyrsV+H+ti4jeXVIJow4LLk/MPSpH8IeI47YJa3wj2fc8uY1oY3RycWl6hBbMs1jcRny2HzRt3aq9rBPFdwboHU+ao5jb1rsxovjSGEfvpZHVcjbNn5s0yBfG6Sxi4hnaLeN+Sp4pp6PUTs7EOs+C7m9865juR57nPl9AF+vc1x0fhLxBcSyILN41XgO7AAnPSvRrm/19WBSzlBU5wyBgapDxHrysVn0qM88ZhIohiK0IKCnoi5RjKXM1qcnp/hm+0W4/tG+aNgqMiBDk7jxXfaZZvaaHIHGJWVnb2PpUVpqz399BbXemwJucNueI8H1rXlmeG1m82CJwAS2CwyK52nKfNJ3NOa0OVIxrGxtoJEdVO/O7Oe561ciObGVh2V6hhvrNpF/0FgeMbZjTlu7LyMLb3AQ7t2JAeMVokRcsXEmzT4SDzvjH61NfvaS27falDRBC3P97sapyyWD2yq32tIy64I2k9eKLprOSxcSSzxL3JjBxzTtfQLkng+8ijt9Rk2h0fUCvBxn5V9a0tVuWe8UNbW5BXg+Z0+tcaWtorO+WzvvtEbXQdlCbdjHj+lbkUMZVPk6Dv3qiSaRwMfurPn1JOKid4wvAsyf+uWanWCP+4Kk8uMD7gFAFFjCAxV4N3bbbinpKij5ZpAcfwRAf0pspCdAKIrlc7Tj8KAuZev602nWH/Hxdeay/L0/ziuLj8d6rE4LCJsHutdL43VX03zecjao4wOteYuOTVxqyjsS4Rluehv8XdVkiCPa2+BzlOKrD4kztN5r2a785yGrhookd8SzeUvrt3VIYbIf8vcjfSKqVeS2SE6cXueiR/FmZQu62PHvU6/FpDjfbtwc/WvM9lkP+Wk5/wCAgUhNkOiTt/wICn7Z9kHs15nrEXxYsDJvktiPXAqRfibpDSM3llc+orx2YxHHlIyj3bNMNHtl/Kg9n5ntNt4Z1JsfulVvdxWivhjUSOfKH/A61bO3vNyu27ICcFu4Y5zWk8MzSbtuPn3ZL/T/APVWSqS7j9lE8z8VWE2kGH7QUPmIx+U+9ed315vkOOK9X8d2/l21okziSUlzk9l4ryXUEQSHFEm3qUkloiB5SygA10vhu8+zmKEsPLnJifPXn7v61y7wvASknDBQ1dH4ejR7m0LJvQTrJtH+z8xH5isp/Cy4X5lY1I7+WK8MIt4pGhs2cCSMM24kKoz9WrZ8LWd3c+KJY9cjbzLOASNCw+USF9oyO+Ky9QubU+I5JYwWSQQq4j67VkLMfyUV08l/5+s6xqFrNC0EjxxKR99sKDn6VzTUvZyt2NpW9pY6mOC3OrSqYV2iBcAcYO5qtzW9q8LxmNgjLtKhjgjvWNpt7JdXhkMZLvEvC+zNWuyTFf8AUyf981wzqSi1bsvyLSR498TGeLWbWy3loba3CxAnJC5rhVPz4r0T4tW/l69azbceZb8/UHFedIMyj0r1aEualFs56nxMVuKsWEkgnjjDHYXHHaq8nWrekBDqlsJF3I0qqQDjqcVqZnZ6RZyPaXaI2VL78d+ldnoULwaWiSqN1N8L2enwzXs8kMpjilEARW6nqWrsW0a1VpD5rKsJJl5524yuK3jJHNKnJvQxreaa3fdDIVNan9pW90u2/thu/wCekfBqT+yrUO0HmyC4VPNb0x3FOOlWzSwRxTv+8XzDuX7qYzmqc4vcShNLQ5C4WS48QQywuv2aJp4wCfn4Qcn0HzKB+NUPEjI86HBVo07jHc11eoWsen3FyNiliOXI6j1rjvFAHnFu+0VmoWTfzNlU5p27Kxy13e+bG4QqSvUHtWG7vLKEzvycBQOtSXw2EyrkdiB3FJo06w6jbzyKpAkz83b3rOTNlq7HQiwttDsFUgtdyIZbkD7seDhFz+tU4tWv4WDpeSKwH9/pVlk1HVLd5AmIpX3c962fC2i6ddtPBqUeZW+WNt2Np/CueMuROT3NprmfJHZGZY+INUkv4YTebldvn+mM/wBKkm8Va2sjol4AM9o+RWR9oj0rWpIblJ0eGRsAjGRggGl3W88ymOdSHb+JiuK6rztdHPZXszt7XxFrEFjC8m6ZipbAbazfT1q5L4t1i0uEjV4rhCFyVc8VT16+WJLa1glj2xjKYP3RnFYtjbSRXBW4nQuxLBic/LXPCrNvU6atCMI3R2E/i2/t7yVS6PHHwVI6moLTxtc38/y2kZCbuOpOMZrltVuQmrXKqflcZBqtfXN54Z02G6tisc9xFh1bBK59ar2ktjJQj12O6l8dWYmFv9hjM5ICkkY5962NK1FNYzAumZmUfvMkbfzrxTR7281nVUtZdshZSwYqBtwM9q9ElW7ttJGoWM01pMy8uowG/wAauE435Zkzh9qB0s97olrL5d3Zskg7queaz01nwrM8kao6wqCGkKnb9K52/hElu8880rbYyxJY9cVkRQ+X4UUYJdlVm+pNbSdFR9y7ZmozvrsehsPDcqBTKoQEEckDPaluR4eEDlr6PnjYG5/KuK1K6+yWlq/YSAkDvxwPzqaLSvIb7cJ3W5UB2JwV3VNPkb97QJXS0Okh8NaD9mcw38iJcSCUqZNuD9DWmmj2pI8u/Tp/eFcNNql1rKO94VZobnykIHYVnzF7DVUG7zNqk48vGKbjFN6iVz0tNNg+0GBL2NpcZ25HSpP7IfcQJVryy61m2a8ihmlks+5khjy3NXxc2aHMfiG65/vq3P60JRfUdmd5P4cnYZE0Y+tZVzo0loxd7iEL161zd1q8MVqVbXiVYbeS4rMj1RFGxNSF0SPm2k/1p8kVq2J83Q6O90BPENl5EWsWMGCCxcsSPwrI/wCFZ6VGf9J8UpnuIoB/U1hapc+XZrJC8gkLYJ7Vz7Xl03Bmfk9zUtU/MaUjp9S8E6ZbT/uPE1t5GPvTRHdn8OKzT4a0pc7/ABPaf8BiY/1qzqFtvWaIyfIyK2cZx9KwbzSprW3W5RlltnOA6nkfUdqwjUhLa51YjDyoPlbuaf8AYXh9fv8AiYH/AHLf/wCvS/2R4UX73iG5b/dthXNEZpCMVpoYHTNYeD166tqDfSFRWVq9jbWkkUllLLLazLuQyrhqzG6V6Xpeg2GpWWlz6k2be1tFbyQP9YxHGfai19hN2V2atvfXeM/aZf8Avs1Y+1XDLzPJ/wB9msyAPLtCK5z0AXrV+ON2jBSKRgc4IU84rWM0ZOMjC8RXDFVViW+XucmuJiha6v4lO5lZuc+ldtrDqzhtjIQApLrg1lfZUg8qaP8AicDJ+lRUd2aRWhz+tL5eqEtwGQVteGNPubiR1EdwY4z85iTccEf1rJ1xg18q4yQozW54b1m/sLWVbdg2zaOVydvofpWNRXiXHck03SIX1a7EzXsUkB2K6IWOMkfMO1SS40PVLeCK4kmtrjkl4ym1vp3qzpniW/sb6/uxCHNy4ZyVPq3+NNvPFMt9run6hLbKfse75B0Oc1m1e6LvbU6XT71rdbWaN2XcnUHH8TV1UGqyyxj98x/GuQfxRbxQW17LaKVuY8BBj5cE1dtNftbg/u7CXn0U1yVKEtLM1jNWOW+LEvm3eln0hf8A9Crz20AMzZ67eK7X4kGJ5rCSO2lhLI+S4I3c1xVoQJGbOMKa7aEeWmkYVXdsjk+9irFgxjuoHXgrKpH4VXlB381NZ83MS/7YrYh7HrvgvU7mG5unVlbzWDOHXI3etdWb6ci43NuM+N5I9K5Pwjpt19ka88h/Jc8P2NdHgjrmuiCVjjlKVzS/teZrcx7I97JsMuPmK+lSR6tKgyiKr+UsSt6Af41lAEmpQGA5BquWIueXck1i9+22++VQrCNUdvXkc1x3ij57l1U/dUZrprv/AI9X/D+dcf4rneGWVPld2XPHGPaplZRsa0buVzG0vTBdpqMshXZDZyvz3bGBXJ2J3XEKH/noo5+tekeFLRG8Lazc43homiIfgrhcn+deeW9q0Wq28R+7JMqg/iK5b3bOpnr2kaZZ22lW8bXMXmgZwQcjPI/Qiqmo6NbJKt/YTILqLLeWFISTjv71uCPT2KsGgLAAAiX0GKUabBOxCOM+gbNZPzLXkeM+LNUu9U1oTXluIZkjVCoXBOPX1qtp0z3mo2kPyoHlRFQDAHzCu6+IWlRWdvZS/emZmBOOdteeoD5yy2xKyK2Qo6g+1bQ+G/QiTbZ2njSIWeoQPFdRs5Xb5Y6rz1NP0LVLa0in03VoFd1cjzB95GrlGstSmuQhtbiSRz12k7vU5qzI0wvZllTbPvLOpP8AX1q4xp7BKc3udQ8Ed7rcf2ffIGdeT9f5V0EPhDTdVtby81FHEMbSPGI3KmT3Y+meABXL+G9RRbQz7f3qgj8a6jRb65vNLuZpmPl2wWOOJP8Alp82f1zXHUS9pZPQ3jpTv3Mnw3o2jnUpGslKvGDIctuGB/OvQLTV4b+KPTr+3luLJsp50yVzdpoKHwFaTCJrTV7cyS5K7WyZG+Vh34xU3hzxlFcSw2N/AFdfkJXpSWjHbmV0Z3ia0XTPEMWlLLmF2WXn/nmOf54rLhuYJbeSLzEOImKj1xT/AIrTmHXLRRJlRaqPl6lc5rzk312yq3nvtjb5RnpXTFKyuc8tzutVu4be3thLG8v75WARNxwP/r4p174gSTTWh+w6iHZl+9bsBjINcrcXslxpS3Qu5DcrcbBGP4V2gg/59K1Vv7oxjNzL06bzVOyehO+46PXobTT5H8mUyNctIEdSuQaZfeI7WVnuzDKJXbiIv0H1qreSvMkQeZiqfKAeTWbLZIQWClvejmHYfdXSXkomBWOQYOzO7P408XcgClkf03Aiq+nWEFy8gmZ1UIWXb61WLyRBolYlDwQanqPoX/JmvmEEQIA5y5rb0rQLpdMkvmjY26ymJp1QlA393d61yUZmiffGSjDuDXXeHvEWvQ+G9S0W2mi/s8sLiWN0Bbd0OD74Gaa9RFPWYjDbovUF85x7ViABiB71s6tcG6soJSMbucZ6cVl20D3NykUYyxIoYLc6W4mWL7S+4DEAVTXM/a5Fs5rZZiYGbfsPr610NzpjyyPbAk525rqtA8H2eEjmhieaRf8AlooJ6dh2xXPQ20PSzH+Ir9jyY001f1jTpdI1a5sJvvwyFc/3h2NUPyroPNGOPlzXq+kPttoYOp+wRtt9a8pf7vXtXp+nP5fiXS4SflbT9rfgAa0pfEZ1PhZkC/1jdsbam0/IyKWH1rXg1XVgF2XUI2/3gVq8YY/UYoFunsD9a8xYqa2PQ9jSfU53WZ7m4H+kSK7k/wDLPpitjw/pOmXlpImqXJiaNl8sA4PTnmql/ZPLdEQRvK4j3bUGcDOM1ctFgnEqo6tIjbZFDcqfQ10yqOVPmZhGmvacqMTxtpOl2FzbS6dc7w8Tb9x3HK9P50ngfTY79Lp5LkxR8LlW2lvaneKoBHAjrkZjK5PPel8JaV5VjJcuzYn2lAPQd6mVT91zFKn+95TtrTSLG2G2NzIP9qarMGmWFuWaPTrck8k5zmsE20WBhn+oNKItvS5nU+zVy86On2J1MC28SqqWEIxwPkHH0q2Lhl/5ZotcbtuAflvpx+NNnF5LA8X9pzgN3GM01NC9kc58Vbr7RrFnF5wJih5iH8GT/WuQ0vRtS1LzZLGyluUj+VygztzXXXHg6G6laae/uJJG5LNgk1p6Dpt54d85dOvTtmKl1kQEZH/666HiIqNo7mDoScrtHn2q6dcadciOeB4iyhlDjBxTdNsbu4lE0FtPNGjAM0cZbBrsta8O6lrl+11c6gjORtG5TwPSui8Li58OaV9gCW8w81pC4cqTu/8A1U3iI20eovq8r7aD/C062mmiO5S4Vtx+UhlxW6L+xYLjhgcnc5INNXXCeZLZfwcVKNSspfv2g/ELWkcWrWa/EzeDd7jFmiYFknGfTdVqKZxAQs6b/c5H0qvJLpzD5bSNj6YxSD+zsZ+w4+hqvrcepH1OYuoTCC3aaZ1ZFG5scGuA1Ny9qPm8zccFz1bHeu+aLTJVKtbOoPb/ACa86fdJZtEEBZZ3ADema0jWVTYFRdLc6vREMHga9l3YWVsdPvdB/SvOcPPqtvHGMyLMuwDqSWAArrkaeHSIY3OI23YUOcHHfFYNjodzd3jyomJFO8Fv4cDK/iTUKyTZT1siO70W806Xyri3kjf69aggTUYZ0e1e5WRTkbGPWt/TtJ1LUJGi1G2kVYsPE+7qR261dvdAd7VAGuBIXyVRSCuDxzXSsXFxtZGLotPdmP4n1u41ePTxc8TxQ7ZRjHzZOf6UeH7iw02ON4bYT6hOskARfmfdu+VsfwjbUXiCwvY5luHt5WjI2ghDV7wZqOnaXYXt00DjWAzKfOU7GhOPl6cdPzrCbjKnymq5lK509jdWOg6KbyS5kOpyA+dGX4iz/Bt9vXvXlGqzNe3010mFDtnFWtcv31PUDPsfex5DdfofWl0Tw7c6lqEdtcy/ZkYnfu++ABnhazsoq6K+J26mz4MsGvrKeISJGPMBDuep/ugd69a8MeG106wW6aQFWcsWYdh0P6VwemQaPo7G2to5HYAqzu/JJ+ldSnjK2nhlsJ7yO0KwlUDDCYxWNlOXMjR80Fys3oTDq2nLdW8vmxTbvn9eTXMWvg37Rq63BcxFWzlejGsfSfFVvomky6cb23mNvujiFurYc9QefUmpU+JUNs1qkumcsuXeCfnd9KqVFtkqdkch42vRdeJtQS4jw0LeUmD6DFcfyTivQ7q50HV9duZpY5lkmk3YZA3PvzWmfCGjmMSZQDrnyj/jWrnZJWM+XV6nm1rE0u5AWUqN/wCVa8gmto0WeLy2KhgD6V1smm6FEQh1C3Q+jwEVUl0PTZpB5V7ZyD6uMVPN3Q+U5RWa4lAjQy7eSFFWHvY1tyGtUQkYDZNdRoWif8TBol8o/Nj5XyOR0zWxq3hyaztWmi02GVApQonPXvT5hWPNI54VhAACMRtJz1pkej3lyzywriAdZW6CtGLQnTUdjugkjZsw9eQOKgu31K4K27XrNztEQGB+VCkm7IOV2MoxyJI6BlcKcZB61uabHHYaffXLTbrsxbYoRyCv8RP6VDFoEb23nz6ikSqcONmTn0qdbqysrcw2WRvG15JF3M3+FNvsCNnw5qKTaeLS5g+1W4G2WOKD5VHqW9aa+jNo8klzZ4ubOVxtdeTGvoa5pZ3iVktbl4w/BAO0NWrpepT2l6LRXkOMLuUZB+tZSUotyR0U3GVos6Oyhhm1W486TyysYZD71uW3ni9VYLnf5KHcVGOe/wDhXMm/Wxvbl3VCGwu5hnb7irl7qLwWMV1vSA5wip1k9/pVYZ+4dGZJ+3u+xnfE63SWbTtTRArSoYpfdlrz413Pi26ik8M6fCbkTTeaz4KkFeK4Y+9atannCN92vT9PQt42sCASIrAliB04FeZAZIr07R5pH8ZJHn92liWx78VpT+Iip8LJS5GP3bgfjRu/2XrZ+zAnrTTaAj5XrwropnE+JZ7zyktbV7hDIyl/LVuVAOMsPfPFXtJs5LWJrmZ5Hu7gKZ5CeWI6V1P2Mgff/OlFrj0rV1rwUOgXOb1GyXU7cxSXLRMD8o2bs1Z0y3k0u3eyS4jmg+8kpQq4OPu/TPet37P3wPrQYGzxg0Ku1HlQczWplCS49c/lTxJLjJVT/wABrRMDDkDFJ5Lj/wDVWPMi/aSXUoea/wDzy/IUom55t81b8uQn/EUvkze35U7jVefcqiXJ5gNP3r/zzapwk47D8VpRFMe6flRcpYmfcrAp3Dj8KcBGDwSPbFWBDN/0zIpBC2clIyaLlLFTIwEI/wBZTWVD/GD+FTeSSfuR/nSNbv0CJ/Oi4/rcuxEFQjgjigRndw2ak+zsOqJ+VBicfwp+tO5X1vyI2XapdnxtGSc9K59bq1ljNzHLbmPeVG2QF9wP8S9q357dpoJIXUbZFKnDc1x83gSeCZJLG7UjPzrMP8OtdOHqRhfmM6tdVLGnq09zFDG9skciRoCpcdc/3RV7w4zJZyTRkl5pCz5HI9jUF7oVxfR2aSlWEO3eqPs3jPIz24rbtbM26FIYBGhYtt3Z6+9XVrRlTsgp1IxnzMk+1zcgoD/wGlW7kDY2DHXpipNkg/5Z5/Ggh/8AnliuPmOlV6Yfat3HlZ/GjzYwDmFzntkUgz3iY0mc9Uf8qOYftqT6il7QkMYOR/sipftNq84lkgDSD5Q5iGfpmocjP3cfhSbh64/CqUmHPSfUsRSWMLu0VvCrN94+VzVe80zStTcvcRoxbrjK0ny5++KdknjcKSdndDfs31KA8G+HGk3i2G/1ErVFL4E0SZv+Wyj/AGZq1SBxjGaTY+Og/Or9rLuL2cNkY6eANPjUeXf3KY5H3TV9tCvokVYNWygGNskAP48GrIWXBwpB+tBEvH3h/wACqlWn3D2MDl73wVqt1cGX+1ID6KYSB/OpLTwrq1qRvks3HTKMy/zFdJvmB6H86C82377HNP28+rF7CJmWWj6jaxz4eFWb5lYPz2xXW8vbhZZQ2Vww3daxN0jfxsPxpQ82fvkiq+sN7i+rruYmp6Lf2/nXGnxiSZ3LYIB/WsA6HqDXE08ljKryAMjY+4a7otNkZwRS+dIDyB+FL27vcX1dWPMrDQr65vvJmtbiONctIxjI/L61sSQabbssY0Tdhsb3Dmu4ExA+Xg+zGnC4c9XOPTdTddtjVBJHFLpI1GaKC102CFt2S+w8Crn/AAhclncfaIbyeRxy4EOB9K6V2d33iZwfXdS7pv8An4kx/vGj27CNFJ3OXHhu51ua4T7PP5YYZIG3t71MPBHiI3pPktJCqbE82RRx7eldPFdXEedl5MKeby8c5N/J+NOnVUFa5eIUq0+dnP694B1nWLa0jjtrOB4lwZJJ+f0FZSfB/VMDz9V0+L6Bmrt/tVxjIuw3sVpPtVyR9+E/Va19vF9Tm9gzko/hHEg/0jxDHn/pnB/ia6C18LRaZfvqf9oiZ/I8kxiPAx65q558xXawiYe3FE0s8ls0QSMBhjl6uFeKe5E6ErbGeG5+7JT89eSKb5knqKcZmz90ZryzAAwHWQ/iKXeP71IZT18vNJ5uONg/KgRJkkfeHPvTgSP4h+dRGVc/cH5Uu9M8haAJQ7D3pdzsrHbwKjEiY+6n50uU7KuPrQA/f0O2gyj0pPk/2PzpcDP8GPrQAu8EUb09aByf4fzo2E9Nv50gHBkOKX5PasjUtY+w7lhtftDLje3mBI0+rnv7U6x1y3veAiqy7vM2yKyptGT83Hb2quVmipzavbQ1f3fsaB5RGKRVLAMqqwIyCD1p+xwfuD86kzE2p+NIYE+lO2N1KYpyqf7tAEfkqeRk0eSMYBqXyyD92l2MOx/Oi4EP2fnGf0pfI9xUu1/Q0m00XAj8lgeMH8ad5TgU8Zz3pQDQAwRHH+FO2sB3pxJo3sKAGFTnOD+VJg56fpUnmE9x+NO3k91oAi2f7A/KgRr12Cpt5x0Bpd5/uj8KBlfyh/cFHlL/AHcVPvyfu0B8/wAGKAuVxEvpQYV9an3gDBFKCv1FA7vuVfKQDFHkKTkVbOzH3c0hMS/X0ouPmfcqG2B7U37KmOavExnuKQqh74/Gi7Dnl3M82Uec4P5077JH6kD61c8pe0p+lO8j/bNO7Gqk+5n/AGRP7x/Ok+yJn7x/OtHyT60eWw70XZXtqncoC1A6MfzoFuP7/wCtXjF9Pxo8r6flRdj9vU7lHyP9vil8ls/e4q2Yj6L+VNaEnkBaOZj+s1CsYW9RSCBhVryv7y/lSGIHsw/GnzMf1qfYrGE45SmeSCOUq55I7Fvzpvkt2LYo5ivrb7GOLmwzjzI8/wC9TvMsmBKyJk/7dVzZQAj5Ymz1+WmNYW5zmGHJ/wBnFOyJ9jB/bRoBbYjIfP8AutTgkB6OfzrKGl2va3Tn0zTv7OhRflTBH+2aLC9gv5kanlxN0kJFL5SgfK+PesoWFv1XcPpIaetmB92Scen7w0WQfV30aNLy2OB5me/SkEUn979KzzbP/Dd3I+j/AP1qFt7hSCL+549dp/pSsL6tPyNLypOu5D9RQYpuwjxWcqXoGft8h+sa1L5l8B/x9L07xUWD6tULnlOBzGv51Q1ZrmOzZoGWEBWZ5M8jC+uDj60/7TqIA/ewMO+UIqOebUbiFoT5CpJgMy5zjvTjoxfV6nYy7nw1NrNjZ/Y9WKTXC+dDCsY8vaT1yD8uOvrzU2n6S6TyWX2yZwqNJKxdSWZOvl5HB71D/wAId4js9IaLTNTtUilYny1j8t3UnIycc9+O2TjrWNpXg3VItQ+0SXPk/Zz83l7lckdlOMCtlC61novI7eZr7Ovqddoont7ZIxcC4tPKWSGQjawU9Fx0Ix6dOa1PP4xll/CqMV7cwQJGLNSqDHEgFPOqTYINhJ+DA1i7t3ZwzpTbb5S0Zhj77H86PtHP+sNVRqJxg2Vxj2waU6mg+9a3C9yfLzSsyHTn2LgmGeZvzqUTDbkOuPXNZ66pbMv3JOfWI006pp+fmyv+9G1KzFyS7Gp5x6b1xS+b9DWcupaUSB58WfxqZbywkHyzRn/gVFmKzLMlwkKGSQoiDqzHAFQRavYTZ8u5i44Pz4rg/Hd2H1KG2jlxbpEH+X5vmOf8BXO6Jqz6TPLcwqjzEBVR4tzEc5HQj0POegrsp4VSjdvcLHtW8DtS+avXGaw/DE8tzoUL3OVdfkXruwP72e9bAA9WxXJOLjJxESCRT2pQ6HsKjxnoSfwpRHj+P8xUgP3J6UgKntTfKI6Mv5U7y29RSAX5PQ0HaTgZFHlvjsaQq3TaTQMfsXvRsXPH86Zsb+4aTYcY2mgRJtXPWl2L2NRFWx0ajawGefyoHcf5efQ0oiTPQVHk96PMwOtAXJDGPSk8rvUe7PelBP8Ae/WgVx/lHFBjb0P4NTCxz1P50GQj+LFAXHFHGMbj+NB3n+9TRJ6Nmgu4HBoGOw5PekPmA9f0ppkelMzigBMydz+lG5uvejzTkZzS+f7GgVxpkcdBijzH9KUTDuMGl81DmjUDntuOc0YLL1p4kO/7uPwpQW3fdouhjOf72B9acMY5Oam2f7IoWJcjp+VFxWINuBwcDPel9uKmMag/dH50bAAPk/KncCIbj0b8qPLZhxn61N8oBHajGB96lcCIwStjml8mQd8fSpt2BnccU8MWIX5mY/KAPei4XIBC4xnJJ6VJeRPpltFdXwNvDNKsSmUgEliBnb1xz1rqRt0WziSBl+1yMqtLjJyTyAfSvHfiNPcXWoWNzNI7pLCyfN03K5/oa9Glg7rmm/kaJtdT0u/b+zIfs4Y3O1WV9rbTj/ZzWFoltHeS3stv+481+Ptc6plfQAnrmud8N3l3rXh5lkvwtxaN5QdwGO3Hy7wfvDtnqMVl6lp18NLvb3ULqES2LRm1EB3K+Ww2fTr+lUsPrZbHS6ycLLc9CkhKOVkKg+xB/UU0LGqhc8D3ryzw3rE2l+JoJY/3kE86rPA3KyKxGR9eeD1r2C+s0t72WKNd8St8jeq9q5a9F09Vqjn9rUXUosU3cdPrTgY++4U/YM/dANPCL3Brn5mH1ir3IsgZxx9KTKt71Y2R46EH3oCJk/1ppj+s1e5B5YzwoFDW8Z/5ZIT/ALoqyYkI4pY4BJII0RnkY4VF5JNF0P61UMm58P6bqDmS6tVcqFVBGCp755H+eK5XUvB8tpch47ppLbcNy7Qrhe/tmvTruwfTbV/MYCZlDAK2cfj61wt3JcXlwtpLErGRiocvtVPc/wD1q3jKcNG7HbBKpBSktTc/sGwsEhtre3CLHEo3q3zSf7TYPU9acNNQfcecH2matjTdOhv9FintLmNHjd7eZCCUWSNtrbW67e4z61Dc2N3ZMBNwrfddeVb6GpqRnHVrQ5JVrO3KjN+xMP8Alvc4PbzKeIJCTsuLhfo2amPmY5b9KMMQP8Kx5yfrEesEReVcD7t5OPyoH2xel3If95BUvkO3QH8qcsLjjFPmD20P5Ctc3t1aQ+dPfQRRL1eRMD+dU7HxIdT1BLGxv7ee4fO1PKYbseh6VyfjqS5/tY22H8mKFXwqnAz1Y1ytlNNbXsVzbvsljbchrtpYeMoptg5Reqiezi+v9zA+RuHUYYYpRqN/1EMDD2cj+lclpXiTXbmCNLXRnvsPiS4LbFBPJ6cCu2KEnrk/SuapDkdhudLrFkK396R81vGT7S0v9oToObNunaQGrHAH3E+uKY7RFs7Ix9AajQXNQ7MhGpylgDZzAeu4U5tRwObWb8FzQSgzhBzUlvbT3bYhhLDu3RR9W6UtHoNexezY0apGB/qJ/wDv3SHWLVeXWRfrGaL2+07R7V5bh0ubhFYmKN9wGPU/WvO7jxrqt1dKEkSFN3yxwwr+vGTW8MPKQ506cerPRF1iwf5t/wAv+6aU6lpxOPNX8c1haHq8t68lrfWxgvIkVyoGNynjOO3+BBrc2o4wAfyrKdPlfKxclL+YkFzYsciRKXzrTOPOj/76qERJnBX9KU2kROf3Z/4BSsg9lTf2ywHt34WaPP8AvCnARjq4P41U+wwnnbD+VRmwgP8AyzjI9s0coexj0kjQ2If4/wAqDAG/iP4VnLZRB/lUAn0Y042eeeR9JKXKHsP7yLxh9zSC2xk7jk+tUfJcDiSUfR6YIZOouLj/AL7o5Q+rvuiHa6jpQF+Ucgn60wbuu9hQF5+/+lTzIwHsNoOMfgaBx34pAgPRs07ygP4yKXMAbgB93P40hcjotO2LnO9c+9OEeR99T9aerERGVyerfTNLv9t1TiAnuhpwicdUQ/SjlAg3qDxH+NWIX8uGe5xjyUyp/wBs8L/U/hThEyj7gqHVp0gtbSxBxLI/nyD9F+vFb4aip1FfpqNblvVtRMGSuC9vONit3IjyK4nxvaI/ha3neUedDKqxqOm3Hzfjk81P4o1BjHKEdhJLKhXa2DngcfnVLxzcLa+H7W1cHzrjDKNh2rGp/hJ5PPU9zmva8iziNKu5LS8Gy++xpICskhTeMe696t61eJNFCkesNeqx3OgtzEqEDg8/e71iUtZAdl8PNLtb/XGub24jihtQGUN/E56fl/hXpoO22jIl3qryR7/Xa5/xFeXeDVieC9DMEkjKume/B4Hv/Ou/0iXzNMEJP3HZx+PH9KxxCvSZL2NAsM/M6/SkMvYED0pgXPc/hSiPceTmvIuyR+84B+U++aTdJjgflSiHdxxTxbcc/pRaTASGC4up0hiBaSQ4UdK6iC3g0WLy4gJbpvllnPbP8KjsKy9JZLGGe7/5as6W8Z/u7uSfyFM1PVfI1OVW+6MKwJ/2NwP6N+Velg8OkvaS3KiupduRHMGE67lbrmuP1rQ5PKkm0i5jgmVSw83kn2Vux/A1sSatFFADNJsUuIw2C2WY7VGAO+KqX0whtHmcSBTlQrphy2SNu38D+VdkqcZatFqo46JlrwtBLpnhaxsLgETbDLLnqJHYswPuM4/CtlpEi0yeKceZE+SoPZgMgj34NYjaxDJcy7IWDo+GDSKozlsgYz3H6irN1qUE9kjDIKSbHTORuzjg9xz1puOlmSmmQhYhjnIPIPtSYQkfNUGmyb9As7kpuC5t3IPIZen5ripTMp/gO6vFqw9nNxIasSkr/e/OkwAPvY/GoeG5KmtCx0a4v4/OCiG37yyHA/AdWqI80naKuJK5z9xp0t54mtii5gktmWdhyMxtuUH65IqK4No9uts9rAkik7I1QHaD6GuolFjpF9BB5jMbuJkhlbgNJn5l9vlwR6/NXIanYpd3i27TSIys2542CkKOvWtnGUGlPQ9TDP8Ad2Zc0OD7JprJGoVjOxZSeF4HStHMpH+FFroMGlWMc1mu+1nVZRcbyxfIyNxPfmpRGmT8xFZVIy5tVY8+rLmm2Q/N6fnUkUbyuqImWNSFQDwfxqW3l8pmy2QylSPaoUe5MUm0mSNHa2Me+QJPL15+4P8AGsO+v77VS1vbScD5Sw4SOoLmY3iLtuHCbsNgdFzz+OK1dMiiOlxSWu0KSf3RPz47MfXI5/SumMZKLcUdlS1JWitTj9e8PNZaHcTw3UjmMbpA4+8MjOMf1rhrdHtbgzNEzjayqAwHJGOv4mvbLiJLq3eF8FJF2njNc9r/AIa0e+sIZEZdLkiUiWRG2o2B/Fnv6Y9a1w9e2jM4QlVW+pz/AIHDrrlzc3LbTcKyhS2T1BGfyr0LYh71h+H7bTI4pxp0SmLzFlQlt5X5cYDEA9d3FbJEn4e9Y4mac9DKrT5HZjyEHBbFM3RgDD00rzygNJsH9ziubmMh7SqM4596aZHx2H0pNmeNtAixRdgGXPNIQ2Tz+dPEa45B/OlCJ3zTSYWIsMKCrk52g1PtAxjI+tJ06frTt5hYy9qijbGTgDp2ppmT+6cUeevPyEjvxTuiiTagx1FO2jAAcioRMhOcEfWguD0NO6AnKAAjzBmm5RR98fjUOBnJY/iDQAP7wFS2Il82MD74z9Kf5oI6n86iCtu5x9akSNyO2KWoDvMfHDcUt1FbNoNy91GspDr5THqh9QaTyHA61m+Ip2h0uOHON2WNaUrqSZ0YaKlPUwbCzub+Z78OHaGURxxP0JP8W72z0rmfFd091qZDlCYV8rCAgdT6969C0W3uINItZY42YsxnIT72dwKn8hXGeKdHnub+51XTsXdnIxLtD8xhYcFWHUYr1aE3KLbZEvidjjzQOtHBpRj2rQR1XhK6NpBqDGFJoGRElQn5urBWU9sN/Ou28JszJO7ofLKBVJPOQfT865TwpoeozaHquq8RWcMaZ8w4MvzDO36da2PDGv2a6g1gJt0033NgyPlGetc9eUlFpItRTg3c7bI9B+VA2/3FqA3BP3e3ejznz1/SvKvYwJ8+i80BkzhhVfe5HfNAyewHvS5mFy/dny7Oxi6eczTf0X9BWN4hk/0iC6IyssQjcf7QOB/P9an1PxFpl3qsMUM6D7OPLKHKlQOOVIDD8sVj+JL6NtPRAwfdIMbTnPOf6V71OPLBR8jRIh1FZ73RdS8iKSVk8ny0jUksyyKQBjv1pmtzWsV3PZWTCSeWPzZI8t+4K7zvZs8H58bRnJ4OKvaQ8y6aEiVmu5GLbVPyoOxY/wBKtyxrbWz+axmKje2T99u3HZc446mrTE1csiC2sNPjacsVVUOXBY9BjCr35AwBVfxBeWltp+mvaSpIszLKAjcbcFl+mc1PqNndy2UMO2RpoRFvEc3lO2GVm2v/AAtxwakudPF3p1taaiiSSR20aFwR8zAcsOOOe/fGazqVFTjzMEkmUfC+oxvbT6adr+YWlUlsfMo/h9T/AIVreTzj5cVwL2s+ianHdQ+YWgkBDN8zcdq7/wAxZFSWE5jlQPGc8EN0rzcTJVGpI0rUuRJmvpWlxeS2oXSAwINyRnneR3Pt7d6NUvpLqdV8wnZIpCg8FSOBWjfg2enQQj5hCo3AfxcfN/M1xtpcP9uePfvKyxwxcfeOGwf++cGvRoUlShZbma0L99YWmqaW+lXeTC4IWQfejYcqw9xXllnp/iK98VP4buL+Yu24Tysd37kLlmDHnBXp9RXpVpqKX8UM9vDc+TKplR5ItoIDbT3PeobZ7A3BupJoI73JgZ943NGrHavHbdn8sdq0cU9xqVtmbcdxtAMA8tEHl7F6bQMAEd+KjuYLcxpcW/AON6E/dJ/pVSzubZpCi3cTs5Lbc49c9f8AdP5GmWsn2mW+iCnMHO49OMZrHEU1KD7oTs0O3DtTRNh1+XgEZpwVz2p4WQCvFuyDkbyd1W4iuY3hud+xuRhl7uPbGPxNX1MrQM6OUaNJCpU42kNxir+oaRbakp85NkgGBInBx7+tLb6Nc2+nocrICjpuU9eepr1cNVjJWSszaVRz3Hx6j9os7ea5h8xmG5pE4Zlxz+NU9Zv4rGf7TbxYg7CRyADj+/8AT6Vb0aFlt1tiMvFIUx6f5zTor+K7sopbSKXbIjPD5kRXeqthsdjzW86EJa21CFTkd0Yvh7WrC4ktrSWZHvL24it4obZ97KGY5Yk9lHPJrqZNPkR9kVwJHIJ8sLtIwcEEHvWHbaJp/wDaL6xaWxtpLqBki2j5E3cO3sx6V0rbryOKaYbLkACTaerdM/jWTwlOS13Ccud3ZntHIrEMrBh2Ip3zKOF/GtC6uIprdYZuZ48FH7lSxXafxFY1/eJY6dc3hBbyoyyj+838I/MiuCtSdKXL3MmrErXKRtseaNT6FgDUnboDzXjltrK2d/PdyxfbLiRGQl2IwW++2cdcZA9M10fhPxHqmr+IVhur0vG6SZj4GwAZUDit6mF5YOSewOLR37NjrjNN3gjgflSmLHQ5+tN2MO2K89yYtRDI2PuGmFpC3IAqUI+OGNOw6jlgRRqxGFnA+YGjjHGc1MqqvoPSjcwAO5RWliiMAsRjOfpUgRc4Lf0p3P8AfH4ClzgfMuaLIQuxVYgtwRj/APVTtkfYZNMV1bpgY7U4uOMLkU9AHjb2X+lKSAetRGXn/V59yaQyNuOPlPtRdASqxxyWH/AawfFSl7aPHQ5X9a2s5X5mdayfEcUiWsO/BXaGUD73XPNVT+I6cL8T9Det1TyzHEyt5ceACPQVQTw3pxDvBZQpJIuGaM7Sec/dPH48Vq2jRtZK6MS0iO+fRcAAfjTIXXygXPTuDzXo4SNqab6mSWhxl34FjLOxnuudxw1tHIF9MYJOPxqCz8CLDKkn9pBxwxRLMKfpk9K7O61iFFcecxRFy5delU7bW4f9Wse9s8Dpj610tIDUstOtZdGu7CS2MiNFlmlfcWHdfbj+lePXlq/hzxRapDzPBKpCqPvjd8pH+8p/PNe4aHcNPdBJo2AZSuT8oAPotcp4ptIbiyiQpH5qTYWcbQ8Kc5YEj+9t4rCppNLo9BdTaMZV2RkKsDgqy4I9qVYxjp+mKradey6jYJdXDq1xkLOwPWTHJH+z6HvVpTxXkyglJolxcXZgI0PGMU7auML074pB3yMUvmY4z+VKyERajHHPpM6Oiu8fzIzKCVPsa4q20m61OxubmJTIbeUIwyFxuGQSx7cfXg9q7SWRZAU5G8bTn9KxtA0eG9utX0+7TcWiQou4j5gx544PB7+tdmEl71ju0lQT7GjHvtLKOO4vYYiF+Yllwp77VHU+5oMtuLdhbRTycfI5iIG7+8Sep9+1ca6eJ4Lu4TToLeSCFyscTSAsoH4jNaOva7f6ZGmLZ5rYoTL51tuCnIAXOe+T+VeldHKd2rbdQEVykiIMhmVN+PTge9WNVjSNYmzlz0JXadmB1H1z+decaf448V66Vt9KsYo14U3AiztAI5LNxnHpW/4jvv8AhHrabUBE93JcXAeZNxAi3DC88nHyY+prDEJum0tRPYl1GwW6hYp/rSPpuqp4TuYo5PsF7cJFFbyiRZJHCJ5e75hubjhv/Qq5e98dah9lX7MlnBJt+8CZC34HgUStd61bPaw3SXskskDNLgIke8HK+w3D+lclPDyS9/Y1g5OLg/keo+JtWtWiEnn4DE4cH5cd/m+6a57wnC93LBcSFmVN1wxI5LN90Y9lC/nXnM3h27sNSEMblQp2zJDIw34HJ7cH0r1fQI/I022WI7mKLynUnHvXoqcZ6xIlGUdGYJWy0DS9FhuXih1iMJvtQGklkOHwuxCQTuYHkipLGw82G2Vt8X2fiIswZ1wxIDbfl3ZyTya6LU0Szt9zGSabdnl8gSHsP/rVSsYXW1iEj/dHCf7Xc1TZHIiA6Q9wgiMzOjH7pG0ZG/HP/bRvzqfwtc+fNel0I8xcMVOd3Jyc1kXk0MWvpdQwSyXVnDJLKwibdtERCBW+7sLNyOpYe1eZ6d4p1bTZEltrhFdef9TGc/mtJ6gkke3q5zwuRTllb0xVWyvftthBdIw2zRq4wcjkdKmLSseDxXgN2diCTzcnpz6VpWDefaRqPu+ay5+uKwrv7StnM0Mmxwv3xL5e333U3S9XvFs/KukLlCJFlK4bcORuxw3b0rpwztLmZ00qLmuZMtXkNxBfXL2cXmTXFq/lRggFplBUdf8AeU59qy7gaZoZ0ywh1CBZoYgktvHOzuzBMLmNdxPzFmI74Fb+qATRNPDnMZW8i9dpGHH5U6RI5MXKoglMezzQo37T1GeuK9hPS5jKN3qYFo2qC3090muZYVWPz0ZCGcjbvPzL/Fzgdv5SW99qNqELrJIyhdyTYweXLc4znHl4+hq4+mCa9hM0zmMEIqDgKKxodTk/s6CSPTxLcXEFxK8Vu+NsSsy7lDZL9ifYE0cxPJbqR69rttZ6jcI1yA42gbPmKtncOnTBrb0u+07VZY5reeORSUlKLhijZDbSP4eR19hXg8jkjjge1dP8N742/jWyjwuLgmJieOCD/hXNWpqa80ax+JM9A8X2ulPNeXQsIFu5kA82P5W3NkknAwTgfWsrw/4d0u3vLW/tkuTOm8O3mBQmUPYDnJNT+J1vnvo0sZcRA5kWSMEofb8K1dHtDBpMOSfm3MW9ecVxSfuux11mlDY0iE255o2rjHIqMxnn5/1phdl/iNcmiPPuTbhnGWH4Uh/66fpTsDf5Tlll+UZPcn/61Qt5nfIpt23KlGUdzI2gtxmkAYdW/wDHaNx7q3504MG/vj6UXFYArN1DH0HSgx4GeaeCefmY/WlD+xxg9KQhgjzz8wHpTxHjlQSaUSIOefqKkE4P/wCzQA0Rg9j9aeqKvXaDS+bGSNz47/dpQUdPlkz+FGgCKEyBuHpmsTVL2S6IxErqrNgocbQFzjHsCv51vbQBjd+NUbrSra8Yl2YM27cysMnIA/8AZRVwmos3o1PZtkmljytMgSXKXHlmPB6jHNV7u4MdqEGQT71t2ojEczShGQY+bbyDzjn865LUXIytephXekmTe5l6lI32CRE++zqMH6iuhsrEWNsi8+YR80rNt3HvjuR9K56zs57vUF8pY5IYCrkPyqseB+X3sGu0sYofnY3OT0Zk+Z3+rAHH0Fbppuwh+kTm3v4XHGHHIXBHP+etcz4uuI7vUDBFhnt5pFYtxnoefbrXSWrxtqUax5/1gHOSevpjiuW8WaRfvrE2qWKmUMSZo1+/uHGQO/FcuKtZJs2oTUJXZf8ADKkvPH5kceYt4wMAkH7uSfTn8K2QW6kjH0rznS2juri2tZHlF00wSMbiu0ckj2r0iHAj+dnJz1bhvx9+2e9ebOPLoPFuMpKSAED7yjnuBT8f7IwKduQD+L60owemaztc4xhRZFK7vvcfSqdo6WfiG1vJcATK1vLz91jwD+daAXJyePwplxp0FxZXDuoDblOelbUW4yujqw0rtwezM27j+xaxIw4V2OeP6VaY4TGMK3oeD+FZk9w95HKdxkkgKh/VgRw1FrqG0KrOdjjKn+le1GakroicXGVmbtkzx20wX7gfIx24yTXN/EBJZ/BguoSQq3MYmw3DKc7c+uGxWk07bvs0HzSXEZG0dv8AaPtWyllBLpslrLFHMhX5kkUMGI9R+FN6Ik+exIADng9uetek+BdFY6fJf3UMsUz5WBmONy4HJX2I4Pua6aHSdPtm32+nWULDutsuavFmJJY5NeTWxnPHlirE8/Y878T+IJLfxCFSzWJrcr5jP1Y9yPbmum0rxAujXcmnX0Zjngcr98DZx0PpWjN4VtvEWq21xNCsi2oJlVukinhQfXB5xWVrPgLT7XWY7mC5a3lJ3bIwGQ9unVa6aFaKitLG6Uqq5jT/ALQTV7g3CXyTiHhYrdG8uM/7x6mtRJd4CqMRoMbievr+FecX+leIW1KR7XU48s+5Qz7GzgA/w1sWmgeMIrxVk1OAWTEFgjjJGOn3c/jXbcyOvLvJujXhMbip4LA8cD068nrXlVx4Pi0/UpILpjKCxZAh2jb1H6V6FpvhyLTNTudQe4knuriMK5P3UA7Y/qar+JrQvbx3kYy8XysB3U1w16k41LdLFU2udKRa0VP+JVAE8x+OrHJJrQw45xj1BFZXhecvpzR9PLcjrW58xHQ159Re82yaqtNpEJQSKyOMoeCMcGoodKl+ZLB4YzgnZMpIY46bh/Wre09OlT2rFJ12jcW+UAdc1dFpTSewqdSUHoyvbXJhCRTRMwjzG6H76juKsW4Q2vkxTJKV4AHDf98mrOoWnmzGaAAzZwynjfx+hrnJLi1uCYmPlyg8oeGWvQcp0dN0dajGrr1OgsdNvLi8HyyJF5h3yOvCemPetFdOs7DRG0nTE8oPatbpKxy7AqwBZupyc/qaxNK1j+z7Zra5dnUfMhJ5YEcj36f+PCta2W81HUILnyJILSPc7STrs3Nt2qqr1IAJ5rrVmvU52nFnheseCLrSdQEF5K6W+wHfFFvdW4+Vl3D8wSKt+BPB81/qyXF44hS3ZZNmMk4I6/4V6h4uhmuHDRWEdxg/e89QcfQ4/nWJoKatbzyeXpeGmwMm5iwnzDk4Yk/QVzL2rlytadzb92lzp6/qO1LRkGpypYXl/bxOuZYo2V1VvRC4JArW0KwttIYygySzSjbK1xJ5hZf7p7Y9hV2SC5G53t3kg2b1ngkEityPlw20gklsD0U1C0gRHcb9iFgxKFemfUe1dKglrY5+ZvQkvdOi+aezBaHGWjJyyev1FQ21vbTRhHHluDncP4l70tvqOLrEfQKOvcsM4/75B/OgiJ5wIgDGzAxn2PIry8TQVOSlHZiVk7tEV+PM1CQp95ucHp0x/Kmtlj6Z96sTEyXmoSDBRSFz6HPaoNrdePyrlqM2xL1UTNAkDcJGPfFKHuM/6tPfmo/tGegP6UouHxlVI+vNHMc5JiTvCfbFADnrHj600yvnGSPoKQFt2SzHj0qXIB2McFOnbFIWUDJVufSgPjjcxNKGI67uaV2Gg3zFP8D/AFxQBvHyufpUvzYzyR6Yp43AYPSjUCsI89T19aPLQKMtVkqAM7z+NNMsMSNJIQqqMlmGcU0mIik1q10CzkurwSSWhZA4SLeQecHGR9M+9cbqvibRLmTfbkuG7GHZ155y/FT+L/E1v/ZE9hFZyiS6ClZLiIx4CuDlVbqDyM8dK82ch2JYIlevhU40kmWtj1LwxqNlqejXSOY7eOEEyiVgP3ZH3j7DkVXl8bpFofk2FxFasIz5SLAz5wSNrElQucKRjdw3PIxUvgrRrSfwuyXSRtNLKwlBjAdFDKQjZGewbB/vVg6xcT3l7f31pcwRFvMgmTzN6MhGAASMHIGOO9RRqJVZWCKbehZ8O+KNTnv1XzGurlZA8aRWqhRGCd7EjkcYPQjrnFeiFJAxyeSc9a8ktJ7zWNVjiS3s7OO6uVWT7HCIV5wCvH8OB93pmvXTJGoyGfb2+n1rHGTu0hSRA9oskxmaGMybDGWPUrnOPWnRo6IATu9zU6OXUYJpnz5/1uM+tcHMSIRx90U0yIueB+FSeWWH31b8aTyDjJKZ+lK4iIyoOgJqC7spdStD5Ee50YIUaXaG3cADPGc1bEO5iCP/AB2rdrE6so2n/WI31xurbDpSqJMunJwkpI5Oxtr2CSaO6sXtiieXmTg9enuO+R0yaz7pzDJ5Z+VJGOP9l+v+Ndnran7YzjaA/wAwArlbuye/nggTI8yZQcdVHc/lmvZUVTiazm5O7G6Hcp/abySrnzflVizdO3Su805gt0gcZQsM8dq8/XSJ9N1C3tSV3fwuMgOM/ocV3Fm7pPGWGCuDVRkpK6IGT26wXMkeThHIpBGMcnirl4n+nTjaWAc89M1XwM8oK8OpFKbMzX0KJIo7mbs3y/5/OuXk8PXMWsyz3d+LiJmyWIO+Rf7p7Af5GK6a0/48YIYgQbib9O/8hVDWXZZD5R+XdjNerRpRdKNzanOUVZGZqFogZmEqsTyYU/gH94ntVe01Ly7cB26fLk0S3G66ggY/IzF5PcKM1jCB7mGOSJXZJl8xSB95fUe3vXQI7LT3WeFirBlZSc9z7/8A1qheJJY2jkAKsNpqDwy374wtlQflx0xxVXVtTttHsHububCjhUA+Z29BXnY5NuNkRIyPCOk+IrfWb030RSyKsEaUhRIQcqY175Gea6kynOMfiRWGvxM0e3hhmt4bm5uFjU+VGu3Yf7pZuPyzVvStVOtWhvXi8p3kO4Y49fl9qjF0rRUwlrqX2dicZrR0OBrnVoct8seZW5x06fris7bJ0GDXQ+GoCoubhxjC7F/mf6VzYWPNViStWZQtdetfEF+13d2d1pk26WFdjLJAxYfJ67cZ55/DpXnl74xstQkhtdTtbuxut2Nzw5C+46MB3r1S7l3SNxuHoapxWcetXiWt3Ak0A5bz1WQKvTA3dM9K9566M1TsV/AumxR6ZHr9xLNcLcDNkJ1xsQEjft7M3b/Z+tat7rBkkfJOzaXHrgHDfl1q7qUsSaXnalvarF+4C9doGFAXoF4GK4R795pbhFB2gPlif4nVAB+hP40kklZCcnJ3ZqX+oooCtvDuGYkL8oKkg/idpwKWwu4jBGsUMiiVpCqhQNnzAuSM9ywJxnrmqF1bLd3luPvPbs0vyDP3jyPyB/OpLGxf+zo4S/mMkoct5IyNu3AH937g59zVaEO9zSivCbefZ5m1Cy5ZSAxXdnHqMgiiK+lt0WOUiWFjsCSfMpHUAg/XFVUhdJrsuFXz+wTb/e5PPJ+br/sisTxJeGxisnLYQOVb24H+BpN2KV2bU1taLM09uq25KleM7RuGNxHsMDinSFNNhS4J3rGqogTnkADJ+n9ax7fUVkVRuG4YBz3FQ6xqFusODlEVTv5yMsQq4/J/yrGtCM4a9C4fEjXspSbWZH+/I6uaecLz/OsrR5RNpyyhtwcnn1rQz3NeJUetgxMr1GZuCTTguexz3qQ+WAOMUedjvgDtSSMhBHtPQfQmnZXb/D9C1KJkzjr6UqyhgRtx9VzTSQBvXHBx9OaerD/a+pFN81R1C/XinCaLIXK/hii6QD9wbrPj6igHn74NRmVRwM0xpm4x8ufWi4ixuRcnG78KViBtkHLLyBuAyaqNl8bv0BqtqV0bDSbu7RQZIIWkXrjcBxQm27IDgfGt3ZajrlvNaNKZvKCTxy9FdWI2jt0/nVbSLeGTV4rq7RVt4HVpSV3AY9cdveudlld5WkdmZ2O5mJzubua7f4fiae4uZjkJCgXjuzf/AFq9ar7lPTojS9kdzd273MRWG8mtHZgWlhCktxjv+HPtXGMk2kJc2e0CNJGCOVGWUn5TgdztrtLm5WzsprlhuESFtpbGfQZ7fWuZuNTRrN57sxNM6NImMEr/ALJI9MDHt9a48IpSuug6btqUdCjebVrbekkcaS78soUF+iqOeTXeIMD5sk+uK848O3z32vWMOOS4dwGI5GeDXpiKwXBTA9mzU4qLUkiajvIQLkepPtS+U3dQB9KX5w3AyMU7Ljr09jXLykChFGCUBPtQcjOE460CRlJz0pfMIJxt/CnYADvjHA+tWLOVxcDjGRjIqsZPm4x9adFMPPiXHV1GRx1Iq6bUJqQBqytcMrhgSBgqSO3vWVpyA6k7YJaNCfz4rVvGu/JlgVYXOSoES5fGT781laUWRroPgS7wDn05/rXs4l2pSZo9jUkjWWaKaVA3lngkcjNEl/H9oyPlSPrnjNQS+YY2KPJEwXdvUdKz7pJJtODtkT3Dt5QP8Kr3/E4rLBz5qXoKOx0Wp3CNes8bq+9VfoflJHQ1S3tuDbOncUyGQtbxsd/KKfmOSOOn4dPwp+cqcZI968utK9RvzIe5smf7Fpsd4V/49rXcPeRxhR+tZWrkwrHGxyyqN31q3qskc1vpltGCUlnhDn+9tUcfm1Y+uT79QuDnhWIr3IK0F6GiMS5Mk9xLFGcSSQNEh9NxAz+Wa7HSbAw2w4xNIBubH3EHCqPwrlNFj8/WJJjnZChxj+8eB/WvQrVVFrkOGYgc57YpRknJxXQbZjRLFb3+9AFCsMn1ryj4jzu2v/ZgxCJGrgZyMtXrMik3EgxntivG/G63Vx4plZ4pDAVQRnb95B3H45qKlueLfmKzb0MmG3SW2hdrWRVWUebOrE5jzyAte1aZYWmnadDaWlz9ogjGI5Sc7h1rgvDOgjUfMUJdC1GNs5f5QfTGPm+gr0gRbAB6DFefia3P7pdZJadRNi10OiE/2bL6bjXOvhTlXyfrW9o7hNJkJOTvJp4J/vfkYx3M3ULkRS89Ks2F5bJbnbNE7+evnIdrfLt4UjPBwScfSsHWLhjK/wDsjgetWNRVrGxhs1I3on70/wC0R83+H4V31q3slc6KdPndiTXdTjui6RybtvGD1UduO3Fcta3Cul3t+fdOGXHfgBf5VG2nXV6bpbW42pDEWYOxzz2X0z37dDVTSDseZDjIAPHsauE+ZJkThyuxL44a5tdJgNtMsVu92iTKvDvz8gz/AHQFJ9ya1dW0qXVmj+0akLbSY5ZHmijcxvJJuYL854x0/Wszxuxk0G12nG7UYf8A2aoPErW03ijSrHVrhRpfkTTtFJJtjaQO+N36CtLmbLHh2UWHinUtHtL57nTY7cTqrSCTy5CV3AN+P41p6haw6jLFaXHKE5YBsEgZOB9elM8PW+jPP9h0OaxLv+8aG2kLsxyFyfzrQSFmvyzxB0hu3XkY8vag2tn13Efhms6r9xjRy0OgCxjE0mpXEgwdsQRVC89M8k1tW+lWj2489BdCRhIvnoDt4wMDpwM/nUOrtgunT5iK2rUqtpCpHIQCvLqVZuNrnVXSjTTW42ONUQIiKiKMBVXAAqT5V5605m46ZpCuRlePrXMcJQMqFQuARURnUNwrj/gXFQdeSOaeoGBvVaLFMnFyMYwSffFNMr7RhEBPpSLwMbc/QUgH+zu/SizAVieOP5UgUn7xI+opflPbH0pQUB4wM+oo5WIUEdjn0+WlBUnG7n2pwYBvVT+lBZC2Q5GO1HKwFYZ6D6AmqepIjaXdxTMwSSFo8KNxYsMKAO5JxirasQeo+maVo0l2pN5mzcCwikMble4DfwnGRn3pxWqA8HYEdeCOCPQ16L8PZ7OGzktjKBezsZNhQ/MgHY9D3rmNa8OXdhqFzFFC8tum6SKUkcw5OGbnjtmvSvD2mXGm+H9OhuYTDIYfNCnrh+cg+4xXp4rWnpqU9jUlgEkLrsV8qcIUyGOOhFeW6vd/uxaRoVbYFI38flXp5ITkyDPXJeuGmj02ZdVnjt8ztJ5kG/csioVYuDHtxgdd2QRx1BrLBN3aCJn+BkM3iNZOvlRMdwPfp/WvTwTnG7n61wPgmGSPUNSeRRHMiqh7df8A9VdtiVsZOT9awxb/AHrE9ywW2Zy36Un2gj/9VQDzVH32I9Min8jHIH4VzXZJMLhiAQP0p3mOyn51X8Kg5PHX0p0ZcHoefelqMf8AeYDzM89qntlAvIFLZBlXt/tCoQ7tkEn8asWYb7dbfOCfOT/0IU4rUA1yaWK3jX7TeRwsu3am1BIc9h1P1qhZ2kkNsHY4MhOUxnbg4rQnzPtlig+4ViWQpk89wTUFvIogWIr/AKvg59SAT/Ovaxf8Jly2EPyQT+rJtH4kVni4W71No0OY4UVF/wC+13GrWp3Ag0+VoxmRvlX2NZ2jQx219HFK3zSRNz6t94D9DWeF92iEdjd2RszMR9456UDy19BjpxikIQMeWoDRjnkfU15j1dyCWzgln1iCZkP2a0iM2R03DcMfntrnL64M85ii+aWV8D8TXU+f5GgahcRMMlNuSxwvv+tcXonzagJm5Afav5E/0r16UrUk/I1jsdFY2EdjD5a5ZydzN6mulsGH9n4UEtu2kIMmuc+0Hp0+lbGkl30+5IfafNUbh9K48LUbra9SE7sYwZr1lZSGIyF6EDp0Nc/qOmWGqeX9rtxK0f3WGQcenuPaujgsCNXhnaZFZm+URoOT6dO9Y80YSRueQxHQZrTHX91jk2tUKJGVFjQFUUYUKuAKC0xwWcAfQ1GTk/e4HrQAwIw2a82xndkq7snLqfwra0yQ/YZFP3UZnP5DH6msHawOAMfWtfTVZrGSPDfPKFbHp1rqwjUZ3fYuCblYoW8K3GsGWUfubY+Y4Pcj7q/if5VT1O4munneL5kTLO2eprC1/wCIFlazXNjaWrPGshzJG4Cue5yeprU0i6gvtIje2ZjFKCGJGDk/eB/Ot693abWh0OoqcbLct+FrMXe1JASs6yMccZPb+QqK88NmK9WW2jZWyR5ip8p9m9Kl0a6k0yOzZEVnUtDtb+LJwa2buHV0uH8zTogA7ABL/tkgEgrxnrjNegkrKxk+5gXejG8t0hu4VkjjcSKAN2GA4bGRS3ehabfNHLe2aXsqLsTzFC8ZLevqa1LiXVNo8uxtkI7yzsw/8dWqfk6qX3GKwiLd1klx+WKokS10eKwR5bLS7O0nZGjBiAX5T6sO3sK0o7JLLR44w5d8lnbH3mLdfbrVaDTL+aRA2rBGLDIigHrzyxOKYzyWkOpQSPcSyxTIhXJcl9+3Cr75AwKyra05LyArXXh7UNUn+0WixOmVBVpApZu4A/Krm5Ih5TAbl4I7giubn8Y6lpGoXGl3VklvLbOSy3GpGAc4IJwME8jjmtGK9S+muZkw+2Qco6yD5lDfeXhvvV5lamo04tfMqc5OKT6Gg0+OnH1NM83J6j8Kh6Lhg2KMgev51zWMrmZlW5IBx/s1Ivl5wDj86qm4iJGGGOvSni4B6gH2PWtuUdywhT0JNKrrz2x+NV/NO0/Jj04pGkcEHyV9hS5UFy2HcLxuP16UpkB6qc/SqPnP2hz9KBNMcf6OSKTSAuCT0Xj6UjN1YqAP97FVfnZvuct2xil2MMDylI9xSAka8iXtu9feoH1FOdttMT6AVL83ICD24FR7CXO8r9NtFkI5rVNGlu5Zm0yWVECoSl1Gd7NtG7b2xnOBmtvRmvrbRbW0vrq6uzFuWOJkIFuvZVz2/Qe1XURRnJZfXC1IIYST80jZ7ngVvPEOUeUpvQY0vmKY2t5ijfKwJ4IPBFYmjW+oWvilbCERQaldSSSgXbbGjj8tlYDdwcqe/PyZHvu/ZU5649d+PpT3g+1gLcyyzBeVEspfH03ZxSo1PZ3CMorc520u77Q91tbeHry5t5yDE8m5SG6ZVs4bPHbsK6QSlWKudjdGRwVIPvTLjTrO8jKTozqRjYJCF/KpVs7YIo8tyMY5kJoqzjPXqObi3oL5o3f62MEevahZWVf9dFz71KLeDb0P1zzSGCPspI/36xsRcRZ9pzuVvwqQXL/dAT8EqMxIRyJM+/NMMKIfu/gaBXJ2nkPO0c/7NSx3EySK6IdysGAx97mqDJGpyQPwJpnnLGQyrtYcglzxRfqFzW1vUkiubewE5RI2XesSk7e+cDqaqiXcZtrLIDITvBxuBHB/Sr9zb6JZZSKWe7dVJQeSztLjrtIHT8wKwjremahHust8UcbENgdW47162J/hM0lsX7uFp7BHCHy45T5rjkA44puleRf2upNGUMtqyurNzkHjj6YNU/Nllsp57W9uPs3+puBBLsYEjchPHQ/MB7rjvXO+Cdcisri/0y6snkZYpjJfCVi6rkbcL0xnH1BqKTvRSBbHXnfvHzKaAruwzyfUVlnVrNcjz2B7YXG404apbvwHlfuAF615fKyLS7GprF9FbeGzpcJPn3UglmxwFTsP0rF0yIp9gPaS4Zj9NpFX9Sj3JBKWyj2kbc9eV/nUU0bWkUD/ADlLeML+7Us24jsB+NeslalbyNltZGp9nRSSCfpXRaXGsGjbzkhnZic9ew/lXB/2ltIP2a6PH/PLJrvtOJl0G1AVgTBG+1xgjdzzXLg4e+2ZqMk9UZf9omK+ia4h8uAN9+IlmXPcj+IfTmq9zBH9rlxICu8/zp2qRqZREGCuGAyOcH/9VZV1d3MVzIqRSyKrbQeOcd61xsbxQ3Fy2RpCID7uP51J5bheB+lYH9qXmT/oNzkeqjmnrql5/wA+NwD0+bH+NedysXs5/wArL+o3sOl2T3l4wjhTgnGST2AHc159rfj28u7b7LZrJZxZkSXEnzPG23gjHyn5eoP5Vt+JZbm50trlbOQ3FrmWN3UME4Ibr7E/kD2rzF3AyEIZsnfLk/N6f5967sLTi48z3KSlB32JtSZDqU6W20wo5SILyGUdK9m0DS20nQrWzkkR2RSWkjztYsS2Rn6143pGl3WqXqx20EjquGkZR91MjJ/WvWjrMquEOm3e0cAhc7QOgoxjdlFA4ya0R0dlZ7tQtJ84xOGUkcLzkn9K1tQu9l04Z13AZ+72/Os7QCW1O3nfCbYDLskGSCRgcdjyfzqj4k1OSG6JSQAj5iMcV2wuoK4Gg19iTc2M1A90JFbe2c9F9a5GTXWKh3wGZtuS3A96u2U9xJC0wid/MU+VEByy5+85/hB9Op5puaSuNRbNiK72Sqm2M7h8qjq1cz4+1S507xGUQYiuIY7yMI+N82NvLAggKQSD64rRUzecEluYLVn++20vI59yO3twPrWD8QdSmtbyy03zCLW4slEk4A3M298KXPRc7S1S53V0DTRgaXD9k1zSdS1uOK+s76bb+9cyK2CEYNu5yue/pXoEMtkL+7WxtobO0a5kghji5Vmi+QsP94LnH+ya8mt7X7VcPaR3BuRvxCFyFZj95/ZR19+K9M0qbTtP0eysXMn+jqDuZCPmBJ3D8zXJiJXhyktOxsgZxlqk+zoc7iMeucVTXV7FlU+cwBOMEc08alYuv+t9+QcVw2sRys5g6XZsBut0OBjqeKaNJs1biE56ffb/ABq1tcHv06UuH4yce9Vdns8kexANMtgDt84eu2dv8aUWCIMpNdA9QBOamCSd2LfWlKvtyGP4DJouyfZQ7EItHVDi9vcnnO8Ej9KQwXRbeupXgGehVTn9Km+cluWP/AaXa578+9K4nRp/ykBhvioI1OTOMH90OacBe8A36nnnMPb86fiTON3WlCydC3NBP1el2Iy2og/8fFsVz0MZ6U4TX4wC1s3uNwp3luMDNLsfHJxRcTw1PsM+06hwVS298uadHeakPvW8BPba1O2HHXNO2EDJNO4vqlMVL+/3DdZKQep81asfaroKFFrgnr+8UYqARn1OaTGWAz9c9vSi4fVKY8y6hz+6txkHnfShtQ2BW8kHOdw5pABjiQilG3A/emi4/qtPsL/pwP8Ax+QqPaEn+tLsu34e/wAH72VgA4/Om8E/6w0HH95qRSw9PsDWsr/I2oSgf7KKKjGmgyfNqF2yY4+ZeP0qTcc/xf8AfVKPMb7oOPrQP2FPsNXTLMPvWa5LD/prj+lB02yRfmNww6/POxp5SfPSTI9jxUbefjguv1FFxqlBdBnivQCNB860gnh1OVnW5jhZ3m3bzlpCOkTKFYDpz8tY3hCyjOnSJcWiSPDIcyYycN0Dfka12hvJVRRdECNVRCY1LqinIVX4ZVGTxnjPpxVSHR7y3uJJv7anZn+U7ogflzlRnviuydaE6fL1MI0ZRnc2Av2Jmms4Y47kKfLwOGPoexHsa8/0WXUbfxNDJBcoLqYlHkdl+dTwysp9f7vX0rsVtbwH59Udh6eUoqL/AIR+zkuftMojabIbf5YBz1z/APXrOjWVNNPUurRc2raGxtJH09qUF1QAOfTgYxVY2rn/AJeH/DHNNW0YHImkbHc81gbnR6jaSXGl6dfpp8k37oB/LZA2V+UElu3HpVO6DW2mwxy2ywTXBE+fO8wqoyuCQB+lU/E+q6tpPg3Rf7OuIgWEvmq9uJBtD8MSfu4LY/rUAk1G8gtZr5w7SQI8RKpnyzyv3eO5969CpP8AcJ9zipxXtrdrj/MyP9YPzrudI3SaZY3W7dugEbDHHy/L/SuC8px/c/75rrPDCzx2McyRSzEyOojjuGQBRjquMdc1jhH79jXEr3BlzCLeVmmjYsCcfLnNYV5cAXs2CAN549q2roays15I+ovC8K7zFBIvA7btvzL+Irn38yWVpCyMzEszFsk1pjJLSJGFjuxBdA5wevNN+3YYgg4HTNPK/wCwn500hV5KAVwHWK94rIykHlcVS1/4aaJY6iZobq5FkuD5MnCxDuobGW/z1q8irKyxrH/rGCjkDrxWz4lvo0vZYmWa6eJ9yRebmOM9mK+td2DWjOTE9Dn7aOHT1221skEOwBIxw2D3b8B0qc3RPAXv6VBGz7WkudwkkO47xz9af58UakenJrLEu9Sxrh1aB1WmyYu7lvMEKrG2+U/8s0DfMR7+lcZ4pGDHLJvjuLxjLHBu/wBTAOE3f7Tda6iwaKO7ne5DNbojSuvryCF/E4xXEanJc3WtXdxetuuWY71HRPRR9BxXoy2OJbmHdySyARxKzlQzADrjqT+QNegWelCLT7WR3kbzIwyqqsy8/SuZ06zSLzp5v4keJT0HPWvSLe2xolmNssO2CMYaQZUhR/FmsHH2l49rGl+S0u5gIFikkSTc5VhiLYRz2603W7eO/ZreaJGiUlAjoGHHGcdu9XlwlwscU29i+SPx/vY5NVNbnSDV7jAKrKfMQ9mB78VzzUowaNYNSmmZVjpFnpxc2dvHCXUBig5IFXGBU/6wqMfdqt9uj68ZoN/EByeK5W29WdSstEWQGz9/I9DzTh7YFVBeRs5znI74/lTvtUeSQeemcUaj0KG/til80g5pD78dhQNpPr+GaQC+dx0x9KPNzzzxSEK1IAB7+560AO878KXzsnGP0pML2INLsBGe9ACGU5G1fxpBI5J6e2BUmzIz0pwA55FAEJkY5wo9cGlEj56CptgI5NLjGeaAIQznjgUu127JU20Z68emaXIAJ6456dKAIRHJ/scf7VKYXJzj8n4qVWBAIPHtTt/XrnvSAgNvKeik/VqX7K5b7hqbeOKDLyKAIBAwYrzu9DT1ifPTGKk+0MBnODUZuJQCA2M+2cfSgBwRh1FOVpEBAyPpURuH7O/FN+0SAnlm+tAFgTTqcB5Bj3o+0z55lkPsaq+dIzdOvalDSH+GgC0118o3FxuGQcCmNdIVG3IPv0qICRuvWlCNkjHWgZIs6Y+eNiR3WrCPD12SKB3J6VAFI9P++aeAw6lPpsoEW47aJ8ATKuT0OafJaFYzi4D4z8uAP51RI3KQVUjpim+SgGCnA44Y0AF3pKajEYZpp/LYD5Vk2gY/rUtjoaWNqILeScR5OPnUmmrHEF+5z/vVZX7MP+WcnTghhRzO1ri5Ve4GwAB3/aPxOTVDWtf1uz0WHTfDzYTe5nkT/WPk5IDZ+X0+Xn3FaBkjJ+V5R+VRl/7s0h9itXTqSg+aJM4KaszlXvYdN/0u30wtfwfPLHPG3lSKRg9cNn5v4T+GK30u7e4VZltXtlkAYQSfO0YPYtgZ/KrqSuuB5xB/Gp/tEpwROPbJwKupXdRaomFJQejM1WD/AHUA5xypFDbuAFQe5yK0fNuMjbKv/fY/rQGnyF+9nngqaxualG3kkS7gb92Nsit0JPUdsVRf4jJPBPHf2UUN35gjF0ieUgY8nKtu5HIB6HAJxmo/E95NBp8trEnlmQBWnbA2gn+Hvn37Vy0egtfG1ga3kaTGJZjcIUcfwlpDkoAMKV59vSvRwicYXfU4cTJOVl0O8vby1vJUuLCKdIpI1YrMRIQ2OfmHUHrn3qm0mEY7SR7LWksUSBVO4lAFyOnHGRSt5IU5kOOeCOtcU580mzrjG0UjU04NBPfXEyrNLbQpJHAh3Zc8pvGPlAxnn0rlZLJYbW5vp2aQgj5zxvkY8n+dd14esZbOx1W7ubmO6lvJ1limSTefLEaqiHgY2/MNvbNYHiGZtVuzZ7l8mBWOFXA3Y5r118KPNe7MyEQNFMHGAJAoHqNvNd9pl0l14btnjc71BiYjPDLx/LFcHawpbxSB8EvJnB9uK67wfIJ4r+2A+RdkoGeQeVP8lrmjK1dx7m7jegn2HLxdoZ1lYZ+V0IAB965/VBAuoSrhd29unA+8c59811kibb5EyMFgNw479647VBAl/MjBmKs2d394sSf508VpAWG+MrYt+flyx64pdluBhQo/4FURMWR8rBf93pTC0RzgOCeANvSvNO8nkhgmVkk5BG0470qJEQoxhhxszk0/SJNNN0TqC7Y1X5d4YKzZ77fbtXZ2msaPYp/oT6dvBUYjdEPJ65b05P4VtTpc/UyqVeV7HnWOvy0uzsfrRjc2DTu2fasTUTBOc0bfbmnjkE98UDlyM9qAG7Wz05zTdkqrgMD/AL45qUDIyaU/dFADCrk5HKntSFH25Uc9fapCSOlKTigCLy2A54HtRsOSe9Sgkrn1GacnzvtPqORSAh8vjHP50gjPuBVj/loy9hxQvJOQKYWK/lnIGeaBGfcfjVhG3DOBQT0OB0zSAr+U3JyRQE3Zw+7HXBzVsnbggDmkDfORgDGOlAFUxEDmQA9Tml8hifv81bIB+bAz60OFDj5VPPUjpQBWFuT/AB0pgYAncpI6DOM1a2ht2RSADBOO5/SgCAQ80vl4BbORn0qcqAoPpSMAF3D7w70DGeWPf3zSgpuxvw3oeDR90H2NJIdoLDrigQ9wq9Xx9KQrwfmII79abub1pjMQF5oAkVMKPmJ+vegpz941WV2k3Akj5iMg+lNaRgRg9SKALRROp/U0KoX7z7v0qkJG3YzxUoY5HuM0AWvk/wAmjKY/+vUBXdwSRkdjimzsYIndQGZVyC3NAyyHTBwD+dLv6YAz160xTwvA61Mg/mKAEO4jP8OaaUB5O7j04zUwAA6A09lCuQBxQhGRe6VaXqRJcJIwjYuuJCuG9eKjbRrabYs3mSBHLr5kzNsbA5XPToK1zjB4FIOAfampSS3E4x3sVF0qIg4klAPX96xNIdNh8sfvpmUd9/pVxmITI9cU+GJZrqOF8lZJVRuecFgDQrt2HodJAj6V4Ytrb5yyoXYucnLHdz+dc9ZODdytJjYVJYscAe5rovFEhVI8AYfJI7da56FhBb3lwFV2igkYKw+U4HcV7SVlY8pu7uUJQt4wkS4V0xgFBhW9x+Ndb4Kh8iDUpcDcfLTI/wCBGsjWljj1SZYYY4kCowSMYAygJ/nW94U/5BV2fWX/ANlH+NcVNuWIdzrmkqOgl9PsuVY8c1zesB/7avfnIBmY9McVuan/AMtD3CZFYupkrfzd84Y5OeSoJq8Z8KM8L8TKABTncwx3IFKJHfO0/L7ipfJR/LZlDEjPI6GnhFkXDDg8cV5x3FdZJVbBGG7HFNfe0nzYLYzyvFWljTyxgY57U3ajYygPegD/2Q==;" vertex="1" parent="1">
                    <mxGeometry x="10" y="60" width="240" height="180" as="geometry"/>
                </mxCell>
                <mxCell id="7" value="" style="shape=image;imageAspect=0;aspect=fixed;verticalLabelPosition=bottom;verticalAlign=top;image=data:image/jpeg,/9j/4AAQSkZJRgABAQEAZABkAAD/2wBDAAgGBgcGBQgHBwcJCQgKDBQNDAsLDBkSEw8UHRofHh0aHBwgJC4nICIsIxwcKDcpLDAxNDQ0Hyc5PTgyPC4zNDL/2wBDAQkJCQwLDBgNDRgyIRwhMjIyMjIyMjIyMjIyMjIyMjIyMjIyMjIyMjIyMjIyMjIyMjIyMjIyMjIyMjIyMjIyMjL/wAARCAE2AogDASIAAhEBAxEB/8QAHwAAAQUBAQEBAQEAAAAAAAAAAAECAwQFBgcICQoL/8QAtRAAAgEDAwIEAwUFBAQAAAF9AQIDAAQRBRIhMUEGE1FhByJxFDKBkaEII0KxwRVS0fAkM2JyggkKFhcYGRolJicoKSo0NTY3ODk6Q0RFRkdISUpTVFVWV1hZWmNkZWZnaGlqc3R1dnd4eXqDhIWGh4iJipKTlJWWl5iZmqKjpKWmp6ipqrKztLW2t7i5usLDxMXGx8jJytLT1NXW19jZ2uHi4+Tl5ufo6erx8vP09fb3+Pn6/8QAHwEAAwEBAQEBAQEBAQAAAAAAAAECAwQFBgcICQoL/8QAtREAAgECBAQDBAcFBAQAAQJ3AAECAxEEBSExBhJBUQdhcRMiMoEIFEKRobHBCSMzUvAVYnLRChYkNOEl8RcYGRomJygpKjU2Nzg5OkNERUZHSElKU1RVVldYWVpjZGVmZ2hpanN0dXZ3eHl6goOEhYaHiImKkpOUlZaXmJmaoqOkpaanqKmqsrO0tba3uLm6wsPExcbHyMnK0tPU1dbX2Nna4uPk5ebn6Onq8vP09fb3+Pn6/9oADAMBAAIRAxEAPwDntUkjfTpFwwPBXjvWH4OEH2y4EzrHKQWV5DtG0dQPf2rq0s5YmEkcux/XFOa1Lxxo7owjO5dyDg+tedCrGMHFlurJyUnuN86PJXzDx7GlEin7swz705rQMxZ2ySck+tILVBxurC66Gn1qYucj76n15p2GPQr+dM+zR/3zSfZo/wDnofzouUsW+w7yWz/Dn2pPs+eGAoFvET/rvzp4ijHHncfWi5X1pdUQvaRM3MCHHcoKBaQIci1iHuEGanCAf8tsfjTsSD7soJ9yKLj+tQ7DFRVOFXb9M/41Kk0qDiR/puNGJVJAZT+NIzSfxFB+Ip8zK+sUyYX9xtIJ4xyCetIt8yYGGGf9s1AHbJ5Q/jTsk9dhxjuKfMxqtSLA1GRPutLn/frntVhkutVmusk+bEEYHk8VtKVyAAMfUVw2qa/eWWs3X2iwR4AQsbyIcx+jKema6cLL39zKtOEo+6bcNvb2unztiMMQoVjxtHfk1Vs7O1vtYCsweMoXeQHjGeAv4/ypIb1Lvw99pkCTmN+I1ORkjvVrw1YT28fmyRNDBPEsqK5BOCeMY7Y5rpnNKEmjKKTkkzV/4R7SW1IXw+WYPvAUlVz9K0DbW22VFk2LKAGAYc46dRTPIDEYJ/OlNtx98gVwKtNdTr9nTZVu/DVleWxiZ5M/wtkfLWbpnhC60jUvtdjq08ZZSj4jU7l9DW75Poad5ZXoWB+tV9Yqdw9hTOXv/Atzeu7m/AVzkp5RwPpzxRD8O44I45EuIpZz99ZkO3qOR79a6jbIvSRse7UfvRz5z/nTWImJ4eBFe6XqFzeJ5dzDDAB3J4x7VBe6fq1kYptPu0eRTyABg+3NXfPmGAJWP1qRLmQDmQceorONSSd0VKlzKzOUvm8ZXF+byHTrdZSpQtEqKSCc5z68VkXuk+IZIpA9hO0kj+Yzq2SW9etei/a5SM4Uj6Uv2wk/Mik/WtvrUjP6ujzQSeI42RXi1GIxLj5t7Zrq9O8R+TZr9ueWNx8uZEPX3yK6Nb8jJEYH0oN+GU5QsPzp/WW90T9X7M43VvGclmQLe+jck8DYCBVW38WXF/8AJI1m4Jx/q1zzXau1rL9+3Q+zKDULWuku3zafbk9yYV/wp+3X8ovYS7nPQyxXGqRb4YEwCSyoFz0ArtLUaXqWngm0BBGxsDHI4rMWDTkYOtlFkdP3dXLe+gt4vLSJVHJxtp+2i1YPYSOM1jSIrG/SKKMImzMkkvzZ5zmsLVESW7QWeyQTgnPbNel3TWt2rCVAdy4IBI4rGHhnR15RXT5twAk6Gl7WN7i9jK1jh4NSTTZnSG3Vl2gHd/f7mrS2eu6nD54AEbDK73VBj2Haunl8F6bPdCcyz4BBKBlwf0q1d+Hbe6P/AB+3CcYChFOKp149BRoPqcVLoOqJGZJJrfCjJHm5qhLBIGtlAkGwfM8Sk4z3rvz4ctokUPcTS9m/dgZH51tB7JYFhRJo4R/AqqBT9ugVBnD3DH7NbFN7ERkjI5NR22rPbWZSeBxeSExgumVRfX6muyj03S2v0nna5KLn92FHP4itGay8LSmNprWaVk6bycD9amjLluzqxk/a8qj0Rw0y6hD4QvvKmRkf5XDqASO5FeeEj+8B+NfQC2/hbyfK/suJoyclXBI/Kpol8PQL+40rTU9/KH+FbupfY4fZs+ekBdgqfMfRRmu1jEkn9nqBJltQKvweU3Hg+2Pwr1dNRt14gis4/TYgFV9JvGGk2qny1AgRegyRtFJSvNXSf9I6Kcp06E+Rtary6SPPPGyfZPMa3HkjcoXyvlx+VcP9uvAP+Pqb/vs/412njWSa5maNVJXzAAq4NcS9pOrDdC659VNauNO+yMI4jEJfG/vY5L67ZwpuZuo/5aH/ABrejmdv+WrH/gVYtjbSLLFM0SvGsq5RyQHweR9K9Il1vw7LJGT4Yt4xjLCNsVm4ReyRf1mut5v72em+JUST4aeFVkVWTFvkN0P+jPXFavZ2q+GldLWFBE2+WZYgrMScJHuxn1J/Cu18TGFPhf4akuJfKijiidnyowFtJD/Fx26d+lc9faXd32jaVBBbExrEJSh4cyMudzj1AOMdqVKClHVdvyR14ytUhO0ZNb7P+9I4FIPNRQODnk+nP+Ga6bQbKCXWbW2aC3ZAr7vMiDiQbffvyCPpWfqZWxvHskIHkwFWZf75+99euK1LXUDZajbXQhJETIzYOMrgZ/TNRWjCDi7dTOliK8rrne3dnQX+iWMYbZp1sexCRov6knFZ8GnWQt7p5LK2TcojGYQ+wk8EY5P/ANf2rptVh82UnGQPusD29ayZ3aHTJxMIsBk2mMBScsBz71rKjHexisXX/nf3s4sqgGTZR8f7I5pCIx1tI/xQVb+05ONmD2AGBQLkZyVH0A/rXktLsen9Yrfzv7yqEDZAsos4yCVFIGhDKhtIfMIyBsGP5Vb+0IecNnnsKfEXuHC28LPID0SMsfp7UWXYPrFX+d/eyp5cR4+yR8f7I/woKRDP+ixDH+wK6a18L6rdLlbRYF6jz3CZ/Dr+lXR4E1UqcS2ZOckGb/61aKjJ/ZI+uTX/AC8f3nGCKM9LaI/8AFL5MP8Az7xD22CupbwZrCn5Ion7DZMv9aqT+G9Ztl3zabcBR12ruH6ZpOlJfZGsXN/8vH95zywwfaH3QxgbFIG0cHLVIYrXOPJjPb7oomtz9tdXVkZUXIOQRy3Y0C34HzEe+aysdFavVUlaT2XXyQLFajAWCM/VQaClqOsMI+qgUojyCQ2frx+lPEBbP3Tjtj+dFkZfWKv87+9jPLtzwLeL/v2KPJhYY+zxA/8AXMVL5GRtYd84BI6VJ5ZGDlsDqKLIPrFX+d/eyD7LCTnyI8eyCnfY7cAfuIz/AMAFWMBeOme1Lv2jGMemaLIPrFX+Z/eyuLOHH/HtD9dgphtIv+eMY4wSIx/hVrcRnJA9MCm78nAP1osg+sVv5n97K62cOctAnTsq/wCFSiytQCTBGT/ujFPB4yuCM8fNzTd3OcjA5GRiiyD6xV/mf3sI7G3uJY4ooIt8rBF+UHknH9a3tc07TrW3WOKytVYAAEQruPueKztGeT+1LdoYTPKCxjjyBuYKcfl1/CretyStM0ry/uyBtAjxgds816GEpxcW2jjxOKrKSSm/vZzT28K3KKYUxtbjaP8AZqUQW/XyI/b5RUM9yq3Ee4Z+VlREHLNxwM/5HXgCpYUm5ll+XdjbEMHaPc9zzz27D1ONej70p7L89tv6t8zrjiavsqa5ns+r/mZ6v8KVVfDl8FUKPt7cKMD/AFUdFL8Kxt8PX4H/AD/t/wCio6K66H8NHnY1t1m32X5I88+TOCKX5WGCKaFIHVDnvRzjgJ+deUcI8LF6YoMKYpArHsv/AH1ShCHBKAj2aiyHcaYFJyDml+zp6Cjaef8AGja2OuPxoEH2aM0C3Qfwj8RTgpAxuFHzD+IUAH2dP7in8KQ265+4v5U5d5PB6+1Oy4XJxj1oAi+zD+4tL9mBGPLA+lSFn6cUo3+ooAh+zDsmDTWt8/8ALMH6irRLY6g/SlBOMYoAom1UjmP8xSPYxTRmOWNXQ9VYZBrQywPT9aX8DindgZSafaxx+WsEap6BcD8qlhtLeFAscIVR2BxWhxjp+lBI/u/pT5mBV8uPH+rx+NKIYj2I/GrPynqo/KlAj6bakNSr9nUt1bHsaBbDn53FWwqDoKUBD3/Wgab7lQ2/IxI35UG3I6S/pVvam37x4o8tCPv0yueXcqfZ37SL+IpDbyf3lNXhEp70CID+IGi7KVWfcp+Q44+XFJ9nI/hU1dMY9aPK98UXY/bVO5R8gbs7P1pPIUD7nX3q95eSeaXYSMZFFyvrFTuZ/wBnDH7h/Ok8kqMbOvvWh5TE5yKQRN3ANHMH1ioZ/kkfwn86TY5P3M/jWl5PtSGMjtRzD+szMxlYYHkHB96NrEf6oj9avkY+8rdfSlA9AT9RT5h/WpGf868eU340BnH/ACxODWhtyf8A61Gweo/KjmH9bfYoBnPWM04Memw/lV0x/Q0mzn+GjmH9b8ip5jKc8j8KXzGHJyfqKtFP92mleOin8aOYf1uPYiE7jg4x6baaH5+4p/CpwARwik+maNmP+WXbtT5ivrMOxBkH/lmn5VXsiPsNvmBG/dLyT7Cruwd4mqrZKv2C3JU8xL29hRz6m8a9N0Zeq/KQ5VhD7mso8+2Kk823H37EHHQYFO2IeuQPpTdq5p85l7akxrR6Y/3tOQH3QVF9m0ljzYqMnn5KnMYx96k8sdzVKqHNSfU6vxTZWepfDDwrY37Srb3H2aImIKWBNs4XG7j72Kb4hvfs0DOMl0TAAPU/WtK+jWXwV4MDDOGt3H1W1kI/UCuP8QzGW42BsjqcV6NH4f67IeP/AIi+f/pUjDOnebbq7KS7Ekn1GR/9ela8XJCZOBjHt0/pVs+adMiRLaabLE5j4CAdWbuRzVPyI0BKrtIyeKwxbVkjPDJ3bPQ7T954b0+VySzWyHJ4YcYB/Ssm6Yf2VdtgO0WGGfr/AImtiQeTpdpCOAkCL+SiudnkD2OoROQN0OQScdGFdctIHPvP5nOM8gAUqvp1po8/BxGh98npT/KwD8oz+eKaBlikcfI65BAFeMeoRvHcfLsiQFcAc5x610Gla7JYWSQSWcuEzloZVw5z1wcVhsgOF3YY8jPNKEJ++duPenGbjqiZQUlZnUr4yRWZgLpAVACNEpG7nOWD8jp+R9a0LHxpaeXm5luFfHa0bb/M1wnlhhg5B54Gce1J5e1QpclscKGFbLEzMnhoHpA8Y6WcD7eFY8gGFxn68Vmat47niig+wagpOP3zRW25geMYLYUd/fpXFoj/ADbpD0yCF59gaaIWPAl4Uc/LjFCxM07h9Wh3Zd1HVTrGvXN95Mse5IwElcO2ACMnFV3JIO5cfjjFQRri5kVj1RTnHbLc09GxGojYlV98k/nXPe+rOyqkpJLsvyRMZGP8P/16BMTjgbj0z3phlOeh5HJ9PwppkkJGOBzkEUGRKpdkO1RkHByD/KneYwx8oOeDVUzSkhQ8QbGRg5pPPm4JX5hxwCc+2TQBcEpLHbtOODg/jz6VGzEKQG2987ulQebL91Yto9jTN0hIyOnQYoAsPIXIBZeDmmhlCjlT6cVHtOeQw59qUgd1Yn060DFMwYnlD7haYZX2k9SOQQKVXjIBU8eq8inLJFg7nyR1yuM0CLuk2Vx/bsEV0ZbbygLgSAbd/GQobocgkEema1vEN/bWkqxxvDLdMAscYuYypHXLAZIUDPP0AySAcCTxFqawDTbbULlY1lEw8sRPsxgZIkB4wPuhl3EHoMkRXHi+1s0dFm8+5lOJ5rqNoJmxnAwisgAzwFI7nGSSfaw7pU4Jvr07/wDA/F9O686qpuWpQ1a+t9GuYrzUJY1aZOPIR8R7gCFAP+6STjn6YAoHxto3/PxJn/rk1U/iNfQajY2tzCwYl1DEEnomOpAPr2rzuuaUFiJOcn1OyVf2NOnBQT0637vs0fXXwa1G21Twnf3Fq5eP+0XXJUjkRRetFYn7OP8AyTzUP+wrJ/6KioreEVCPKjhrVXVnztW/4GhzWHx0b8qUF/TAx1xVX+0rvIzaMR2w4p41OXkNZTdM8YNeRYzdKa6FjzBg5Pb+7SiUAAEj8qrnUwB81vP+Eeab/a1vk7re5H1iNFmLkn2LgmAA5T8RTvOXGT5XFVP7XsQcHzM+8R/wqQahpzLlnUc4O5CKLC5ZdicSFuiofxoknWKNpZVRY1GWYngColu9NYH9/ECPfFI5sJ4ijXEOxv8AaH+NLqIwta1uB7aUFZ1t1B3LACHft8xxlRmsnQb0SHdbrJb2xG1njikC7gcjLBs+n5/hWhYeJ4dMu7+0nnitoGlEyTopD7Dn5AuMd8k5H3sjJGKzNQ8bWBvE+w6WiWsRXahbAOO7LjnPIrfkqbKL+876Xs1BXa+47DTtYiubqW0niMMynKK6lcqRkdepHPPfr6ga37oj7mKyrFk1XN7IhSNpxNBDOuWjBUfKc84ByQQe9aAgPBEp/GspbnHU5VJ8uxJui7KwpQ8fcNUQjkOR5hx6gCm+VJjmQD1ytQZlnzYjxhvyp6mMjpVULJx+8XHuKcPOAP3G9O1AXLAEXUkjFLhT0OarDzj/AAIfxp4849UH4GgLkuwZHP607bWTrGqLo+nNdTRFudqLu+83pXH23j28m1CONo7dInPzbjgKBySPfH51tToTqK6Gj0fb+VJ5ee9Zthqkd7JNCksckkTAZj4D/KDkA845x6VfDNnq1Zzg4PlkIf5RB6j8qURt/s/lUYJHc/iKN5B6/wA6gCUofQGk247CmeYc9RgUobvuzQFxdh6jNKUI5OaTf2zS7iR1NAxNpPTIpQHxyKdvOOlJ5hPBWgQvzd80h3gYHFL5h/u0gnPPFA7ibpBxuH40oMnov50vmA9uaUOPpQFw3Se1HmEdV/WgyD0pPMXP3TTC4eYCeUNG8H+A0u9f7p/Gk3R/3aQXDeMcoePUUu5cdP0pMxkY2kikxGD3H40XC4Ep6Y/Ck/d98fjS/u+x/WlPlkDmgLjMxdAQDR8vUEmlKp60eWDyG/SgLiYX14qtp4Q6ba8/8sU/kKsmFT3qtp8QOm2pyOYU/kKTepvH+BL1j+Ui0FXsaCgx1pnlHtSGJuhGadzC44xg/wD16aYTkcLSGNuwGaNjnvigLnYai7R+BfB7KcN+4CnGcH7LJjiuA1BnSUmaTeSSeUIB/WvQb4A+CfBoZlUZg5ZgoB+yyY5NcVe3FvLPstpLZy8mGWSZZMHOOBHyOfWvZo/D/XZHpY/+Ivn/AOlSK1lqDfLD513Efsc5YQoDE+SABJzkdOCB171TbLKc/LwetY11ayNrqXiTDfEhhjEcfyKOcnk5IJyeatOb3G0SxsTwCyYyfbmuLEVFOSt0HQg4LU9Q1GQJaw56lelcxfExxIwwPMicEkZ9K03kmn0exnmB3SRmQ49D/wDqrntVvNRjtre3s1hALOXlZsMEIwVAwRznk+xxXdVkuRtnHBPnSKzqwIxg9ff26UvzqgUYyPwGf6CqkQvC2CkY7HDk07cyMqEguRnapwSOM8fiPzrybX2PTuWtxwM4z39KcGG35vve3eq4JYDcp/GlwMng/n/9akBOXXGMnn1NIGQfKQuQOmagYDHAI57tmgheyEj0LUATFo8kEgn070wtHzkjAqP5AwPlc9/WlLKoJ8psjnAGaAKr4kui0bAoY1wV6clqd5bcDOMdvWl3ot1IQpUbF4P1an+cvHOCKSNq/wAS9F+SGCJ8kkkrjoBQIm3dCfof51IZx2J570Gb5fvHGOtBiNEZ3YKnrxTliIA+ViO3NN8w45IPviq8l03mGG35m43EqdqcdSfXpx1OR0HI0p05VHaP/DCbSJppYbZA0jlVJwMtyT6Adz7CiAuwZ7iJUXI2pksfqT0z7DPTqc1DFblHMsjs8zDBY9B3IUfwjgdOuBnJ5qcKzDnH4d6ubpxjyw1ff/L/ADer7LUSu3dj2CFsmMH/AIDzihnjXH7rnoN3emhGyeAPWn7WHRj+FYFBs+XCxgD0AAqpIRdyGG3bJU4lkGCI8dQPVvbt1PYFB5t6NkEjLB/FNgqW9l9v9odjxzyLS2+xAq7URRtCqOBXTyqjrNe927eq/T7+xN+bbYihsIbdNoRuTkkncT9SeT/9apGhh4JiU+5AJpxiAznJoEaZ4HJ6A1hKcpPmk7spK2iOL8eIE06ABIVXz/l8sYONp6/rXA16H8QlVdLtAAAfO5/75NeeV34X4Dlxu8PT9WfT/wCzj/yTzUP+wrJ/6Kioo/Zx/wCSeah/2FZP/RUVFdJxHJAbSQQMfSlGCM+3apPLc8Yz+NJ5b+g49K8XmH7aouom4dTx345o3DsCaesZzzxn2pdo3cg0uYf1ir3IvMUAk5+lG9TyRxVgJGRyp/KneXF2Xn6Ucw/rNXuVMRycFA+fVaPskD/ehQ+5QcVsafpT6g7hSI40+9I44H5dT7VR8T6hpfhrR3nhjkv7h3ESszFEQsDhgB9PX8K3pUKlXWK0KWIqMtafbWUlrKk1pBLgBN0kasu09ByPXmsObSdOtteiih0VVhIL7tiFVwfvYxUeg+Ml1bw4llMpN5aIFlULkzLyd49fcdayv+EitbO+e5t86jKgPlWhmcjAGWGOoHqK29jKDsdMavNDmb1OiktLaR2fyQNxJIyaYLCI5ISRAOAQ55/WsGT4i2ct3Bv0pbWCRQWlhkZgmf8AZbJx+OfrXXSRSoqMGjZJEWRJEOVdSMhge4IrCrTlS3Od4h9Yoo/YFVQQ86+n7w077G2Bie6H/bQnNWCshAzj880oRxyCeO4rLnF9Yj/IiutvcqT/AKbNz9M0GK7z8l9IB6FAat+XKevXvTfLfdjPWnzC9tT/AJCtnU1H/H5Hj3hFSCXURz50LfVMVY8pscgn0pQrHjYc/Wi4e1pP7Jz3iez1HV9Oht41hdxLuCqcFvlPTP8AKuCvLO80u8zdF4rjqMoG4PcHpjntXsdvE5nUKCrYOD3HB6VmanJayRG3KecU6K/Xt/nIropV5RXKbQpU6sbx0Oe8FW17Y2k19HZFoZG8tWkkCuTjdlRjO337/hXV/wBp3H8VhOfXaymotIZpNCiRofLjt5GjDb94AH8PtjPT6VZDR5wT7ZrOrLmldmclRi7SuNOqngNaXPPsP8akXVAFBNtOAf8AZzSExdAcU0FOvasron9x3ZJ/a0BzujmA94jSjV7M/wB9frGRURcDgA4+tICGPOenrRoFqH8xZ/tTT8EmZBzjkYpTqOnbcm6iA93xWLreqxaPY+fIgdmO2NSep6/lXAT+MtWabeskSqDnYsS4Iz05zW1PDuoromUafR/geuLdWLYxcRn/AIGKkE1seky/99CuestS0nVyZLPyo0CKZEYAhWPUZI7H61d+xW0g3bYnUjsgP6ionScHZjVODXxGrugJwJAT/vClUJ6nHsazI9Mt+0cQ79MU59MiCgqqDJ7SEVHKP2MekkaJQDPJ/Kk2Hs1ZR05c/ekA9RMaebbAx5sq/SSjlD2D7o0ljJ/i4pfLwOGFZ0VnO7bI57ljnoGzVTU7u30dzHda15c46RL+8b8gKcYN6ITw8kr3X3m4YjjqKQxOOAPxrBsb579S9rqizAdV2AMv1HUVd/0/aP8ASx+MQpODTswWHm9UX9sw7DFGH6FR+dUklvR1mRv+AUrXF4OjQk+4NHKH1ep2Lewkfd/WkA3cAHrVY3N7x8sBHuTSte3X/PCInP8Az0pcovYVOxYKMPWghwM/NVcX9yMA2q8+jipPt8gHNsx+jCjlZPsZ9hw3DkbgT6iq1g7/AGC1ABx5K9vYVP8A2hkfNbyj8jVax1BI7C2Q287EQqMheOgpWdzeNOXsJadY/lIuCRwcbsfhSEyHHzVGdUgUHdHKv1jNQS65bQFA8Vw6NnLpCSE9MjqfwB/CrhTlN8sdzmcJLdFz5uoPP1pPmPXH51Ams6bMoaO4R0PRlHB/Gnf2nYscefHSlCSdmtRWZ1niK9XT/ht4UumLhY/s+dkQkODbOPullz19RXAyePLWfVIVV7dYVcH5GljYfVdnX8SK7nxUA3wv8KgjI/0b/wBJnrz9oIMnMMWSO6A12Ou6enp+R7WJoqcr+v8A6VIbHJaMWMTopPUrgH1/GntNCAxDA+lQpHD5a+bBAZO+wcUbFGQluMdtpIrkA7f7IsmkWzJdSzwrbKEDSsiDPJIAHJ7c9MVkX0M9rpcayTvLambMfnIC8ZIOQrgfMp9D0IrGi1jXLWzSwtIY1t2kLNNLKzmLPXCE8+vBHXoKqw6j4hubJItQgXbG5ZY1k4BPfg4rvqV4yp2RxQpyVS7NASryd2arWMiymS8Y/wCvxs46RjO388lvX5sdqq3Ek1xKlo0LAE75Ruz8g6D/AIEeMHqA1XfNlA6MKxt7OlbrL8r/AKtX+XmdW79Cx5inn5iPpTGlRcZyMnstRiSTHVh9Fpd8mB+9I/7Z1zFj/NBHMTgg9GWjcuf9Ww+tM3tn/X4748s0m4kf63p/snNACl1GRsakMnONpAppPXdMDn2xTfl54B7daBERHmXL9fuKOvu1SeQcDr09aWHBuZMcYRen1aphzweaSNq/xL0X5IhEDY4/HNIUCIXchVUEsScAD1NE90kTiFMSXLDIjz29T6L7/wAzgU1LbzGWa8PmsDlUx8sR9Vz1PuffGMkV0RopLnqOy/F+i/Xb1ehg5dEQ7Li6JADwQnjkYkce3Pyj689fukZqeC1SFNiIgjHzKoQAL9Mf1qz05zmlzjtyPpxU1KrkuVaR7f1u/X5WWgKNtSMRsMkKMHkjGKPmGOBTyMdc4z3/AM+9NllWGLfISFXt654Ax1J7Y71nFOTslqNuw1pvLVnYhVUEkscAAf8A6qrHzrwYlj2Wx52H70nsw7D278ZxyDIkUtwwluFwituSHH3T2LHuR1AHAPrgGrGMjnnnHNb8yo/DrLv29PPz27dydZb7CCUlsEc0GQ7gAPxpcZwCPwJpu3PT9K5ywL4xxgYyPegyZ45OOlHl9flxmm7CfX+tAHI/EAg6Xagdpuv/AAE157XoXxBXGl2n/Xb/ANlNee16GF+A5cbvD0/Vn0/+zj/yTzUP+wrJ/wCioqKP2cf+Seah/wBhWT/0VFRXScRzp+cj5fzpMYzkc0wkkexo2gjrz+NeHczHnaB944+maByMAj8RUfl+hqQRE4G5cemaWoDgr8njGPWgK5wATk+nf0oFuTgbgPcGrVnCIHe6kOUtkMv1I+6Pz/lVRhKclFdQNZbkWeiNDERuRXYn+8y/eP58fhXD+LrYX2hX8Ubb3jSN028jKICx+nzYrVnvGj02D5juaCcN9Sc1m2V8JtDu5Y1EfnJJkuOic7mPovYfj6V70IqEVFGh5x4c1lNG1lLmVN8DqUkHOQD0I9wf6100ninR4dSXVYooZLyMNseONg5OOMk/XrXAluTitK48Q6pdWb2k13mCTG5FjRc4x3Az2FQCKSB5njjUZdmwoA6knpXuOmxNB4fsNOuQfOsYUjLZ67gT/OvI/CjvF4it7hI0eSHdIqt0yBXrdnq0mpy3hnVFkECDCjAJVjn/ANCNZ1Y80GJkzIoPDAE+1KFGM5H4Go/MYDgDI9qQsx78/SvHujMmHI+VyfrRnB5YVEM45VaUcjmP8qm4EnmgcZz+Bq3p1jcalMyQKFjTmSVvuoP8faq1pavd3UVtGvzyMAM849/w611F1La2dnBa2+FtsleOrH+978966cNQdV67IpK5FNb21vbeRaKCwOWlfkt9favPPEOmSRs8tzEI4u8pfA/PtXdecpyM8qByDWfcXO5znDD3FejPDwe2h0U6zgrLYzPAOrx3V5qkVmETT4raCIKqbRLLuc7sdzt4yevFdL9jtNQdoPKW3nxiOVBhc+jAcY96x9KsILC2kks7dY/tUzTuIlwA33cD0GF6e5rY+ZLWSTBB2HacdDjiq9lBx5WrmcnzO7MR7WRJGjdCGU4PNN8nbnJNSxzSXMt0eN0c2DjtuUOP5t+VOYSdz+deRVpezm4mTRGsK45BpfKTqFOBSmRxwOfpR5j4/wBWM1GgjnPGGnxXlnYeZI0UQugkjgDIDA4xn3AH41zkfw9uHiaU38SkqHRHRskHsfQ/416DNpx1iFbeWJjEZo/nXjDBtw5/A8exqr4hd7a8upbVMMT8wVfvCuinWkopRZ3YanGcWpI4vSvB8V1qEtrqDyPbxxlv3L7QWyBzXdWNlZ6ZYxWdoNkEQwq53HrnrWTostzPcSTf2dLDbyR7TJMQC/ORhepH5da3NmP4M59BWdarKT1ZhiFFStEdvXpjj3pMs3QigRj0IqSOJGdVLlQSMnHSsbyMLDIrea4fZHl2IyR6f4U+S2tbMf6XcF2HWOH+rH+gqe91GOxjkgjXYqn+Hkt7k+tYcEUmqOZZt0doeV7GX3Ht7962jFLWR1qhCC5ple88WOpmj0+xW3tRw8yqSWweQWNeYaheS3V5LKWZnlbOW5LEnivbUt4kjWJVURD5RGAMY9K82vvBt/BY3GopEJoYZCMQv+8XnqF64+nSuvD1Y3aehN3NWitiCwlSw8Rabbwifz2m2zSOxwykleF469T9BXpYidT95jXnHhnQLuW6huhaG3WRHlhmnB+coeQO4JOAK9KWVgq7nG7Az9ajFtXTTMpRktWJsJ5+YGnAsBjHHuKRpG/hx+dNMk3PK81x85PM11JB9F59VppCk8lR9BUZMhHzUwZ5G3PbOaOdj9pPuPbZ7H8KUmMH7g5FNCn+6TShW7IcikpMftancb8hOcD8KrWSr/Z9seuYl4/AVc2HHKmq9ginTrbI48pf5Cnd3OiNap7CWvVflIecKM85+tAIY4+bn3qXYijhV/Oj5Rjp+dVcx+sVe5Tm0qOSRpojJBOcZljwC3bkchuOPmBx2xUTR31qM3EMdzF1L26YZf8AgBJyPcEnsFrSAU9xQSg6t+tdEcTK3LNcy8/0e69NvIFXnumbfiC9s9Q+F3hr7LcxTiKS3hl8pwxjkFs2UbH3WGRkHkVxQjQjAA6c12fi/TbGX4d+Fr17WP7X5dtELlF2yhPIc7Q4+YDPOM4rgS93Dyc3SevCyD+Sn/x3A9TWtWlTqS/dys7LR6fjt9/L5XPZqyafvef/AKU+n/Dl0becKMD2o6Yzx9KrQXsM7lEZlfGdjoVbHrggHHvU6lSa5Z0503yzVn5kJp6od3659KSWVYI5JZmCxIpZiByAOc0obI6AADiqzn7TfJHx5UGHf0Ln7o/D7xHY7DV0aanL3tlq/wCvPZebFJ2Q6zjlVHmnUCeTkgNkgdQuf9nOOOvJ7mrfrnpSK2RkdqUfzOcVNSo6knJ9f6t6LoCVlYNvGOPwFIMZPApQc+/NHGAMn8agYYX2/Cm4UnPc9qXPGSaOM4Ynpg4FACGMevP1pjxcAksM96kYYAxk/hUM0qwICQWLHaqL1Y+g/X27ngVUYuT5Y7ibtqVmlW3uXHzNlV+6ue7VDJfSSqotyQjKCZipOAf7owcn68cjryKSWA3NwTcqVXYCIlbjGTw+DyevHTnHOM1aCgnkVouWk+jf4L8dfy9TpquDa5k9l1t0XkQwT28EZWPexB3OcOxzgcknn2/CpVv0YjAO3s2xvx7Uuwb84GfWjahbOPrWUpSk+aTuyF7FaKL+9f5DBejzAuGUdcmI9P6HNON6B0UlexCsP6U7Ymckc/rUE0qxv5aKXlYZVB0Hux/hHXr6HGTxRCnObtH+v67icqK1af3r/Ikk1CKMbiHYngIIzlj6D8qijdWlE9yzGUdAFcqnsoxjPX5upyeg4D4bNY2MrkPMRhpdvb0HoPb+Zyan2AgE9K2c1TXLTfq+/kvL8+tthL2Td3F/ev8AIY16uQV34942NH21D2fP+4f8KfsGMnGBR5QIwSCa59Sr0f5X96/yGm7TPVvwjb/Cg3qH+9+EbcfpTxGCMChocj5WUHvuGRRqO9L+V/ev8hn22MHo/X+43+FJ9sTHV/8Avhv8KlEY4OQfoOtAib+ILnHYUahel/K/vX+RxPju/trmyggjmQyxzZaMH5l+U9RXC1seKuPE9/8A74/kKx69TDx5aa89TzsdJOs4RWkbr7mz6f8A2cf+Seah/wBhWT/0VFRR+zj/AMk81D/sKyf+ioqK2OM54OScD9RQsh54X8qabkjgKPyppmftgZ/GvD0RmTq4JxtQ/Sn7oyM+UM+1VPMc9HA9ttODHPLj8qXMBaV4ccpih0lv7R7GyKpLId53/dcKDwfSqwODyc4qxbXAtop7j+5EQCOvPFaU6kozTRpTjzTSOQ1fUnggW3ZClwvybfvAH6j6VV1W5TRfBjadBMDPK6pJ5TKMjktkYyfQZOKv6Ri41u5u2x8sRXp1LHAH6VieN7dLL7AsChYXgBCquMEdvfkmvWpVXNvTYupHlk0cSRyaSnMMHHYd6QD6VZBteFX8rxFZuZ0gXcwMj8qvynr7HofY16Jpryx669tImyQybGA5A4P6cjFeb+HjEus2vngeUXKtkZGCCM/Xnr2xXbeG40XVYfMLO+MqW/hI5yKzqTUU7lRg5J2O0EBzy65zjijyWz1Uj3PWn7wVzvz9RSb0H8X6V45jcBFzyBUgA7KPwNRGRM8MfwpDJ/d4pc1gL9mzW5uLkcGKB8H0LfKP5mqOrzkaPZODgLugc/3cgYP5qKtzhovDcsrfemlAH+6v/wBcms+92yaZNE5+UhW/L/61exhFakm+paK0V3JJMkbYV5WZVAAO372046dSOtUtO1q4uNHs7q4Qs1xEP3ski7FmCyHhVHALIBiq+gTG4u4JHDFok3kLyS3/AOvmnSWB/s5dKsL2eGzhbM0pQM7bmJKK3G3OTgKM8+ldCYSVyxphub2PIMu2NpEdZGJUv82cnOO+MDP3RWvD9ptLSeYkJAI8sqcqWGSGPPXt+VQaZHHZaU0SqqGKdk2LwqBsHaPYCo7Wa/1TwpcxNKRPM6qRNAI3QNGrj7vBU5JU9wQD0ocrK7J5bMTw9Klxql7byni5tVIJPSRQCD/MVdaKSN2RiVYEhue9cIbu90u8Ae3KSIQdrfdbHP1Ye3FegpcQ3cMVzCB5UyiReOgPb8DkfhXm4zllZxNKlOSV2RpCzFQFYljgAckmt2LS7XS4TPqA+0ThdxtkPyr9T3/l9al0KOOKC5v2QFosrHkdDjJx71l6jqWbvySedz475UpuX/D8KrC4WLXPPUhItX9zcarYywW8i2k8ZWS1kA+WNwOOOmOqkdwTXnGqeMLeS6NpqFvNY3sTeXcxspcBh12sOSD713jSARhUccJwQe/X+YrlPF3hhPEWqW13F+7dGC3jDqYP72B1Yfd/EelddSlGe5tCrKGx0fh27i1Tw6lzc25EMs0htdvEixAgKTnqCQxwfWrE9tLb4dfnhJwsgBGfr6GkEsS3PlQwiCHYAkS9IwOi8egqVLl43e1xuSTJKk+3H6kVnVw0ZR03M5e87sqksV5oyevFMJJ7gU3arHlyPWvIcjMzr6SQXr7XMisFBVeqkjIHvxTdK1IwrM+0SJNtjCt/CgJVcHtg5P403VtMlZxd2e5p/L8mRQ5G9PYdM4JFUdH3MpSWIo0bIjKRg8Me30Ir0sKoNaO50yqc8Uux0sE8N3bPLbtgpnzIpDtZSPfuPem3huLOIPIjxpOvyktjd7j2NZenruuL6LO1hJuQjjj/APWKvzWDz2jW7TkKOV9u/Q8ccj6YqpYSN7w0JpS5JXM61W4fXmVpoHYsT5cMQTgj2YnsOtaxZFba6MD6Y5/KuNutL8Q6PdxHSTaut8xiW4jiIaMkEEkEnGBk55FehxSKdGto7VjPFbqtsfN+Z2MYC5yeRuUA49c1nPCSnrcqvNVGrGbhGXjv6U5Y1Yda0RYxXNu8tvvWRF3NEx6juR/hVLaAMbW/A1x1KLpu0jmaaGCNM/6yl8tfbHvXN6t4oe01lNKsbRbicusbFnwA7dhj0zyfrVpvFWlW8621xcDz2Yj92hK7SSFbd0GRg4681osNNx5kgNrYAOo/CjB9aRm5ICkYOORTcnPJ4rn5l0Fck6jqap2Tgaba5b/linGfYVOQhPJNVrBI20+25wfKXqPYVPMdEX+4l6x/KRZDnsAeKaWc9FA/Cn+V02n8aPLb+9Tu2c5CVcg96Qqe4HPtVjyn/wCev6UpjYdCDTSbA6DxXz8L/C3/AG7f+k71wOw5+ld54ucR/Czwuxzx9m6DP/Lu9ee/bEBx8/02N/hXRVfvfJH0s6U5u8Yt6y6f3mPmtY7hAsiBhnK8cg+o9D7ioDb3cA/czLKg5Ec+c/TeP6gn354k+2R4H3uv9xv8KPtiberH/tm3+FOGIlBct7rs9V/wPVWfmZPC1XryP7mQS6hHFGd6vHcHiOCX5S7HgAHkHqOQTjPOKs2tu1vCASGkPzSPjBdu7Ef07dO1UZJYr6c+fGJLaI/IrRlgz8gk8dumPXPHQ08M8C7raaYjvFMrup+jHLA9O5A9K66nsORU4vlk9X1Xkr7q3Z9d3oZqhXvdwbXozR2tgAYx9KUBuwH1rP8A7WSNWa5jlgPcuh2fXdjGM+uD7VZF0C3RyfaJuf0rjqUp07c6tfbs/R7P5FxpVJX5YvTyLHz9gOaGJIPBH0qv9q9pOnXym/woNwOOJP8Av03+FZXRX1et/I/uZOrueWUg84+bPFODtuHyHntVU3SIuXLqCQuTEwGScDt61A0kly7JKs0UAJ4VXDv9SB8o78HJ4zjkHWnBS1k7L+tl1f8ATstROhWW0H9zJJLhJ7grbxCWQZR23ny0b/awQc8dB+OM5qSK2jiYyNvluMbTLIBux6cAYHsMevXNIskaKERHVVXAUQsAB6DinechBH73/v03+FVKukuSnovxfq/029XqJYate7i/uZG5zduSf4F5xju1Ln8eemKhlZfPZsSBdoHMZGTk+1MdjGpd2kCjJJaMgYAyc8dgDz7VhHXRG9ahVcrqL2XTyRNvG7aeTjoKfu2jOT+VVBIZIEntraa6RjwYI8g9ecnA9qhjl1Gdz5du0US5BcRM7E5wR0ABGDn7wzxzg10ww0pJybSS3u1p8t/wOaUZp25X9xaedzKYoEDSDq5+7H9e5OOcD2zjOaiW5toA8UTtPJk7/LG5t/T5iBhT25wBjsBwxNK2xhDBczL/ABeashB9yoG0nPqPfrzVtYpIlAS3nVVGABE+AB6ccVrOrhYLkg2191/N76dlZffqSqNd6uJGGvHI2wxQjs8zb3X6qOD/AN9f4VNEsij95J5rEksSAMewAHT6kn3NRyTC2jDzK8Sk7cujAZPQZI70RXUc0kkce52j5kVEJKfX0rCVXnXLCKS8l+ru/wAbFrD1Fq0yz3yMZ6ZFAc47c9TWe+r2ETlJLqNGHO1mximHWtOPP22HJ9XrLlZXsqn8r+40y+SSd2CMEbjj8qBKMDIIJ45rPXWNPclBeRlgP4W5/KnwTxXVwFtpDLKwOI1jLHgewz/hSsw9jV/lf3F4yqrAcD0zS+Zk56/jVZ0ydhilVzxgxsD+WKHwjlJBKrDggxsMfpRZh7Gr/K/uPL/FJz4lvj/tj/0EVkVv+K7C5i1a4vXhZbeWQKjnjJ2+nXsawK9Si06cbdjzsdCUcRPmVrt/mfT/AOzj/wAk81D/ALCsn/oqKij9nH/knmof9hWT/wBFRUVqcpzIUkgFsZOMnoKcI5CM7fxIqXLYGcAj0pRux1rxOUzGCEkcgZ9qeqBSCU/SlAJA/kTQSAoBwB7c07IBwMeduKqaq4TS5cDqR+VThhksC5+gqpqTq9hKGbBOAobqT7U4fEjfDv8AeIpeF7VG02WWRdxnl+nC8D9c03U9Ku7+6eyksYb3TAV2HzyJ4m/iYHGSPbB/pWh4ZSVtKtgD8qKXKlf9rn+f6VqlY2mlXYjqHOFYV34O75mKbbk2zxjU9Alsrx40EoQcjdEzAA9iwHX6gVl/ZysxjaVFIODw3H4Yr32SGBkyZJ4T6b2x/PFVYYyZHjWYkbsgsAWOffHWutok5f4deFo4tUh1O4tWumjG+NZV2Rg444PU9eCK5TXrrVdI1e4SLbbCKUhDDk/KfmU5POCK9gsYEW8j2MZJUYNtHzY+tc5488Lyam9y1rLFDNDlmDKcSRg7h24K5JH1IrKdotX2Y1JrYv2dwL+zt7pHyk0ayD2yM1YCE4GRj2NZfhUW6eGbOCGSTzrcNHcK/GyTcePYEEHFbYwCev4mvIqU3GTRkyHy2yeOvvTliOckED61L3yBTs56sB7YqeUCjdWepXqhLa/jjSNOIZYeDjnhlIIPX72RXOXus3HkS2rhPNC7dwBznp269eldkH8t1YE4BxXK2sSr4vWFrcz/AGgSQiIPsJLKcfMenI556Zruw9eWkW9Dsp04ypc3VCeGrdRaSnzpI3f5Zdi/Ngdi3RR6963olUqq2sOIUyIyON57kf1b0rBGtWmjJ9jurSCwcsxVZXLhsHrnj9a0ItWgnthcz6ttib7rR7UjODjGee/vXpI5zXs7eKKwjBYM+9zI3ZmJ5OP0qxFpNvY6eEtIEj2MzlUzwDtBP/oI9hjFULa70c6fEZtUtoGViC32jJkyxII9c59OoNaD+Io9QghjtZJb6KeJpPtbAAABwu3AGeSD17LWVa3s3fYT2MDWdNS7Hmhc8fPt6j3AqHw3fbYZdMlyZID5kR9UP3h+BwfofataW9t4InknuYY41PzM0i4Hf+RrmG1HTX1hbvTr1HaJXkIVCEKqPnUk+oPT3ryqalJNWNqdTnj7OXyPU4pPsnhy3JTLNH5hUcZJOe9cLd6h5mqy+SGD28RAyO7kqg/DLGsO5+KuoPZ7bjTRHD/qlkt5eBgDgq+exHQitDwmzanO97MhwZQ3luOwUBRjJ7Enr1NexFcsVEyRfllu4bvVyTczW9iYCYxc7doEAdxtIIOT+Wc0kuo3EVzdSWyRnYiKNwLBhjLMDnGAxC9+c1ranbzyLfDScRT3WHnmntzOpIUKFCkgDgAdD9DWNZWa28ziWaS4uIyoMsg3M0mMkAdEXnooGMVdyLO5L/bF1guWjV9gO3yRjdsbIznpuCj8atWty17r1jI8ZhQEq0e7jOf1+UD86i1XUJNOs3nEAnCAmTdMIwoA7HByxJwoA5PpWBqPiLTtJ8aTiRkiMJQEYYHJQZ6KeeaTY4prqdrNEqXDqRjBOAfTtQFQcHFQRX9nqsa31rP5sEvKMAR/6Fz+dOJjBzv614NRJTaJJDGmcgjP0qe1tYJVuPMjRmCKQ2OcZ6ZqnuUsMMeeOmTUujX1pc3c0aTMJAm0QyjazHI+7yQw4PQ1rh/4iaLjCT1SK9zZrYajDIoxFPmM+zD5h+YqlJPcpc6vcs90bK1uEiXymVlXYg8z5DydzNt4PWug1JPPsUkSNWkWJbiNT/fj+8v5ZFZ13bT3GjxxaObKKCeXzpvtkTzMSzbmYHdjOecEYz6V7UXpcJp7FSO5srR70TSTxmO4EQ2qSEkChmQEcEDcPpzjpV621Czhdsb0EgR2bymwcoXBPp8oJ/Cs2SGOyhkWeSa7aRxtBjjToBzwvy9B7+9KtlG0jIkboyqC0fnBmUFSoyOoG0kDPUU9CPfNi8vhaSW5SRcMyncpBGMEH+YqpBN50UE38LqM+xBww/Ag/mK4PxV4kn06/bSreFYlsnZRJnLEnngEcYzVLw/45vrW5htZtj27ShmZuHQnjII49Dg+lcmJpe0hZbovpqa+ufDrWZTb3dvew3JvfnmQjY6O2SQM/eH5H2rkItB1WK8Y21lLcxxyfNtjxnB9e1eweKL5bG1/fyhFAOyRlyGYrgc8465rnPD+y7S4hRzJZFfmCggNk9MVh7WUVfodjp0+W7OrYMxOUYcnhh0phjzklfyo848nDZJzQJhjndmvO5UcF0KEXqf5VnWN5AmnWysk2REgyLdz2HfHNaQ3SZKMzAHnAqpYS7dLtRuORCnbpwKdkjrpOCoS503rHZ26S8mJ9ug6FZz/ANu8n+FIL63zwk//AH4k/wAKs+ccZ5+mBSecT/8As0rmfNQ/lf8A4Ev/AJEgF7bjqlx/34k/wo+3W3TFxj08iT/CpC249KacZ/wou+gc9D+V/wDgS/8AkTpPFqlvhb4WAKg/6N94ZH/Hu9cCIxwcg/Qda77xYcfC/wALH/r2/wDSd64AyqrAcD0zXTV+L5I9qrv83/6UxRE38QXOOwqK5d4lVUEZllkCR+nqSfoATjPOMd6l8zJz1/GqlvIbi4N3jKbTHEPbPLfjgY68AHuRVUIrWpLaP4vov8/JPqc8n0Ragt1trdIgMqowWbqx9T6knk+5qQxgsCUXOMAgc1E7yAfLzz0Az/WlSQ4BZsHHQetZSk5ScpbspJLREu3tjB96p/YvIObSQ2x/55gbo/8AvnjH/ASOTzmrBYhcjBYDuetDuixs7naqjLE9APrV0qtSGkOvTdP5bMUop7kJu5YRi6hMI5PmxNvUfU4BHQ5JGPenG/VQqx7ZpZF3IqD5cHoSeQB798HGTxULTyXSnymeK3/574B3Dtt69+5HTpnORFPBaWpUid7WVsgBJDl27/Kc72PqQScjviu6NGjKSjKNp9ldr57tedm3vomZuUrXT0LccJ80TXMnnS/w4BVU/wB1cnB689eTzjipmmUck9Oue9ZX26+VGb7CZEBAE2GQHrn5MM45wOhz14FSwxyXyEjUEkQHafsoC59QTlj+WCM/TE1sJV+OtJJLtr8rRXuv+6+V+W4RnHaK/r9fxLct9BbANM6Rr0DOwAz6Z9arnVFkGIIJJv8AaxsQehyeo91z/LM0GnW8DmSOH943DSMSzEe5OSelTC3DAgKTgZx1Irm5qEPhTk/PRfctf/Ji7Sfl/X9dCkJLybl51gB52wKGYf8AAmGCP+Aj9OZ7G2gGpWrvulfzCd8rFyCFJyAeF5APAAyB6Cnz+RAhklaNQOdzuFH5mmW1ut3e2puoAbZnKrBIoIb5G+Zgf0HbqeeF0VSpKN78kfJfh0b+b82xxj8SWrtL8mbDTyaif3U0kVn2ePAab1weye4wT1BAALW0dYY1jjQLGoCqoUAKB0AHpSsqg5UH2zTcZ6LiuSpWc/djpFdP8+7/AKVloeJYUykj/wCtTePTFKcDjJ596NuDgMQPTNZagY2v2VxqNpb21pH5k7XCMEzjIXLHr7A1HpugajplxrFze24ijulURneCTgHPTpWrcSeXcWbbmBEx5A/2Gp+p3fnafJHEJS7DA+QmvSwM1GLV/wCrI6qsHKlD0/8AbmeP+I126u68fKB0HtWOT711t54V1W+u5JY4PlJGC3BNUZPButov/Hk556qc11+1h3M1TkuhT0a3uLqaQQW807KgLCJCxUfh0rs/CaSW3iGB5oZYgFcfOhX+A+tVPD0WueGbueWzW5iEiBXzHkNjkV0FnquralfQW+pbvJLtICy7fm2tjn8TWcpJ2afb8zow8Wpu/aX/AKSzRKmW8Ujklu3NWL+0uUYXEs1tJBKzpEsX8Ow4bd79KqMs8V7DlGXEinO4kHmoLHUYNS0uKS3S2VhPMZWgR0Lktn5w38WO44IxRiHamyaCvURyfxFx/ZVmR1885/75rzmvRfiJj+zLT188/wAjXnVZ4X4DbG7w9P1Z9P8A7OP/ACTzUP8AsKyf+ioqKP2cf+Seah/2FZP/AEVFRXScRzIZgQ2Dj6U7cxONvH8qeseM4yfzqUIMcvx714epmQbMgYHT3oWMnGMD61YCKo4fOPelzgnGMj2zSAiWMgkqefY1HfrH/ZskZZWmPz4JyQvT/GrILMTyPyrL1a2mnDuIzKmzBABBByo4I68bjV02k7s2oSjGd2SeGpJI7WS1XLBJlU44IXIbH51oGYCaaTtuz0qlotmUgkEYEEs5YETHOOSB+YA/Sl1R2gmnjbIbPzc16WFleLt3HNpydirc6rM8xQO6xLkkZ4NZemXV7qrtKkjbMneyg9+gGO+Kp3d6Id7NxkHAzwfbPY1u6NbLb6ZBbEKdgxI2TsLnrgDlz29K6iDRs9kcqKx3bSDh24Hvgf1NXPF84S2uJQizI8CBkIwWVhtKg/jVVoHicZVlX/aXaB+HQVk+O7ua3i09mZmgkt/LfPGGzlawxCfLoXSUXNKWxV8OagI7sRsIhHMm3YsmcEAANjP3sAD6AeldP5qg8kVwem6p9mulktIWkeF1mRVwucc5b/DvXaWd4NSiFwIDAzjf5RH3QScY9RxivKqOTblI1xdOKScS0Hy3G0/8CpSzYPQfj2pBGWz97/vmnbMAbhn3rO7ZxDHRm43kZrKuT9m1bT9RRBujnVZAexJx/U1sYIHbB7YqteWb3ayRIisJUOc9mA6/59K0pNxkdWGnq4PZlDxVothN4gElzZRyoy7WJzn9CKibw7ZPposIJJ4bQOHCxSbsENu/i561dvLo32nQtPkXMSBZMjqR0b6H+eaZaXKSII5MhwOD3r24yUldESi4uzOa074eQS6h/p2pzSofmARNrOc92JPb0rsb2C0sfC11Z28TR6fDBJ5qxZLbNp6fic0QSJHOpcZXaUyDjr/+qp7NEvxewSRhoJRJBjtggr/WhxTTTJPDYrsrGFWKMuQPn2jdW74duLq9lg02KEzQq7yGOIbXw42k/QZB9sfSrA+HGrRy4a909Qp+/wCYxP5ba6rwx4RttAkN09x9pumUqGClVQHrgd8+prkq4mnFOz1Dn5Snruj2NrpNvKlvbRxxp5EhwBuI9zzk/XPNbPheaFY3tYCGjP7xO/ykDv3xWR480h7yxW/hZybc5kizkEHA3AevQVi31jrPh7TrDbpr+ZFGwnlhlLHlsqOB8uBx3BIow042u3qzWUvarRbHqmq6hb2NoII3zM4ysa8sx/vN6D0HeqNjbLBA0gOGJ5Zh371xZ8XNpzwNdXGUlQs0aW+xmYY4LnJOQfar1v450QeWZ5pUTBK7o2JHqcAetdl0ZHQ6hp321UV72WC2XmaJFBEi5Bwc9DkDBHPJHevJvF1jOnjG/iQSTPNJ5q55JDDP+I/CvSD4hafVLC3tdOmuFnkyztkLCuPvEYxn6nt0zil8TWEcliLqKNRJHhWZepT3+hrmrV/ZyUe44pOSTM3wAlxb6LJbzxMpEhkGR0z755HQ9v611mVIyx4rA8MuryzxZwvDDBrpPLQZxuGa8uv703LuKrBQlZDQI88qCPzrFFotrdM8sSW8O4lWV/kx2HPfHrW4Ex3/ACqSL/WD69D09uKdJ2klfcdGq6b0F067D26ASiQxzb42yMMp6gGpLWL7O1xafwxuSmf7p5H86NRsI4M3FuirA+TKgHCnP3gOw9fzqD7TPbkY2Sqq4AcZIH1HNemqrpe7M6JQVT3oj3lQNsIPTJbHA5PWq0Hhe61i41OSVUt7O4ltUaSVCRcRxplwACCwJJXOQOO/e/pMljqV08VxDOjKmdhkGG5HQ46c/rW3ql+tvavJxhU+VF4G0cKvtkkcDsK6Yu6ujnkrOzPnXxlaxaf4r1S2haUwRXDIhmbLlRwCT3rn490kqrGG3scKFHJPbA7nNfRHjDw1aajZrcpAvnq5mMg4YPx8ykfd6A+hridG0SNfE9vcXJNxcyuoMkh3E9ABn6YFc0q6jLle5sqPMuaOxratdy3Ok2B1Cwnjs7iCP54gZYwwXoQvzA/hznrS+H2YzGCDTLwWzEbp5ozEEUZ6BuWJ47AYz3xXS36m9VfLdxEpBIjHykjgZ9xxxUcEawg7c8nknkn8av6vC+pMqzkmugt7azWUih0V43/1cq/df/A+1VVjmm3lEGF5OGGfwFayXI8oQzgSQsR8rfXAx71UkiNndEwsSp5Rj3U/5NeficP7J3+yYWV9divKrW9tbSruDNubp36D9BVWx2vploxBz5KA8+igf0rTvS07WgLBWlzgdh2x+lYljbOdPtiLyZQYl+UBOOB/s1zz2SR6ThD6s05Jare/aXZMucf3aMADJzmojbzDpfzf98x//E03yJ/+fyf8o/8A4moOL2MP+fi/8m/+RJsAjIYg/Wlzt6sSKgFtL/z+XH5J/wDE0fZZP+fy4/JP/iadw9jD/n4v/Jv/AJE6fxbk/CzwvjGcW2M9P+PZ687aHcOmDjrXo3iv/kl/hb/t2/8ASZ68/kZVTe7GNEG4vnAUY7+ldVXWSS8j2a2/zl/6UyjdKzNHbIzB5gcsOCijqR78gD3OecVZjhVVVUBVVGAoGAB6Uy0Rm33Um8NMBhG+8qgcA++Sx/HHOAaU6hC2Ps6tdHp+4G4D/gX3c+xP9K3nSnJeypq6ju+l3vd7K229tL9WcyaWr6knkjBH86aIv3hIdjkD5d3T/Cow99NnZHHbx9QZfnYDuCoIH47j9OeIGtzdSNFHNNO4OGklyEAHVdq7VfuD+OTwASnhU3780rb21t56afjfolcHPsh9zewW0mwzb5h0gjG9zxnG0cjjvVUJqV06SS2yxqDkI0gZUI6MQo+b16j6AgE6NpZRWS7IFCKfvMRnP8sDJJwOOTgVZLuxU9CDxjn8OtX9ZoUbqhC/96W/yS0Xzu/PdC5JS+J/JFD7NM7hbm7nYnosZMa5Hpjn82I/pPBbxWpbyIIotx+by0C5+uKmaRl+XIIx97pj2xThMcZfb77ckVzTxNWa5W9Oy0X3LQtQincbz3B+vNQvapNIZcMkw4EsbEPjr17jPY8eoqz5yHJLYz1z2/CguhHJGMdKzhUlB80HZjaT3KfnXlsyo4jnU9NrBZG9tp+UnuTkd+Kf/aVuISwmO8EDyyuHyc4G04xnB64GOenNPuLoR4WP95KwOxf5nPYc8n+ZIBrmBZ0Mt2u6fOFCOf3Y9FYYI46nqe/GAOyPspR568benX5bW81yrfdkPmWkWWIoZZJVnnG11z5cQIIj9z/tc8kdM4Hcm3Bk39qWO4eYfz2NWaRdQHckn2lSPmWUBXx7EAA+wI79ansb2OfVbWMuVl3sfJcbXHyNnHqM9xx71lXpVJrnjaSXa+i9Hql5ta73bLhNRUr6O0t/8LOk4B420hYj+6aeCDwVx9aaWiHHBP8AKvPvY8UjySOVPtinf8BpS6gYC800S8elPmEVL7hrUqCD5p56/wADUbpccSsPwp11lprMA8+aev8AuNUu1s42rV05aHoqsoUoJrp/7cyITzhcCUfitOF5dLwHTHutPMZxwg+tN8tuhT9a09oH1mm90I17P6Rk1H9omlvbNfs/mnzT8qIrE/I/ZiB79e1SFAT901Q1W4nsoYZ7WKVp1kwoicIxyrDgkEd/SqhU95X7o2o1acpNLe0v/SWT6kkgtLoyfaVBZYxEJlAG7OQUTPGPesG00yKGLasSxoB8iKWAA9xmn2usak1u8d3aXRBYODIUPTI/hUc81Y+2pjJgkB6coRWuIqc0tNiaMOWOu5yHjqAw6Zb8uQZv4iT/AAnpXBV6B4+mEul2uFxib/2U15/XRhfgM8ZvD0/Vn0/+zj/yTzUP+wrJ/wCioqKP2cf+Seah/wBhWT/0VFRXScZz+xs/fxzxjNKI5Mj5iacdjNgBhSEDkfPg+1eDciwv70D5WIOe4pfOkVjufI+lM8v1lbPpT1QgnMnHoRmlcBPtHYLSeexP3Bn1p5TBPX8qUIzZx39RRcCaxlD3cayERg7gGI4B2nHPpnFZPiCKSOUs0sTsQCSJBkAjjIrSW2lm/crOqlwVDhgu04PIPqK8huvFWuyx+XNrM9whyQWlJPP616mB+CQ0djp1gL28BuAnlQHeUHzb85A56H3FdHp0iWiyPcS21lBb/u4yWDFl9eTgZ9MZ9a8+8CzX154mMqujbU3TJIzHdGcA7eD82cHn0rQ1qfVLC4j1Ga8+zPeMCRBECbZASgAJ+Y5Und03d+1aKdq9m9LDvqb03ifSbq/8uLU4ZWH3Rs6469BtH+ea27+Cz1S3jilVbi2eFMhk4Jx1HH615N5ZguxfLr9syyGQs0Dss7KHIKldoIZwWIBOMHB9K9P8PtBNoVo8FvJFCykxLIQW2bjtJwAM4x0AFRjJrk07g7nO3Pgt4XLabftGjnawlTJRT1II64HY109pGIUWIZXYAMdQfcfXHT1q+I4+pTn3H/16jIiU4OQOvSvNlNvcTnJqzYmGx9/8jSqr55I/A0ZTBxk0xic4UqPWouiCTkHofzp32prVWnELSbByoYCqxDYxvBHpUtpEvnEzKJE2NuQ9G4zj9KunrNIqnLlkmc+l09xqaMUREJMbRBvvIR1H04OPT6VXkBgmaNXwCcxN6Hpj6dPzrfv/AA9ptq1repG6ySIGZPNYpvHcA5x36GsPVow8UpBwxUkEeo5/pXs0qbgrM6q01N3Qq6jLceRbIvzyvlmBAKAccZ7/AP1662zVYAkSLsVRgLnJ/OvNoZnkmaZlwVK4PfkZzg9jzXoGnTiazhkJ5I7cVqjBli+haG8cEHn5wc9c1CI+enP0rU1L5zbncSfJAPv1qntYDkDJ968SvTtUdjNrUXT7YTajbxypviLZdW5BA7H26VB4o1q2sLoabHERJFgySfd2L/snv/LtWxo+5bxpHA2ohPH1/wD10akYriKG4miRmXJR3QMVz6Z6V14ahzUvmb0J8jucZqOkxXUcMl3bws0g4EkIb+mRmpbHRtCe3WGXR7MPCeN0fr/n9a15b9fIc5VEIJkcLliPQHtWDNK9tcMQu3cgIXrtyMj+dd6VkJ6u50sMcO37PCoijB/hGOfQe9NuIQ/mwvghsq3HaszQ7+SaUCXGT90nrj/69bF46x3cq9MHvXFjtIJmcjhLC5tdF8Urp0sh8xj5eAuQM8gk13AVe55qkfDOlajqEerXVr5l3FhY1d/3eF6MV/iIPrwcVpanHHFfNHHICSA7L02Z7Efr9K5qsG6Uai+Y6knP3mRFkHQj6U0yrjIH4VHkED5gKtafCtxf28RAYNIuRjqM81yRblJJdTMt3uq6dpmo2WkXV6kN5c26yIkxxkscbc9jnsevasXVYGt2lmspkULy0J5QcZ4I+7646c112uW9pdTxtc2kErwyCWJnQHY4OQQeoP6V5/4g8HTX2oXGoafrl1p91NtygGYuAAOVOR06kV9BKEZRszeMnF3QumX82pX8FnaQSfbpGITK/J935ixHRcck9uK7r+xbW12vqF3LeOD5giY7YgQcg7erY9z+FZ/grQdQ0bTLm81a9F3eXAVICp4SFRwBkDLMck4HYc1FqGot9oJZzuQq4z2IcIR/4+D+FEIcqsE58zuW9Z+zalGUuLeORRlcn+E+nBFczaeG9Me5c/Z/kO3aRcS5bkhgfmwBjGPXJqbULmddNumtncOmNgRtpJEjKBnHuPyqGwuDLPeR/aCnyLJlmZViXch4I5UEMRxzwT61fKnqZuVtDegtdNXyoTaKi25UwtESjqBzgkHLAlVznORx0pkaQSTPHJdT4AAAYBxznncefbGewqjHdF7u1LSMBPBnyTJ8ynaxLMCMnoBu4wRyOaS8nWC1upnHKs4B+rDH86YLUL+2v7adHHlzx+YXRo3zy3C5GM4HP0IqQzNICF+ZUmaOPHfAGf1JqCDUvPg3ZyMHIB7ECp3u2is2kKK3GFkUYOSQOcd+fz71jWp+0g43GybzY5NVghOCtvEQRnjcAT/Os7TjjTbX5T/qU/kKp6ZckzuMkuhIZ26kdP5VasJP+JZbDGf3K/yFeLV00O3EWVFpd4/lItkoOWwKTfGOQv5VWubqG1jD3E8MKE4DSMFBPpk1VF7NMMWljO+eN8wMKA+h3Dd+IUjnr1w4YerNcyWnd6L73ZHncxomTB4FRz3MUETyzzJFGMZd2Cgfiao/ZdSl/wBbeLCDyFt4gWU+hZ8gj/gIz7dKkh0q2glWUQFplziWUmR1HTAZiSB14z3PrV+yox+Od/KK/Nu1vVc3+auzb8Ua3a3Hw58OWtqlzcSQ/Zw7RwMIsiB1YCVgIyQeCAxIIIxkHHnri6u5PsbGGOMKGkWMlyF5xgkYOSMEbSMA5PIFeo+MZEi+FXhd5GKqPs3I6/8AHu+APevObaFhbnzkHmTNvlVjkg8YHocAAZ74z3r01VjSXtYxV1ZJvV3/AC09Lp27nvV4tys31l/6U/6+8j+wwucXCtcE9fNYMM9jt+6D2yB6/jamuI7dAZXK84Hq57ADufYCo7i82O0UC+bcLjK7sbR1+Y849u5+mSFih8v95JK0kuME7R8g7hQOgz9T0yTgVzSc5JSxDdui/wAlsl8vRMyVlpEi8uS6dTcHy4T/AMsSQWb/AHiCRg/3RnPc8kVZWMRoBGoCAYC44H09KrC+jl3mziebceH27Y+uM78YIz6ZPseaVoZ5MtcXMoXukPyj6bvvH6gjPoOaqpCbVqvuJdP+Bvfzla/cE19nUWS7iRzGXWSdcfuoxlh6HH8I9zxz1ppjvpyNzC2XGQRh3P6bR7/e/rVmCOKFBHEqxIOgQADrnoKkDEEjcAMc+lZe1pw/hx17vX8Nvk727j5W92RRW5iiVPmwM8s5Y/mTT/L4BYvx14GT+FOZvk65B9s0jNxgkjPQkfzPasJScndvUvZDDb5IwxB/z1qG4yh8qEgzbdxOMhF/vH9cDuR9SFe8M8hhtZF3g4kkBzs9QPVvbt1PYGaJEtwUjBPJJ3EsxPTJJOT6c+grdQVJXqLXov1f6Lr5K14vfYjhsUiBYyl3b77tjLeg44GM9vU9yamEAB4x+VHmDAGOgpDOOnrWE5ub5pblJJKw4QDJOOe5PehLOBri3jlhjlheQ7kddwPyt1Bpv2jnOBn60+3cvqFtwPvn/wBAapbcdVuXHaX+GX/pLL5hu7Y/6JN50f8AzxunLflJyw6k/Nu7AYFC6gjSLHcxSWjuQEEwADE9AGBKk/7Oc8dMVdCMQQOPrQ8JljZHCPGwKspXIIPYir9sqn8WN/NaP/J+d1d9z5+wjISeh496TYxP3c/hVQabNAf9CuXhHaF18yIfgfmAx0CsAMDjrlf7Ta24v4Psv/TXduhP/A8cdh8wXJOBmj6o5fwXzeXX7uvyvbqP1JJgUubNmU480/8AoDVc8xOOP0qrO266sww/5bHPP+w9XCErCOh01fgp+n/t0hN8fpSF0z/9akkWOKNpJJFRFBZmJwAB3Jqh9vE5K6en2r/prv2xD/geDu7j5Q2CMHFb06NSorxWnfZfNvRGFzQ+Q8bj+FYus3sEbRRRM086S5aKPkrlG68gL1yMkZ5xmrX9nSXHN/d+co48qJDHGf8AeGSW7ggnaR2qK+t4LWC1jt40jjWU4RFCqPlY9K0caNPd8z8tF9719VZep1YO7rK3Z/kzIZbq5KiZzAo/gt3JLfViBxz0Az3zVoCUIEUuAAACWJP5nmpdwA45J7elGeACcD61NSq5q1kl2X9Xfzuz0FFI4zx+HGl2u9t37/8A9lNefV6H8QjnS7T/AK7f0NeeV2YX4Dmxu8PT9WfT/wCzj/yTzUP+wrJ/6Kioo/Zx/wCSeah/2FZP/RUVFdJxGFtcjO4jn0zSiMHOGOfXFCxk/daP/gNPVG5/ecexrwbGYoCBSGZj+FChMY5/GnAyLn5uB7ZpGc43OwA7nbijYBy56A0jI6gtgk/3QKY04C8Px6ZHNJHMxU4UHPq1F0BynjpL6z0kT/a7yZZpQjKoVYox1HAGScjgknoa84NqRFHIrKSwzj0rqfGutySahcabBPIbQOrSx5ypmGfXPTd+dZOjiC6vYIip+Yhdqk5JPcV6tL3KSZpFHdeE9Fk8PWjXkkok+0wB541iyykcrtx1GCcj1xWffXMeseIriVlSK3aJUxNAVeUccnd2BzjHauvtElgt0ilmMzpkeYE2FhnjIHGcen5Vk65Zw3l8uJB9sSLDB9wBTJ2j8yTz6VxUajnVd92EH7xwk+lQi4ncyoflZlESbRu/wzXqWn/udOtoE+RY4UXaOMfKOK8/eOG1unM8kkhjbLoHAUsOQMDHGe2a9Gtd8ltFJICHZFY89yATV4u9lcdW11YkQkEgtk/lSls8gKPxpegwSeTTwsY4I5riszIQFmHCxn2p4XB5RRQNvQnH4UFELAEg8+tFgECoTuLAfSpUWLeOeTlck+ox/WozGB0bI9SaVUXdkYzxjFVH3WmBZ1dYxZLg5w2BuWuTuoWlHlqDmQbRznk9MV1krxSDy3mijJVTsduTx6Vz6FJdWiWPIRWLEg9h9fw/Ovfcly8xp0JdV0a3lsEjt1VZoQqISOSo7Z/pWjDZpa2sZyFxjhTxQWUdQWHfufw96pyXXnvGInd8KWCMuOB1J/KuTBT5oNN7Cibt2oNtaOWzmMjGf9o/41RYqOmDz0zVez1CS+0qKJidqSMQdg+nB/A8f407YpPJPT0rixb/AHrsTLc07QH+z7x0J+bEY455/wD11Jq7xlZIl5SDEX4gc/rS6dtt9NkupFzFDK8pyepVQR+uPzrJmd4tCtPMz5s4Mzn3Y5r0sMrUYlR2MW/fMCwrwZHVOPcin2Fsdau7ghiVad+Rwsca/L+JJB+gqhezETRbRl94Kj3zxXa6Jp8cFt5EanGfnyOuBW19bFGOmlfY7xJInZo+xPX8Pao/GeuNoto90iBpZEURk9N20df51v6gP9KUDp0H+Ned/E+dfsNhG7gSeaxAHcBf/riscRBTST7ks5K08SeImtrn7PfXBi3m4mMbBWB7kHqB7Cut8Aw3MqXN1J9pVXA2mRiwlzzuyep/lXEaPp5u3VXtbiQuP3YQcH/GvV/CwuofDlpbTMSIQ0cYZMMihjgE98fSufE1UoOCLlC0UzVK56rurX8PxxjUt+wBlQkfWsssRjg49a1PD5U378dI85/GuTDRXtYmS3LOpyHzi2az4II7i5y5YRRqZZOSBtXn9TgfjT9dkC7uec4qhpd5cCKeVZEEKKUYkNuZjggAgjAHJPBOcdK9mU1BXZrGLk7I6a+u0htzPIkcsjAGMjJVVxxjPcnOfTjFee3Nw15rCmdy/Dzntkhhgfn2qbU/EUm4IwPlABVY42/QHqPxyO2RWBbX5utVV1yEIKJkYO2lGpGavFilCUXZo3pLyOy00XF44hghUySuOp7AD3LNgCooPE9lBoX9t3AkggkiDrDvy7PuZVUe52nntRcoh8M3SuoZRZyN8y7sMFYg/XNY2j6paaN4Csry6g+0gRIkUJjDbpC0m3r0781ZD3Na18UiTU7ez1LSr3THucC3a45V2z93gcf5zV7WszaddQLwzrtz156g/oK5Ke91TV9b046hbW9uthObgx2jmeRpePkbk7Dxj5sAYb0rcvp765QhbeO1yjPm5fJwMZ+VMjbyOSwxz+Orw87Xlp66f8F/K4JnO22r3NhMlncW8wnwCqCNiWU8qcAHHFak+sElbYK6z7fNEJDZkx90YAJPzYPAOAprQvLGWDzPtd1cGRgGaOOUxKjY5ACEZGeBuJxjrycyaBbILCQQokSmU/KigDoOcD6VxSxFKnHVuT8tF971/wDJTd037PnMvRItYhWR5LeJywAUzTbAV9RhS34MFI/PGjZ2M9xZ25mvJRGY1Ajg/djGBjLD5s+4IB9OudjysHqc1WsMjTLX/rkn8hXnSxHvXhFR/F/jez81Ylyc6MnLvH8pDbfTLa1kMkEEKSsMNJt+dvXLdTnryeas7HzyOPpQpycAljTifZsD3rKc5VJc022/PU5khPmX+D8qQyN3B/OpAJAcjGO+TVDUNWisdsSqJ7yTHk2qN87k5wfZeDljwMGqpUZ1pqFNXf8AX3Lu3ohs1/FWoNdeB/D1vGkRsbFbcXcknBWf7MJEC89FQ7mJGPmTBJDAcLNdB1UySC2ticeZK2x39gDgrnnnrwcAcGum1bR9Wj8A6I9y8NvpwmRrWGLJc70eQyMpZlDFsnJLZBXasJ3K2BBbxQMZSheUjBkc7mPqM9hnsOPavXrfVqLTvzNJWt6LXtf77bWe57lbmcreb/8ASmRQvM0fl2luEh7POSvJ6nbjcTnOc4z685pfsSuc3L+ee4bhPpsHB56ZyenPAq0Gxn5QcdqcDgDrwexrilipJt0/d8+r9Xv62sn2IUF11EOAwww9iB1/Ojbuzlh+HalyMMcEZPHpTRj06e4rlLDbk9qCgBxtA9ADTsEY4xz3pGYIjO2FRRksxxge9CV3ZCDYDy34YPAqojC7UJAWSEfelGRu9lJ7f7Q/Dk5D9s10v7xAlt2Q5DSD0YY4HtyTxnHIL21CxRijXtsjKcMpmAINdlOjKOkI80/LW33bv8vN6KHJPd2RIsUSIFRVCgYUYGAPSl2jkgAE9wKgGqaeWOb61H1mH+NKNVsyuxLmJ2/uwsHY/QLljUPCYl6unL7mPnh3JlTvx+NL5QJ9vpUP9owN96O6OOmbaUn/ANBo/tG32n93cn1P2WX/AOJo+p4j/n3L7mHtIdycwjdgkZzUlvGFv7Uqed54/wCANVQXzNzFZ3Ui+oUJ+GHKn9MUsV7Ob63P9n3PDkgK0XPyt/t4qZYSrbWy9ZRT+5u5UZq0v8Mv/SWdI5OeSRSqflz831qkb+5YYXSboMeAZJIgoPuQ5IH0B+hpnn6welnZqf8Ar6bn/wAh1H1Wp3X/AIFH/M8O5pDJPAOfc0vzgYbbg9Oayn1FodsVyVN2wz5FuTIeuAegwO2TgA96YV1G6yXdbSM8jYQ8hHbqNqn1+91OD3oWHqLWbUV3b/K1215pMLkWoWlrYG1ktitkfNIAjHyM2xsDyxwxPA4G49Aab9t1gRDfprRoSc3O0uNvGG8lTv5/u9V755qQ2UVlc2s8CEz+YVEkzNI2NjcbiScd8dKvfa77HItz9M11LF0/tR9p5y3+Vn/6U5L+70OuVCcqcGu36sgtLC3uUjuWuGvwDujld1ZAQeqhQFyDn5sZ6jNaHkkHOGrJnimllaeOJbedsbpoJdrNjj5gQQ3HA3A47YqzDfX6QqLi3ikk7tE20H8CTj86xxDVRKSl8n09LaW+70Rl7CouhdMZzxms/VgVjt+v+u7/AO61Tf2jc45sm/Bwap3129yIEe3ePEuckg/wtXK4nVg6U1WTa6P8mV95J/Hk+lG7HYU/aBxnH9KNgLdqo7Tj/iCc6Xae03/sprzyvQ/iEoGmWuO839DXnlehhfgOXG7w9P1Z9P8A7OP/ACTzUP8AsKyf+ioqKP2cf+Seah/2FZP/AEVFRXScRgFzyQcj8aYZ3xgMM/Q0nl4XG36AHmhVI55HuTXz+5mSeYzgZf8AwpCOwJz60oBJxv4PTihlZAMHj6ZoswFAIGeQT0oVuRkNgEZwAaXcM85/GhlAztAJA6Zp2EeLa2jRa5qEcn3xcyc/8CJ/rWn4GthceJoWIysKtIc9AcYH6movFttcQ+IblrlJ0kmVJT56BC4ZQdwA6Kew6gdec1p+BbK8ka6ubS8Fs8ZRSGjDrICckEHp0zkV7FVtUe2hb2PS1Gw5GGHpnrXG3An06S8+ZGk8/eZowWOTz36Zzz9K7TzBkgK5Hr6VxPifSr3UNb8iyt2kaaNrkjPOFHzflgnA5x9K48I1z2CLOPaaS7vmKnc0s/THJPQV7REsKKoWPBAA4GO1eQ6dYD/hJLO33Iw80Zx7EEn345r1kzJjK9u2KvGu0khSLBdGOCOKUeVj+EfU1X89CcfMDnjC5pC2cnzMZ7nIrguiS1hCM7wO2aXKDGZF/Lmqq9/mzn3p8b4YD+lFwuSGRSOCSPpTdxYjJIHpilODxuH02ClLg4AbBHtS1GXZEgSyiknDEiKNCI4WkY5GR0I9awIvK/tRXiSWNdpyJh8xB4544B9K6K93tpcaq3zFI9m+Tag+QfNgdSKzLCBI1uQDvc7QZD/GRyce3Ir3HpQ07foadB8QV5EXkbmH3eOKqyBY4rggky3cot1PoueavrGyyAr1ByOa543L3OrQImWjglVQQOrE8mubAxtGTJga9nB5cC7ACJP3nX7pIxj9AasKr9D+AzSxh4kRNp+VQox7U/Mh5w35VxVveqNkvViXl2YdFngc5D7gi57nBP1+7UOtZia2tz1ht0VvrjJq7Z2Ud5e28U6MyiQOAp28gHP4EcVzXiDUTdazcRxtkFyM57V6eFlekjSGxFp9s93qiTbSYoDuz6nsPzru9Id23pheOSe+P/11h2sMdraxwr8u1RnHc961NJmU3jRqcB42ye4xz/KsI174j8BN6j78AzoQCSe3Q1xfjTw22txBodz3Fu3yR7toK4+YfXvXV6lcIskbRAuSwyH+99AAvFV9RGy6IXcVKqwDAg4IHrW2Lk4wTXcbdtTjvDnhFbeKGfU5H3R/ctgen+8f6V2JuYgoGQMcAcDHtVTI2glmpQ69xk+pxXlSk5O7JlUcnqWDcq3ygrWlocojuZSSMeXnjvg/44rH8zp0IHfAq5p93bW05mup4oLdBmSSRwqgZHUnjrgfjW2Fi3WilqyU9dRmvy7ZCWPIyT/WidPsGjQWsnysV82Yf7bc4P0GB+FVJ7/7Zfx3EVlcXMQ+fJXy0Y5JQ5fG5DjJZA3HbkZz3l1HW7qR7qeO3hU5KwpvbPszcH15Toce9epiaMrWm1Hvff7ld/gdVOSguZkUMsEmoo84jNtB+8k8z7uM988Y6n8KyL50TVWubBFuUD7m+y/Oo9QXHyZ9sjt61q6ZpdpFqNzJMgmaGdDHLN8xHOdwHRfXjA/Ku51eCC5kJCySL1VoHBNdFKNCnBWvL8F+ra+aM5zlN3OAZr+70m6ji+zQxyQyKivmRn3DgHGAh5/2hn6c5M3h29ufCVrZQM0l9E8eUaYiJVG/IAHB6jk5PJGe1eitp8CRmQxeWB3b5f1FVXnjjyiXMcinI/16kj9RWvt5r4Pd9N/v3/Ez5e5zlhb+LIZ7cXMWhQ2/mLujjX5tgPIUdM46f0rojFBqWoXaxxOLWC3FtIxcHexbJ57A7eR71Auo6Tbs2JF8w8MySFifyJP5Vo6ZqFu2y3tYZkjkXcjiPYo4JHXnJ9cVzyd07jSsYettiNJCc7gQcD8ak0WEjT0OQNxJ5rTs20+Yut5bi5RVykZAPJ4zyQOnvTdQMFrNHFY2/kRtHkRtztIJzjk8dO9eRKD9lz9zR1U6XIIyZHJ4PtVTT9o0215z+5Tj8BTZrqOGNpZ5VijXq7tgDt1PvWdaXN3JZW8VtalQEUedNgL0xkAHceexAB9ehOdOjOeq0Xd6L8evluEWvYS9Y/lI2GJB+VePX0rJn1ieR400xYr8E4d0lwiD/e2kH3Gd3Tg0XFvEqK+pTzXW44WExZQt1wI1GW6ZG7cRjOeCam8qa/Ob1PLi7QK5O7/fIxnjjbyvXO7jHZSpUKfv1PeXzS+W0pf+S2e7aZzGPJJresSSRwSwxWjD5bi3nJUHjPOAXI6jbtXOQSeRSabpN1Fcu8FxbHyCUMzWzM00h+85O/kjJGc8EuMCt2/nkjhWK3O2edvKiO37pIJLc8HABbHfGO9SxxLbQx28UQWONAqjd0A4H6V1yzOpDD8tKKhGWiSSfk273vfZdN+qFyq+pqeKYddX4beHGkv9OkgP2fyo1snRl/cNjc3mkHjPRRk+nSuAFvekZe7Ct/0xAAP/AH0rHP4/hXqPjD/klfhfkj/j26f9e715wy4YASEZ6Dj+dclXE1ObZbL7Mf8AI+kmoR0cb6vrL+Z+ZWaK8U7mvZdx4H3P/jdO8m9YcXswPbJT/wCN1OFyuflNPC4/wrP61U8v/AY/5Gd4fyL75f8AyRT+yOV3AyZA4P2uX/Gn/Y2y3MpPb/TJeP1qyS7DOBu9G4/lUUswi2BjmR87I1Y5c+gHf69u9VDE4qcuWNSTfqwcqSV3Tj+P+ZBJawxx+ZPEsqD+Gad5QT04Vs884GOeaji0yOSRZprC0XusKqoUcd/lOT1749uM1bhtpGkE8/zTdhuO1e3A9ffryeg4qx83p3x9a1lja9NcsKrbe7v+C/z37WV7z+7bu6a/H/MpnTrb/oG2PuNo/wDiasxiSOMII0G0YUK+AB6fdp/JOMHHejDEcg8dK5KlarU0qTb9Xc0Uqa2pr8f8xoe4HBWMn2Y/4e1IZJck+WmB3LnGPyqRQwGGHB98YpjxNJg7iCO+Ac+tZWH7SP8AIvx/zGu8wGdsa9OSxP8ASgNOcDETDud3/wBapDGW+8ATnjHFROEghMksoSNTyzHAH4mmouTSW4nVgvsL8f8AMy9Y8RRaLNCLqGVvMyQIXGOCOucU7QPFMGt61BbQwSoyBnJkx6EevvXNeN3SSezJSVUCtgsm0tyOx5H4j86i8BxQ3XiVYZYEeMxOSrDcGxjGQeDXesHCNHmqys+2737fmm0zKriEqkoQgrcr79YXfU9RGqLMSLKOS5Y8BkXEf13/AHSAeu3J68HBpRb3c/8Ax9XLLH3itgY/wL53HHHI257jnFWtsnUAkfWl+cEYbk+rVze2UP4Ubeb1f3208mkn5nh+olvBb2sZS3gihjJzsijCjPqQPpUoJYEBQQPaowW+p7AcUbyTnbgepOawleT5pO7C5BcEme0ymB5p4Bz/AANU5IB7+wxmoph/pFoCMZlJ/wDHGq504/kaSutjqqyahTs+n/tzK5LE8D9KeoyPmC/iKlIbPRiPpTckA5BouY+0n3G+VGT1x9BVDVIyFg8rDN5vQnH8LVoeYo7HNVbtYbl7eObcqBmfI7lY3Kj8wKaabSZ14OtP2u99H+TMr/SVH+qQD2kP+FUvE2qnwpLZJfw+Y13ALiPyXztU9jkDn862HOFbBzkHvXNfG8bda0ZR0Wx2j8GI/pXRRpKe/wDW56M60Yxk+RaLz7pd/M5TxN4mttcs4YYYZo2jk3ZfGCMEdq5iiiu+EFBWR5Vas6rTatY+n/2cf+Seah/2FZP/AEVFRR+zj/yTzUP+wrJ/6KioqzI50BdxALenApdp/hYZ9x0qDeOckNj0alDqOh2+2a8axBNnIwSuPrSmRxghgRVVpcEZbP8AwKjzPVVz/tNSsFiyGJwcD3zTizLzsH1zmqBEjceYq+wzVaSI7h/pMgJ9GxSsIyfF4tbh4HvbJwsX7tbjzCF2j5jGOwPzE+2al8DajokenXllbxzrqPnmVCMvHJFjABP8LDnnGD+YrQ+zF2jEs8k0UbMyxSMJEBbGSAw6nA59qda2CWglS1SVUnI3qoAHHI5xkV2+1j7Lle5V1Y1zKxB/dYPrjNclqlxcf8JDtwm5YZZYxMEKRqF427ujEAt1zu6dRW2YTnG2f/vv/wCtVTU9IgvbUeR9oivGI83zollicA/d4YMAcc9e9Y0JKM7sIpdTPstGtovGytaXAe3Vn+zXEhCLc55XGSMcZGe5HbNdZlFfawGejEVk6vo9trCtK1hdW+4gJa2twRHGAAMEMMnJH607SrKez06G2jspoRHldskqyZ56g9QPY9KvEctT3upU4pbM1tyY4Cg+mT1oWWIEqGH1HaoFS6IwYVXHUECnbZ+vlJk9PkFcvKjMsB1Zh8wp4WIk5kQfVuaqbZQpyhHttwP50haQHle/XdS5UBfJi4IkB/GnCRducrj+lUC7g42ZP+/SqxXB8pvb5xijQDedbcW4up5j5awoiRpgk/IAfoMismKVWaNoyQPJ3MrHnPyj+lE4vL7TY7a1jeK3UndK6kq5PJAPTg5pJLS8hhWW7KuscexScZYdhx1x6+1ey9aPy/QvoSySMbWdwcBEPPv0FZFpZSSxrDbnbKMyhvcEYP51fiurVG23UU/kSAowjUlgTyDjuQRWboeqTz+OhDDCVS0I3i6KxDa3GTknPUHj2rHCW9mEHobb3u47jjcTkgHjPf8AWmm5Ocjkj36VFc4iuZoTEUMbspUrgrg9CBTPMjP8B+m0ivOn8TM2zb0NzJdzNLgQxwNI7ADIx9frXApJ511dXRUBVjd1UDAHYV0d3dSjSXjicxJPKI5R3ZQucZ9OaxoYAlheluC5EI9+hr08MrUkbQ2N1mfcMA4POR9K1tAVmvncrwkLZP1wB/WskXo2gKhwvyjJ9BWlo2s2FubpZJi9x8o8iCNppAMZ3FEBYLyOcY6etcmFozq10oJvroZJq5p3T7AVwnmnBQEruP0FZ2sSlr0MF+9GuST3Ax26Vm6kb283ONK8onq13IuRnoVEZbOPqvbB9K7NPfQwNqeqXU7bduE/crxwDlfnPB7scnJ9MeliqCVN88kvTV/hp97RUnoSXF3Da7PtMyRs+diM2WfHZR1Y8jgetRC6urji1smK9RJcHyVPrxguDn1Ud+emZ7ZLGzDGCGNGf77qvzOR3ZurHryeeTVpbuA8cnnrmvL5qEPhjzeui+5f/JP07ZmebK7nA+03oRM/6q2XbweoLNkn0yuw9T6Ylt00fRPN1K5hUGGPLXBBklCswQtubLEANj6cCnX94ILGeS1gE9wqFkiLYDEDpmvHdWupr6+mkku/thGN85BCjJ/hB5Azx68V0UKtWpe0uVdlp99t/ncuCSlc3/GfiqfVruOaBpILPBWBFcgyKDgu2PU549K0vh1c3N1b3kUkxeGErtUnO1mznB6gcdK88nuXnWFG5EKGNDjnBYtz+JNeueCEig8J2h8pVeUu5baAWG44JPc9cZ7VWItClZFzlfVmxJCyPK0almlVVA9wcH9MVvf2Poz6bZST2dtPcm3RWldRuxycD2yxrME6iNiULF/kHzYAJ4xn8q3tbmWyhhXzl2ooXKL14xgegrbDO9JNgtjLfSNJwNlrAc+2f55qJtJ0uMhVs7UsfSBP8KqyalGwBWQSHuRUK6ovnKoYAswQHr7f5+lb3CxqQTC3bZGkUPYBRt/kKh17ULfS59P1KUbYTC6FVOTJIucKPchh9KwL3WoopzHEhndGxIVCnZjqvzEKXHGVzkZ+uK2vbtU8N2txf6hFp8dveB42RS21mRtx3dXb5flAC9SPm4I19k0r1Hyrz3+7f9PMV+xyviXUrCa4sFhs5Jb2CLZeSXEqyRzN8pwu08JncOxxjvXT2Oja5p1vp32uDT9NhmWYILQly2dpxjcVBxkgjI65Brz9b22jtLyzks2+1HabeXkPG4bkEdTuHbsa7Tw9qFxqNhNdXhitTp1pFp8csjfLuRmbLE9OSq1zTdOMOWlG76X137Lbrs7g27anQw6faQyLOVMtyucTyHc/PBwT0HXgYHJwKr29xK1rBb2kfmSiJN7nGyIlQRu5yTjnA9s4BBqwi3WoKC4ms4SBkYAkkJ6j1VcfRv8AdxzZ0xVj0y1CRqB5StgAAZPJP5nNcFRuMlKs+aXbdL+uy079UVH+BK3eP5SK0Fm0TmaV2e4IwXZiAPUKM4UcDgdcDJJ5qyC/GWX+dWN7Z+ZVwe2eKpX0xkeCzh+R5zl2U4KxrjcQffKrxyN2R0qIqVep7z/4CX6JdF8jC1ivZs1xPJelSyt+7t8t/wAsweWH+8ecjgqEq+DnnGQOtAWOJUiSONUUYCjjAHQD0FOEkY/hANFaopzutunp0EdF4uz/AMKs8LY6/wCjf+k7150Bx+NeieMP+SV+F/8At2/9J3rzrPOSeamr8XyR9HW3+b/9KY7aDjk+uMmnD6A1G3BBORj0qCSZ/N8qAKZFGHZjhU/Tk98fqMjKhTlN2Ri2kTSXIjfy0QySkZVAP1Y9h16+hxnpRBCU3O53ytjdJ0+gA7D2/mSTSQxLDGdzneTlm25Ln17f/W6DgU/58cA8HqeeKuc4qPJT26vv/kvL5vpZJN6slBOcgdfwoxxu27iOuMc0zLdMHPT2/OgZ2gEk47nrWJRMcrgfLx6HNMYhlOW254znBppzwO3Tr2qs96u4pGjTuGwVjXIBHYsflB9iRWlOlOo7QV/09e3zE5Jbl7dwMkHHPvVea8toH2PKBJjPlqMuf+Ajk9+lQut26FriVYo/4kgBLH23en0APv6zwxRxLsijVQfmOByx9ST1PqTzWnJSp/G+Z9l/m1+Safcm8nsNLXlwpAiFujdSxDSY+g+UH0OT9KdFZxJL5haSWVekkrFiM9dueFz7YpwOGONvzdcmlLFeNoJ/KlLETtaHury/V7v0bsNRXXU4f4hf8fVj/uP/ADFQ/Df/AJG6P/ri/wDSpPiBk3Fgck5RyM/UVV8Alx4k/dyeW/kvhsZx0rWP+7f13JqpvEtL+X/2w9oLMB8qLk9zxSCQYG5QT7msvzb3Yc3Y3Yxlo8imFr0j/j9AGRkiPH1rk1PP+q1OxrFgQeBx6VEGXJJRD9KzQb7Cn7ajDPIaPtShZnOZLjj0RMZo1F9Vqdi3PJH59pgcCU/X7jVP5m48AgfSsuK3jjvrV03u5cglmz/A3atjaD1jwayk3c0xNN0404vt/wC3SI8kjhsUnllupzUpRO+cmjy48ZYUtTkIvKOchqp30wsxDM77E3shb2aN1/rWkEhByOM+9ZusIPLt+Sf33Qf7rU0ranXgl++Xo/yZQN/ahCROmAP4m/xrn/jRcR3Or6Q8Ryn2PAPr8x5roXt1dssAR3B549vSuT+KuwN4eVEZcWHO4dTvPP09PbFd2Getv62Z3VF+7m/L/wBuieeUUUV3nln0/wDs4/8AJPNQ/wCwrJ/6Kioo/Zx/5J5qH/YVk/8ARUVFAHA/a4y+1rS9XjOTEcfTIppvbFQGeK9AJ6GBuP0qwskfRSRnn9aFcZzuf6Z6V49zs+px7kX9qaaqcPMBnkGM5H14p41XTSpxMVwM8gjFPEwB++Rn3pvmqejYHoaWhP1NfzDjqOngAm5jXjIy3apBd2bcrcRDHfcDUDMjZyin1JUU0xwNjMUXp/qxRoL6o/5i6LmEEN54AHX5hipFu4mwpu0P/AqzPs9s3W3i/wC+KBZ2mci3jBP91cUWQvqcu5siSEkfOp49f/r09Qu8ncv1A7ViGxs2zm369cM3+NTCC3CFfIOD1+ZsHpT06C+py7mo1zEjEeZGuOoJ5FNF7bnzB5q8dfm9Kz/JtSMNar+OTg/nTljtcMRbKCTnIXBo0BYJ9y6NWs1GDcxj2zTTrNg4OLlHOMkDOcVDvRQAIwOOPkFP+0NwcvnP6elBSwXmA1e0C5UyYI6KpP6YqJtaTgLa3hYngiJuf0qf7S5A+9n2FDTt/HuwMEZ60h/Uo9yub+4ONmm3Jz32Yz780wzXTNhdOuT33EKB/OrRumBzuJ9sf19aQ3S7eSenpQUsHDuWxreuWmkQ+RbtHb24IZw6A5ZiSiqeXfHI5UduSK5DTfEeoa3rV39leYQKu8Q3Eqhjk8ngYP0A4Brp01ezh0+5t8eVJc7Y5pZAxBQbtrxkKwSQbypyCCCCCCDXHWk2kaXrcTxfazHIoL70ywVuh3LkEbsdQO/SvRjLmo8qetjF0lGdraHVwfbklK3cUc9u6MjRiQBweqspIxuVgCOx6HrmuI8Rmyi8YQyRzG4igkTzzGu3gEEque4BI/DFdade08L/AK11I6ko3H6VyutWg1K8M+mRLOHO4khhg98MeCCe2cipwcKjvpp36fN7IutShGKUDsnae7LXFtq5nibLRSNGfmU9Mg859c9MUiQXOcNfsMH+GPr698VTgmuxbxoEitI1UKUjjaQjjqpOAPoQ3uTTvKtnP+kRT3Pr9o5X6hcBQccZAH6monSpqTc5/crv9F9zZcaUWl7uppR3tq2ibILhr+QXLMREpkK5QAKSoIXJBxuIHB54OFt7LVrq3ZTaRWaIkk5e4BckgZI2ggemDuPQcc8a2j3emR+H9Xm1SUQ2sbRb5Gdl25BA5HIORisuG/0BtLmXS5Y5Z5ZlLSZkYlBn+JhyM4GK7qdenCjzQj97v+iX3pmDp/vOQzX0tZgRNf3soPGGcAH1yFABHsc11/g+CHT9JMcLuyG8bKtgBcovTAwB1rmvOPXMfauj8K3hVrq1EEk/mFH/AHAB24yCTkj1FcdHEVJzUZPTtsvuWh0VaMIwbii5q6t5hghUDaOvqT3rD1O1jLRLK7DEe0bWwAMn/wCvXRa3c2FnOkdxJNHNtBIWLcRnpntn8a5jUpY5ZIzBLI6BOTOgVgcnjAJrbFNKnYwoR5parQpHTLYuD5twCB2l4oGm2o/5bXPPYynFOCSH5g4IPTimtDIzBt3T0NeYdvsodiT+zrfbgSTYPBxJ1rzjX/DV/p198llPJaTO32VliLB1yc8juDxzz9BXoohl4+eumieQeFLW0dLiZm8wrFGoIc72xuyeBXVhPiaMMRCKjdI8e0XwVcXLW8+qHyIHdQIg3zuvGRx0zXbf2NaJGsUU1xDGgAVUlwAB0FTScXIidke4AO8qMLHxwq9sDuaryTR2+xZZGBIIVEyzN64UZJx+NaYiMpyUIK77E0Ixabkjf0a1WD7KiSvIXuA++Vt3AOOv4Zp3jDVliRPm+RwZN3CgqDjPPQEkAetY9pqFxLNDB5U9rHHtWR/L82Q85IULlc4Yckn0KkVW8RywrEIpGlutWuCDPcXUOx4IgMJGgKqFyOpUDP412wjSp017Sa9E0/x2/P0FLDVnL3YO3oznX1KRld4U5boxyAPp69QfT3q9o9vFqNt513G85GEXGNioMg/KeMk85OTnGMVmS28k0oiQEksBwMkc+n612/huOGw0e4gEV6qi5cxOtu7EpxjJC9eo/Coli1FNUbRf4/f/AJWKWDrbyg7ejI47aCDZFbwxwHjbuXfj8D/9eneKNLl1rwulnPOIphOJlZU43KpGCB2+bt0q1JcIJ0ZTeRgryZLVtzfTC8fWqN7d+dBaC0acQtCCbl7Vzu+ZjiMEAHqDu5HT73OOak5SUm3our2RpLDVOZLkevkefnR9ZOoW8bPAzoGWOSLnGesh44J5+Y88HAyAK66x0s2FvAFuHjEXCIqhkQ4xn1JxkFjzyegJFXYXtoEKRLMQTksySMxPuSCTwB17YHapDdx84EoPr5Lf4VlUxSty0/v6v/Jf8HWzsbRy+f2oP7mIHvFLZvm+bgFo+AfbmizkuxaQ4u8J5a4ATpx0o+1oP4ZCc/8APJv8KjtblFtYAVkOEUH903p7DmuPmVzdYB+xkvZvddH2ZPJNdqHd76NUXkny8ADHOTmqtit8we6e7KS3A3MHjyyj+FfbHcdiW9abcXUVzdJakSeUB5k48pvmHRVIx0Jyf+A4PBqeXUYII2lmZo4x/EyMAO3JIrq+CmoL4p2+7ovnv6WtucywDbb5HZeTJQbtlAe4jzjnalNe2jkx5kkr8dN23NV01mylXdDJLKo4LQwu4z6ZAI/CojqkzjEenTow5Jn+UfgV3HP4fjS+q1V8S5fVqP3XtcIYaN2oxu12TZ6F4x/5JV4X4zza/wDpO9ebNuYDBwPfqBiu48Wxaw/w28OtPdWUdoxtxHDFC5kUeQ2GMpbBJAzjZwTjLYy3nEVu9ywdrq5aEDK/Ps3n1G3HHv37cfe6JYaD9+VRJJK+jb222Sb+fd7I1rzfNZLq/wD0pkwO1ZFt5ViRSTJOeckdcD19T0GMYPOHRXdpHGqQyGZVzxCDKR3y2M8k56+9LFp1jAU22kQdeVO3njvn1qyGDKpIOD6jp/UVNSphrckVJx+Ufv8Aiv8Ap0MUp7v+vyKy3M78R2rfN915GWNSPzLfp9cVJm+cjL20IH8OGk/XK/linSXNvA6idwrkEKOpJHZQevXoOaZ5l1MP3MKxIekk55+oQdvqQfanDmceeNOMV3f/ANs2n8lfsge9m7g9uCu64vp3jUbjucR7ffKgH9ajh8sOz2do0jnj7Q5wGHu7ZYjpggEdPwkjsoQ4kkH2h1bIeXDEY6Y7L+GOlWx1yAB7U5YpRXKnzeXwx+5Wv66eaBQ67fiyubSSXP2mdpl7xoAiH8OpHsSQc9KsKuxQiqAFG0KOAAPajOcZwSD0FAyGzu4H8OB/OuSpWnUVpPTtsvuWhaikPUg4XH4/5NIGDMVyuQOeOmaM8nnj0pzMc4Bxjr7VkUIAVzgHI/vmlUKkaqF2r1HHAoJOMdOcdaMtuwPxoA4Px+264sThvuP97vyKq+ADjxKP+uL/ANKt/EIYurHkH5H6fUVQ8EGQa/8AulLP5LYA+orsj/u39dyZf75/27/7YesBuu4AUbhtyMEn3qmEnBwW56nijZLwN3bpXJYZcL84PXvSFvUk81mS3Udu4Sa4RJCMqhb52+i9T+FN+2O3+qt7mbHX935eP++9ufwzW0cLVkuZR07vRfe9BOcVoasRzqFpjHMjf+gNWyQx6p+tcrb/ANpSXtuoW1hYMxDFml6I2RjC9s961TZTysPP1C5dW5aOPbGv4FRvAz/tZ9SeaToQi/fml6av8NPxXnY5MfK7hp0/9uZoyOYYmkkwqICzMSMADqSe1URrViw/dT/aPX7Mhm2/XYDj8euDTU0uySRZDbpLIhBWScmV1x0wzkkfTNXNxx2/Op5sNH+aX3R/+SODUq/2heyfLFpbow5JuZkVfzQuc/hj3rO1ManLFBuuLePMuQsUZDKdrcb2JB9M7Rn2rbGSOoP41Q1RCUtwcf63/wBlaj6zb4IRXyv/AOlXOnBq9ZX7P8mY8UFxGzPJK8kjDDEy5BH+7wo/AD+dcv8AE7UW1K40h3BEkVs0Tn5cEhuCNp4yCOOuc12X2dG65OeuK4L4gRpFc2KoCBsfr9RWtKrKdVcz3/yZ6MoJUZ+n/t0TjaKKK9A8o+n/ANnH/knmof8AYVk/9FRUUfs4/wDJPNQ/7Csn/oqKigDido4O9uB3pdqgZzwDnmoNrA8HmlKse5/CvGPXJWVccYHNITGDwy5+tMKFupP59KVY+Qc9uKAHkR4HTnv60ApjqucZ60wxZJJPvilEIzjp6UAP3ID1FAZQOxH1pPJAI6/l1p4iDYyFzj0FADVkA7c+xpHbI4QsDjgc1II0GPkUj2HWnCOPpsH4dqAI/OYfwn8qQ3D4yFzU3lRY5Uce9O8qEDO0gexpAQfaH4GP0pfNJ9RzUxjjwMEjjkdaNsG8fNjJxnHH44oAiyCaeioW+YflUMt5ZRMFaXDkZCBSXYeoUcn8u1RNdvIwENpID13TsEUj8Nxz7ECt44apJc1rLu7JP0btcnmii+Ps2D/rQPYCo7iTT4F3TXTRqTgGTAH86pm3ZyBcXjEH+CAeWD+OS2fow+nXLora2t3LxIBIRgyE7nP1Y8n86fJQj8Ur+i0+92t/4CwvJ7IeJd7D7JbTS543yoYlB7g5+b8lP88PEV7Ku57gQJ12wpuYH3Zxgjv90fX1NwAIDtknPX/PtTQ0hOPNbmj6xGP8OCXrq/x0+5IOVvdhFp9tvDiNZpFIIeRvMdfTBYkj8KvKkuOUYn6VTVSSD5mCPc1Kh24BmJ/4EayqVqlTWcm/VjUUtkWCGDcp24NJlf4sjjoAeafFcug6ox+g6VJ/aUpypt4z2wrDBqBkb3oj0a/0/wAmZvtoVS8Y+ZVHJHI6HAH19a5/w3HLb2clrcaVcRMshdJm3HK4A2Beg5Gc1vCWRsgWxAzn73f/AAq1G8jDItCQeBhmrRVpKHJ0M3Si5c/Uon5uVt5cdOUwD71q6FJYWseo3WrSRWtpHEgaWcDjLZwvvx2BNRM4GC0Mqt6ZNZ9/BHfRNBNJJ5LDpjn8waKc+SakxzjzRaLM3i21lmW+0bRPOso8s9y07LIVHfCg7Rx3B98cim3CHes4S3eC4JkhljkDo65PIZeDg5B9CDWND4ftbdUS1vLiCIElo1AIcHqCeGA/HirOlaDBpVs8UN/KxkkLtmMfl1retXhUj5mNKlOnLUtEj+5H/wB9UmRjOF6/3qla3hiVpJr1tgXLFkAA9z6VUeRLjIs43nBAxK6iOL168sRjoVUg5HPXGVOlOprFad9l970N3JLckDDHLqD/AL3Q1pz39tfWVjpemXH2m7SAGW3s1ZpASTkMxwqHOeGIPHuM47aR5hzdXSug5ZQnlx49cDnGOoZiP0ridQv5ryWXULAXEVvbAQ5U4QMyhVK7Bn5tn3TgfKOa78IqMG3fmflovx1f3L1OXEt2XQ7RtIvoLWO4klMVrOzqpjDYbacEB2wSD6hVPoeOWQwxQE+SI0Zxl2A+Z/dj1J68mq/h9dQn0FBdmRMyEmAZVVI4B2k4Bx6AfStL7IRnLuB9KxxWKlOTgnaPZaL/AIPq7s0oU7RTJ9GcGcBg0hN0DtUfe4XAH8qqeJopH194uJbnINyy9DMedo9lBA/CtHwx83ia3sIow1xE011JMycqgRFQKx6tuboRwOatavaWWjRzahcX6btzeUjnBaRs9SfxNdOGi504pameMdqz9F+SOZtLRllL7fn2tt5HG3r/ADrr/D1zbWelSpK5N5LO2y3R8yTHCgbFyM8YyeAOpIGTXBWepyeYsdohnlCyIXVSyjPuBg9e5A9SK6vwncarb31xbxWaySXaDc19cLGSUyRgxq/YtxgDnPUmulYSVOopVdLrRNpN/f0/rzWKfNTaRburGfUmP2lU8sncLFYd2fTzDk7j7D5QT/FgNRrsUght4EBVolG05OQOSRt/XP1q3dadq0zgXN/DACclbaE+ah7AOzEHnjOwZ54HbG1rT5vNQS3t9ct5aDzHmMfXdxiPaPTkgnnr0wsVGDi3OasuiT0++y+d7vzJot8ySRmTeZAhklmjjjHLM5AA7VWW+Df6qVpV/vQRtKufTKg4PtU8dlDbyLJHZ20Ug6NHGoI4wecVY8yUBRsGD0B5ryb4ePRy+6P4Wl+fyPRtL+v6RS36k4XZayq69fOdVU/98ljn8PxqHdqEdgJ2lSKFVARFi3Ow6DaScZPbjqcc1qxvPK4SKMMxbaFXufSrGi+H7nWZEHnQQ29usTOWYtvcoGA2j0Vlb6lecqRW2Hmpz5lBJJXfXTT+Zvd2Xz7FStGhK76r8pdjFh0qZUL3F1O0z4aQpIUG7ABxtxkcDr6fWpo9NihmWRLaISj/AJabQWz/AL3Uk16RD4KsCq+df3DseuxVAz+OefrU8ngXTmTdHeXeT6qpqqlXFVL3lZPotFbtZaWOdToo86CSbfvfgaZI/kIXkbao/HPoB6k121/4Mhs4N8d+7zOwSGBYQXmYgkKvzdeCecAAEkgAkZk/gXV7e3Go3P2cKil1gMoDRDHOexfHXBIHIBIyWxjhpJc8/h/F+n+ey83ZO/bQeiepY8Vx3V98NPDkt4nlWS/Z44bVgCZP3DfvX646fKo6A5b5iFj4glcD6/dNdb478VWVv8KvDpgjnuEhNujTpGRDv8hxsDnhjwwO3dtKkNtOAfIz4ytpjmdLvHZIiEA/EHJP449q6a9CpJr2nuxWy3f3d/W1zWcoyk1Fq93fVL7T7/8ABOqa8hBKAtJIOCiJu+gPYfjij/SrgZMiQJ/dUBmH4/dH0we/Nc3F4106GPZHZzog6KoUAfhmnnx1ZEY+zXP5L/jXP8H8OHzev4bL8fUXJfeS/wDAl/mdLHbQQqfLiGW4bdksfqTyfxNTAZOSAPTAxXKDxzY8f6Nc8HP8P+NB8dWR6W1yPXG3/GsZxqzfNK7fmUopaJr71/mdYcFcg47dufakLqAq9C3QY61yo8d2IBH2S4P1x/jSDxzYLnba3QB7ZXH86n2VTsFl/MvvX+Z1uC2flJHsaUg44HBGK5L/AITuyxzbXP8A47/jUq+OLUgMtjdbf72Bj881UMNWm7Qg2/JBZL7S/wDAl/mdRtIAGO/AzmnYPAAIJ9q5X/hOLDgNBKp9Mg5/Kqb+PA+Nlu0OOvyiTP6ritlga287R9Xr9yu/wIcoppXWvmvzvb7zthwT8vA4PNDSIoLNtVAMkscDA65/KuI/4TG0ckzf2g2eqoURfwx8wH4/XNOXxfo4ZXbTZXkUg+Y4DPkdPmJJp/VoR+KTfotPvdvyY9ejX/gS/wAyDxxNFeXFm0EkbgK2SrjGcjv/AEqLwFaz3HiZYLTyZZnhcBZJDGuO+WxVLxNrsOuSWzxRyJ5QYHfjvjpg1S0TW7zw/qIv7ExidVKgyJuAB68V1wdNUeVU/vfn5cphUmlieZy6Wutvht5/M+grDwVqFyE+26zBbx9dlpFvcexZ8gj3wD/KteP4caLKc3N9qNyx4bzXUqfTKD5f07Z614VL8VPFExQvcW/yHcMQgc4I7detLH8V/FcT71vI8/7Ue4D8DxQqs4/AreiSf3rUzcU96i/8m/8AkT3gfDvTbcGOzuJIU648lACfU4xTX+HU5Tdb6hEyn7okjK/yzXh//C4fGH/P5Bj0+zrUM3xX8V3ELxSXkexyC22PaTj3BB7dKwnDnlzSV3/XmWnZaVF9z/8AkT1bUtDvtC1OxW7MJ3ysAY3DfwHOR1HB71KxLdByfQV4lqPjrW9U0uLTp5YlgiJaMxptZSTk/MOefesT+0r7/n9uP+/rf41zSwbk7rRDrypVIwUpapdFpu31a/I+htrHGfSkbIxwMV89f2lff8/tx/39b/Gj+0r7/n9uP+/rf40fUpdzm9nQ/mf/AICv/kj6EIXOdv6VQ1M/LbgYx5vUf7jV4V/aV9/z+3H/AH9b/Guh8G31xJrv7+6ldBEx/eSEgHI9ameFlCPM2dODp0vbLlk27Pouz8z0nJyMDArgviL/AMfVhnGfLfp9RXbC7hB/10ef94VwvxAkSS4sSjBgFcZBz3FTh3+9X9dDtq0qkaFRyi1oun95HG0UUV6p4h9P/s4/8k81D/sKyf8AoqKij9nH/knmof8AYVk/9FRUUAcGJwVGNxXH9w0ouEX724e5Q4p0ABgjIU52CpQgx0/OvFTdj36iowm4pPR91/kQi5iAVjuw3T5Dz+lKLhQejcf9Mz/hUqqoUjHHpShEweOPajUi9L+V/ev8iEXa8kKxJ6fIf8KU3Y4+Rv8Avg/4VKEToAM0BBxzz70aj5qX8r+9f5EQuVx9xz77D0/Kj7WOhR8emw/4VNsAIzxn1o8sA/7VGoXpfyv71/kQC7AYkhzn1Q9PSl+1gn7kuO/yn/CozeQPxblrlj/zwG4fTd90H2JH6ilMd7KdyiCAdg2ZGOfXBAB+hP8Aj0fVakf4lo+uj+7f7kR7Si9ot/Nf5D/tg/uv/wB8GoDq1qXZEkZ5F4KxqWYfUAZFTDTInwbiSS4HTEjDbj02gBT68j+VPggVJJEUxiNWCqoH+yOntRahDduXpovvd2/uRSUZxk4pqy736pdl37lM31zKT5duYR/emBYj/gK9f++h/ixl3cz3Fw/qqgxgH22gH8CTWv5XA24Pc59KinjIhH3cll7YH3hQ8VOP8NKPotfvd2vkx06dGc1GSer7r/IpxeRbrtgiMak5KpFtGfXgU/zFOB+8+mw/4VobOnA59KUD5h8q596wlKUnzSd2JOilpF/ev8jOyvTbL/3w1ODR5ztk9fuN/hV1Ygo4QDnotOwQM4yO4qdR3pfyv71/kUw8XUJLg/8ATNv8KeJIzj5Zfwjb/CrC9MZJpXLjlWGCehGRT1Dmo/yv71/kQiaPAAWX/v03+FL9oQfwS++Ym/wqYyZXAIz64pvmADJPI6npmlqHNS/lf3r/ACI/tKbidkpx/wBMm/wpDdRLjKOBwM+W2P5U/wA5Q3bPX6VDcTqYV4K/Op5H+0KHcumqM5qLT1fdf5DxdKORHIf+2bD+lOW+A+XEuQeio3H6UhuV69zQLgkDpRYjmpfyv71/kSf2gxyAZ+OCAr8fpS/bmJP/AB8fjG3+FZ/25Y5p40V5Zd4zHGMkfKOpPA/EjOOKZLdyEj7VcR2Mbk7ULhXYe7HpweQvI4w1dNLCVZ2vpf736Ld+treYVJ0IOyTe3VdvQuyalFCyK/mh3ztXymLPjrgYycUw6ldzE+VB5CDo89uzFv8AgIxgH1Jz7VVt7i2jLG0immdurqjHzMesjcEDnBJ+lWBLfSY8uzRV7ieYKc/8BDDH4/hXR9XdP4Y6/wB9pfdFv820Y89JvVO3k/1sOjSzDCSeF7qYEESTwsSpH90AAL2+6BnHPNW2voscW7k+ySVWW0vX4kvEQY4MEIVs/Viwx+H40v8AZaNjz5riYngl5mCsPQquFx7Y571nUtN3q1b+ibt8nypL0+4pOktoP71/kynr1/CdOkzDIoA+RXcort/dJOO2T+HSuctYUktAxsLx52QgSW4ZRJkgbDICRj3x1Hr07KLTrW2ctBbwxORjciBTj8Kk8heRhR9B+tOFelSXLFOX3L8NfzMqtKFR3s187/ojKg1S6htoY4NEaBVXDIH2qD3IOGLEnqTyfxp39o6tICGEkSHtHBll9MMxIPpnb+ArYXaCThfpioJ7xlk8qGMzSsuQoIAUdMsT0H69cA4NKNaU5fu4RT9L/wDpTaX4GlqMVqpfev0iO8OnTUnurvVzfR3JZYorlJJo3YuB+6zEVHVQcYyeOuOKuoRWE2okxWUenWiEg+TamORxnksygEL6Ac8Ak8lRqaTbCCCO+uQGuvtxTfgqAhtyQFBJ254J554z0GKmoAvHcP1Oxjxz2NejTxdeFNqE728ml8lpb7l8ia9HDyrwTi/eUeq9OzGSy29qzrDGykYQxiBl2j0xgY4NXPDt+B4jsGeOUqHJZUhd2wFOcADJ602aGX7VdzNLC8RuGiVUPdVTP6FR9Qa0vCyg+J4HA5S3mOfc7R/WvNnOUq6vvf8AUuFKhGDVntfdfy3/AJTor+4hubeKeE74ZEDocY+U8jrzXO+JJN01n+8I3QhiAO4JGf0q9DzoGnAdTbRD/wAdFZmqN58VmTkFUZCcDBwx49e9dFeV6N/Q4YwUMQ4LZNmMckEGRwPXBFOKH7xuWGR3FSsG+8vJ6dSB+NCwv1dst3UHj8a807CpI7WcqXENwxuA6rCMdWzxnIPA5J4JwCe1WLO61HS7CO0s9TCxLk7Rbp1Yknk5PJJ71WhhN7dNcY2pCzRxgH7xBwzexByo6cZ654kubiC3IjZj5uA2yNS7Y9dqgnHv0rrcKiSo003Ld279vkt/NtPYUalk27W80n+ZPHqmpx7IV1OYKgwMMADx3O05/GrU3jK70+ONbi/m3twgE8SZPuTDwPfn8TgHDuPttxIsEaLau3zdndQf4m/hHI4HO7/ZwSLEGmJESSrvIScyS4LnnPBHQewwK2UFRtOvK/8AdT1+b2S9Lv03SdRy0jFevKv8izF4g1aVkuzLdSX20xi5k8uNFBJxtiMZbsNwJXdtXnAG2hNHeXN0895dfandMP8Aao1mUE8narDC98EDIBxmrzQrtXMeWGerHn/CkFugAAU59euKznj6rfuPl9N/v/ysvIcYpatJ/Jf5Hu/hb/kUNF/68IP/AEWta1cnoXiXRrHw3pFnNqMLXyWFvmzgJmuOYlPEKZc8HPA6c9Oa0P8AhIZ7njTNC1O5B+UTTxi0jV/RhKVk2jgllRuDxkgivQpYeq4J8tlbd6L73oefimvbz9X+ZuUVh/8AFVXP/QG03b/11vfM/wDROzH/AALOe2OT/hHJJvlv9f1m8iHIj89LbDeu63SNj34LEc9MgEX7GK+Oa+Wr/wAvxMLmreXtpp1q91fXUNtbR43zTyBEXJwMk8DkgfjWV/wlukzcafJNqhPCnToHuIy/ZDKoMaN0++y4BBOAc1PZ+GtGsbpLyHToWvkzi8nBmuORjmZ8ueDjk9OOnFatF6Eejf3L8NfzDUw/7U165/49PDnkbfvf2nfJFn02eSJs987tvbGecH9m+Ibj5LrxDDDGOQ2naeIpCfQmV5V29eAoOcc9Qdyij29vhil8r/8ApV/wCxh/8Inpkv8Ax/Ne6ju5lS9vJZYpW9WhLeV15ACAA4wBgY1bOytNOtUtbG1htraPOyGCMIi5OTgDgckn8anoqJ1qk1aUm0FkgooorMYUUUUAFFFFABRRRQAUUUUAFFFFABRRRQAUUUUAFFFFABRRRQAUUUUAfMcLSiBMImNoxlj6fSpN0vdI8eu8/wCFV0dRbphnB2jnYSP5U4SKT1dh15Q/4V4itbc+nrwn7WX7rq+kv8yRZZWAIjX67j/hTt82cbI/UfOf8KjDqOgcf9sz/hTvO7bZMdc+WcZouu5lyVP+fX/pX+Y8PKAf3cY5/vn/AApCZifuqDjtJgH6/LUYkJyCGxjjar5/lTvMPA2yEZz9xv8ACjTuHJP/AJ9fhL/Me3nbGVUjTdnlW6e/3arfYEbJmt4pz6zSF+e+ARhfoAKsedg/dk/79t+fSjzgV+7J0/55n/CtadepTXuSt6aCdKT3o/hL/MdumAxsjx6bz/hTjLP/AM84+mPvnP8AKo/OH92UZ6/I3+FAlwchZMD/AKZt/hWWncfJP/n1+Ev8x3mTAAeWCR3MpJ/lTY5Jd8x8tPv9N5GOB7UNKrDAEoyOgQnH6VFEwUuuGI3f88yD0GOg4pP1NacJ8s/3XT+93XmWBcSnICRdem8/4UyaSUooZUA3rkh8/wAQ9qaNu7IEgGP+ebf4U19pVQPMB3KOUI/iHtQ7dxUYT9pG9K2q/m/zLvmEg8fjTDJIJMcFe7Y4/nTfK4xz1pTCMdcZGOOMfjVnASB8jG4n1zS7iGAwNvXIqGOIhBhy3GNxPWopLmC2cJPdwxs3IEjhTj1qoU51HywV35CckldlvgHI3dODik3DfjPIGfw9aoi7JZmhtbxnx08koSPXLYB+nX2pVnv5QTHBHGucfvZSWT3KgYP/AH1+Irb6pVXxWXq0n9zd/wACeddC8QQOc4HrRsJ4AJ46AVU8m+k4kvSuOnkRBfz3bv6VFPbWsMO66eSQMcFZZXIkPXGzOCc84A+gqo4em3bnu3/Km3+PKDk97feWLiS2hUC5mijWTOPMcLn1/Kq9zeW4g3LHO4VlIcRkIRkHO9sLjHfOKdBHIgb7FYwWsbdZHTaWx0OwYyPTJBGeR6q9rEdkjzPcSJKnMj5wdw/hHyg/QA/ma2dLC0l+8u36r8Ur2XR+9fyRdB1JVY8vdf1/SIorq5uZB9m0x/LbrJM/lg9wQQCGB7EE/gMEkmlXN3IPOvR5AHKW8YTLf7WS2QQeQeK1dwLbd43AZx3x60vzjPzHGcHmp+uqnLmw8FD/AMmf3yvb5JfqZ+zuved/w/IzbbR7dDJGfNZFfBXzNqngHlFwuOT2571ehsLa0LGCGOLdjIRQucfSkiEgluMc4f8A9lWphvEm7cQO+W6VzzxVeqmpzbT6X0+7Y3qwjGSsui/JD/LBHPP1FKF2LjHTsKjI27vnJ9STz+VG5+EJZieuOgHvWBBITtbGVDemaMFjuzznsajZ8Dlzx6GomcLnAYZPpgGgCXzM52igyokZkdisagsXxwKqS3cdvtGJHc/cVMlm/wABz1PHIzUASWZ1kuVJZTlY0clFx3Ocbj3yRxxjpk7Qo6c9TSP4v0/z2Xro05a2RM0kt7/qHMdv2nH3m/3QQRj3Oc84HINTQwxW4KRRbA3JOMlm9SepJ9TyajIcsGK8/WrVlod3q26KwkgN8XCxwSSeWZF2kkqfUY6fWr53U/dwVl2/zfX8uyRDtBc0i2HW8ton8xZI/tSYIJGP9FHyn6bQD9DWfqSTRwyqyMo2nnJIPBrbEUVuqw2tnLhdQCiIRI3/AC7fNkFgN2ck8+vU1n6sJY7C8dzcIQQgj85QBkHOUTIxj3rqXu05X8zWpriKHpH8yhpd6t/YPNH5Y33UrkorLnO3sT14OfU57YroPCzKniRCxwBbyE5/3kxiuRstPhRHRIhGqHCoCwC8A9M+9bHh63KeJ7FDI6JISrFmOCOMgf564rjhK9VS8/1NJRa93+5/7Yb9jKG0zTVzwIYh/wCOgVn6hG0Ev77Kr5siqS3uM8fiKWG6tItJsfMvLdE8qMMzSqApwBgknAwa5O81FLnVLuW31N7md5MNISrcLwAqqCzgDkYG3qd1eksLWr0V7OLa79EefUko4qbb6v8AM3MLuDlycHKnJ7+tZ95qQybeyd5rpsqohAITHViT8uV4+UnuBxmqyW0twg86G7vFzx5irFF+KE7sZx1B6ZAqW3sdS81ps2ltgCKOLYZAqjuCCuM+mOgX0qaWFoUXz1ZJtdL6X6JpXl6pxjs1fY0lOUtIr+vyJ4rWQxJFLMYYI1CrBbsRgAYGZOGPQdMehzQ13a28TxWkkMMan9/PkYRunJP3pD79OpzwDXS2nvWH+l3bWwO7zNyp5n+7sAOOvJ4x0zkMLlvptpa7WgtIUdBhWEQ3DjHXGfxp1Z06d1Wnd78qXu3/AL19W/VN/wA19mJN/Cv6/r/gEcN/YwKUtUdwxyGhiZhK3qXxgn1JP1NSNf3bgmOxVQP4Z5drZ9goYY/GrGSrMQOvBytG5h0bgdiK4pV6bd+S7f8AM23+HKaKL7/cVcXkq5kvCmOgghCk/Xfv/TH401rK2dgJ4ZLrJ+YzSF1B9dpO0fgBjPpVve+T8w655FBklBGDGBjnOc0vrdVfC7eiS/JIOSPU9v8AB9vDa+DNFit4Y4o/sUTbY1CjLKGY4Hckkn1JNbdZPhb/AJFDRf8Arwg/9FrWtXfFuSTe5w4lJVppd3+YUUUUzEKKKKACiiigAooooAKKKKACiiigAooooAKKKKACiiigAooooAKKKKACiiigAooooAKKKKACiiigD5lgB8mLP90fyqQDIGTg/UioYeYE542jj8Kl6r0J+leKtj3MR/Gl6v8AMcAAMDBApc4I4HWouNpycjpnFOBJI+YbPXGT+lBkPJLcAZHpS+2Peo85OFy46Ht9OKUbuM/TgUwJOvDfgKcowCdoGOOT1+lRZbdk5wR0NQSXtrC7RvcRiTvHv+Y+wXrn2FXTpTqO0E2/ITkluWy2Tg9PShGwSd+QeuTkD6VSF67/AOptriU9/k2c/wDA8Z/DNKr38gASG3iDdGZixX6qABn/AIF+da/Vai+O0fVpNfLf8LvoTzroXSVGM4HYe9MhxvmHJAfr/wABFVBHdSbi96yspx+5iVR/48GP45xTFsLbfKJIzKA3CzyNIv3Rzgk8+9DpUY/FUv6Jv8+X9TanKXLOy6fqvUtz3drbyBZ7pYXfnY8gX8fpxUM18HQCKC5kYOpwYSnG4d3wPwqaGGO3j2wwxRoTkhFABPviiViyA4PDoSBzn5h6UnKhFaRb9XZfclf/AMm+YUFN1Y621X5/10GmW9cfJaRxKejSyfMPcqAQfpu/EUCC8kB869KHt5ESjPrnduz+GKsEljgZAPqeKaoBUgMTk84Jp/WWvgjFfK//AKVcy5e7f9ehD/ZsJXMvmzjHzLJIzIx91zt/DHHap4IktVKwRRRqWztRAn1P6UjBxgDGfXFKEIYYOM9dvU1E8RVmuWcm12vp9wKMVqkSAtk/NtGQeg4P51Vk1IRyFFG+UcGKMFjz0yRwpP8AtYFOkgMqFCXCk87WKnr6jFLHbLCqpEgjRT9yNRiin7JK87t9tl9+v3W+YPmewzzLyb70i2qMOiJvkA/3j8oPqMH6+ksFvaQSb40XzCMGQks7D3Y5J6Cl8odMt/QD/PrSLb4OdxI9/wClOWIm04x91dlp9/V/O4KK3ZMHQEHcM+tQXEmI1xyN6/7P8Q5oEWHUbhgjOCvpTZ7dQg+b+NRj0+YVg9jow/8AGj6r8ybeu/AHXkkCgNtGFYDjjjpSCH5enHcDvS/ZlYAEDHpmgxIUf55ssBl+T0/hH5U4nCja8hIAwFxzSxwkyzc9JB9PuipTFgDlT+HFCNq/xL0X5IgAIPySMAR0LH9KX95jAmAGc49qm2g4y4/KnHjuufXFBiVjG3A8wHPYHGag8yWUslsowpw0rIWUEdQACCx+nHXnIxV2RY5YjHIAyN94EkAj0OP5d+lCuFjVFCoq/KoXIAHTHpitYShBXteXnt6+fpt3vsS02V4LZYQxG53bG5nBJP8AgOTwOOTgVKC4fbsOCM52/L9PrUokcDgr+VCliPmbHtnOBUTm5y5pO7KStoiHc0Z3eUPQnNMmm8xdojYDocjcMe4PB/8Ar1Zwg6sD+FJiIHOVzj04pJ21QNXVmZ630+nrs0+zjRVmLotoTCwYpjAUlkAwSfu568gGmx6tqMthPBeW1yFfLBpChxwR/Co9as71+0YGB++7D/pnS3nz27fNIpVWPynGeCOfaq9tLlcX1O2dKPt6Ml2j+ZB/aVvA8nmI4eRvlXYSxwozgDk4ptjcXdxr1o8l9Hp1qJP9c0SbgpIHIfcB1GGOCDk7ant4TE8/l7wSwBdmLMeAeWOSep/Olkjma5jAm2ttbkH3FdNHEww7vTjd95JPr0Wtn82YTpuc7N293p/gNy08Pab/AGfpr3HmXZa3GPt0pljj34YhVPC9hkDPHeq+oRxWl/LaQbWjgwiASBgoAGFB7gdPwrnn0u8vbaNm1e5DDYYzz+7QD7gAIHpz14q48M1rGXe+YqP7yZJJPTHck8e5q6+Lq4mMYOTk/m/uOWVH2debtZXf5l5pwiln2qq5LFmAAHrVb9/eqBJEEtTzsLfNIP8AaGPlHt1PGccgwx2tzOyyXDgAHcsOBhSOhbHU/oOOuM1aMUmecVleNH4XeXft6efnt27j+LfYsZfAAA/A0wmfJ2qgxjknOai8s55Ue/zEUeWM58r64c1zFkxMoP8ACO3WkJkwfu5qIIoH+p+vzmkKoRzGce7UAOMjj+JRTPMOOo/Klzx8qkH1yDSF8HrTEe9eFv8AkUNF/wCvCD/0Wta1ZPhb/kUNF/68IP8A0Wta1etD4UcGK/jz9X+YUUUVRgFFFFABRRRQAUUUUAFFFFABRRRQAUUUUAFFFFABRRRQAUUUUAFFFFABRRRQAUUUUAFFFFABRRRQB8wwE+TGAMHaOvSkWIeYsjnLr05xt/8A10kIxEmMjgHINShRg7s7R+NeKtj28R/Gl6v8xcHLEMcEY5PalOcj7o45BHNJuy2AD0Hqc/nRxt+7kN2APJ9MUzIfuwpKkHI9cilDYGNwpCB0RWxj0A470hH7wHjPUDP5UAOKK0exlDI3DL14/rRFEsMaxxIqIM4QAAD8qByB8oz3PrS5I44xiq5pcvLfQPMX5h1GB+X5UoODkim8kABth/vcGlydowQD7VIxWZVAztG7jn19KZGv7yU/NjfjjgfdFShsLn1PbvUcJPmS+pf8/lFJm1P4Z+n6okUfvC5UbgMZHJxUczgBQM/fQ+y/MKkyduRUc+4xKx253pkf8CFD2DD/AMWPqvzHuVKspDsGHAVM0oPPdRj8aF9DtA6gc80gyAcMM/TgGgxAvhsEsM84zxT1IwMMOO3bim7QACG7UBAR0BxRYBwb5VBcZ7epo3fNjvjHSmBfQD0PJxQ0acFgeDzk4zQA4Phsg9iOcinLLkEgjaOhBpmFIPv/AD/rQVXoAuD7UAO8zkd+c5qKaQeWpxj51/8AQhT2XjjApk6ARjp99f8A0IUPY2w/8WHqvzH/AGjk+1HnnBAGKcIeCf0xQIl55H5UGJBFJ+8myMEtnp/sipN/O4DB9R3pIoh5k43ZG/H/AI6KmMS8dDj0oRrW+Jei/JDMnB4zj3zikXDbevJAGQetPNurMHKgspyDjofanmPJ+8effmgyIgnPcU7y/QnFP2ejE03a2ODkfWmA7ywDz/Ok8lcZP6UgDYzk/j2pDu5IoAf5CdMnHelKJ2+v4UwsSvHU00uduCef50ARf8vJ448//wBp1JckfZJsdTGePTiq5Y/aO3+v5/74qS5cm2m/3Dn8qhbM9Gf8aj6R/MVJo45ZleVE+cHlgD90U03MBukPmpt2MM7h6j/CnRNiSbgffH/oIqKe68u7jSNd8xRsKOgyRyT/AAjg8+xxk8VcKc6jtH+v+B5kc9KM/eT+Hv8A3fQelxHDaQKzEyPGAka/ec4HQf16DqcCnx2jMfMnYmbB2lWJWP8A3R69fmxk5PQcBljGsVtG5ZnkZF3vj24A9hngf1JJtlumAeo5xW7qKnHkp/N9/TsvxfW2xyV03Vk5d3+Y7GBnsBjnvSgdj+lISOmTz1FGflyOfYVgQKeOnU0oz0IJP1pP5UhIJ5wDn1oAXOe3FIMdxj2o684pRgL8yjA5z3oAQ7c84H1FRMq8/Ln6UqTRyMdjqe/BpwPp+FAHunhb/kUNF/68IP8A0Wta1ZPhb/kUNF/68IP/AEWta1evD4Uefiv48/V/mFFFFUYBRRRQAUUUUAFFFFABRRRQAUUUUAFFFFABRRRQAUUUUAFFFFABRRRQAUUUUAFFFFABRRRQAUUUUAfMEO3ykJyPlHNORlzj8eB39a7hPhT4jRFX7VpZwMf66T/43S/8Kq8R5H+k6XjvieT/AON15KpVLbHt1uWVSUlJWbfVf5nEhscAgZ/P9KNiFslRnGM44/8A1124+FfiLP8Ax86X/wB/pP8A43Sf8Kq8RZz9p0z/AL/Sf/G6fsp9jOy/mX3r/M4ocjhAM9eOtPAHT+ors/8AhVXiELj7Rpn18+T/AON0D4V+Is5Nxph/7byf/G6PZT7BZfzL71/mcXuVck8gdTSK29cqCc8/hXan4VeIC27z9LB9p5Bx/wB+6X/hVniPJ/0nS/8Av/J/8bo9lU7BZfzL71/mcZtxkYIOe9AViSccnrk12g+FniED/X6WfrPJ/wDG6X/hV3iL/nvpfT/nvJ/8bo9lPsOy/mX3r/M4tc7c47fgaYgPmS5BJ3j/ANBFdqfhb4i2kLcaWD6maQ/+06QfCrxDlt1zphDNuP7+Qdh/0z9qXsp9jSDioyTktV3XdeZyJYdNvPc1FM2Y14yN6nPr8wrth8LvESk4uNLx7zyf/G6a3ws8RFQouNLUAg/6+Tsc/wDPOh0qltgouMakZOSsmuq/zORJ4YYJz3zQxGRgH8eK7A/C/wASZyLjS/8Av/J/8RSD4X+JB0udKHHaeXr/AN8U/ZT7Gdl/MvvX+Zx4GRwueM9ad0J4+n/167H/AIVj4jOB52lYHpNJ/wDG6T/hWPiPoJ9Kx7zyf/G6PZT7BZfzL71/mcfg8YHTpSjJbBGfoa7E/DLxEes+mH63En/xumt8MPEjZ/0jSxk9p5P/AI3R7KfYLL+Zfev8zkW4BOc+2aPu44BweRzXXN8L/EX8Fxpi/Wdz/wC0hS/8Kx8Rf899L9v38n/xuj2VTsFl/MvvX+ZyRZj83cdgcfyqK4AEa8DJdCff5hXY/wDCr/EIGPO0v/v/ACf/ABuo3+FniNyP9J0sKCpx50nY5/550nSqW2NKLjGpGTkrJrqv8zlz14AozgdR+NdWPhf4j7z6V+E0g/8AadKnwv8AESZ/0jTjn1uZP/jdP2U+xnZfzL71/mcdBkyTn/b6/wDAVqbcCRnGcfnXUL8LvEilz9q0vLMG4mk9Mf8APOnN8MfEpA23OmA+v2iXn/xykqVTsaVXGUk1JbLquy8zlRx14PXmg9Mkjj2rqx8L/ESoFW404Y/6eZD/ADjpR8MfEeMNcaYf+28g/wDadP2U+xnZfzL71/mcnjHXoKBkEDK8cZrrT8MvEfa40wfS4k/+N0H4ZeItu1ZtLA/6+JP/AI3S9jPsFl/MvvX+ZyWOQTz70n+eldYPhj4kAP8ApGl/9/5D/wC06d/wrLxF/wA99M/8CJP/AI3T9lPsFl/MvvX+ZyJBIHU4o2843DrXW/8ACsfEQGPP0v2/fyf/ABul/wCFZeI/+e+l/wDf+T/43R7GfYLL+Zfev8zhiv8ApOP+m3/tOpblQLWX/cb+Vdd/wqvxF5m/7Rpf393+vk/u7f8AnnT5Phd4ieJ4/tGmAMCP9fJ/8bqVRqWeh2yq03UpSUlZJX1XT5nGLAsk85O7hx0Yj+EelRizhjuQFDDeGZj5jZJyvfP+ce1duvwu8RK7t5+lnc27/j4k44A/55+1DfC7xEZFfz9M4UjHnyd8f9M/an7KolazEq9ppqorKNviX8tu/c462XNtDgYwi8/gKm2Bfw557V1Ufwu8RxxKn2jTCFAH+vk5/wDIdP8A+FY+Iv8AntpePTz5P/jdCo1LbHPWcZVJNSVm31X+ZyQQDoT68UoXp8xrrP8AhWPiLvPpnt/pEn/xuj/hWPiL/ntpf/gRJ/8AG6fsp9jOy/mX3r/M5PaQOH68U1gzY2ttPqBmuuHwx8Rf899MP/bxJ/8AG6P+FYeIf+e2l/8AgRJ/8bo9lPsFl/MvvX+ZyQ3eoH4daUF1HB79q63/AIVj4h/566X/AOBEn/xuj/hWXiHH+t0v3/0iT/43R7KfYLL+Zfev8zklldUKhiFzkL2NMY54IHTtkfyrsB8MfEIH+t0v/wACJP8A43R/wrLxB/z00rOOv2iT/wCN0eyn2Cy/mX3r/M9H8Lf8ihov/XhB/wCi1rWqjotnJp2hafYzMrS21tHC5Q5UlVAOM9uKvV6cFaKR5uIkpVpyWzb/ADCiiiqMQooooAKKKKACiiigAooooAKKKKACiiigAooooAKKKKACiiigAooooAKKKKACiiigAooooAKKKKACiiigAooooAKKKKACiiigAooooAKKKKACiiigAooooAKKKKACiiigAooooAKKKKACiiigAooooAKKKKACiiigAooooAKKKKACiiigAooooAKKKKACiiigAooooAKKKKACiiigAooooAKKKKACiiigAooooAKKKKACiiigAooooAKKKKACiiigAooooAKKKKACiiigAooooAKKKKACiiigAooooA//2Q==;" vertex="1" parent="1">
                    <mxGeometry x="290" y="59.99999999999999" width="390" height="186.75" as="geometry"/>
                </mxCell>
                <mxCell id="18" value="" style="edgeStyle=none;html=1;" edge="1" parent="1" source="8" target="9">
                    <mxGeometry relative="1" as="geometry"/>
                </mxCell>
                <mxCell id="8" value="" style="shape=image;imageAspect=0;aspect=fixed;verticalLabelPosition=bottom;verticalAlign=top;image=data:image/jpeg,/9j/4AAQSkZJRgABAQEAZABkAAD/2wBDAAgGBgcGBQgHBwcJCQgKDBQNDAsLDBkSEw8UHRofHh0aHBwgJC4nICIsIxwcKDcpLDAxNDQ0Hyc5PTgyPC4zNDL/2wBDAQkJCQwLDBgNDRgyIRwhMjIyMjIyMjIyMjIyMjIyMjIyMjIyMjIyMjIyMjIyMjIyMjIyMjIyMjIyMjIyMjIyMjL/wAARCACRAMMDASIAAhEBAxEB/8QAHwAAAQUBAQEBAQEAAAAAAAAAAAECAwQFBgcICQoL/8QAtRAAAgEDAwIEAwUFBAQAAAF9AQIDAAQRBRIhMUEGE1FhByJxFDKBkaEII0KxwRVS0fAkM2JyggkKFhcYGRolJicoKSo0NTY3ODk6Q0RFRkdISUpTVFVWV1hZWmNkZWZnaGlqc3R1dnd4eXqDhIWGh4iJipKTlJWWl5iZmqKjpKWmp6ipqrKztLW2t7i5usLDxMXGx8jJytLT1NXW19jZ2uHi4+Tl5ufo6erx8vP09fb3+Pn6/8QAHwEAAwEBAQEBAQEBAQAAAAAAAAECAwQFBgcICQoL/8QAtREAAgECBAQDBAcFBAQAAQJ3AAECAxEEBSExBhJBUQdhcRMiMoEIFEKRobHBCSMzUvAVYnLRChYkNOEl8RcYGRomJygpKjU2Nzg5OkNERUZHSElKU1RVVldYWVpjZGVmZ2hpanN0dXZ3eHl6goOEhYaHiImKkpOUlZaXmJmaoqOkpaanqKmqsrO0tba3uLm6wsPExcbHyMnK0tPU1dbX2Nna4uPk5ebn6Onq8vP09fb3+Pn6/9oADAMBAAIRAxEAPwDjLWG/s7prqfTbiEFwXnlicHJPUse5Pr610dhaKywSXEskxgjWOPBwAoHtwMcjj1Jxk4qzNeW0tlcqdQtLtnjKiHzQ24npgAHkHB6duo6i3p8QjhgRwqx/KjHrtJBxxnJ6E/hXgYvFyg17JXfa17/eeRjsXiXhIuPuttrrtZPr+PoUt76J4ttbp45VintTGUxvLgsr44ORtyG6clAO5waHPctrwMds+xrgXTApgqizbjuPY8nIz9M1a8UyBLOxlEysyRxmONTyHHBOfpx7Ee9VdAuZINbazaH7RDdyRRmZXDBpEkUZGPugh345JIGMCopVVWp+1mtX/n8l+HSy02+hw9Ck4wqxXNOMY2Sfk7X383q1o1fzl1SWexht9Qx/112r9+N1O0MxxkByvyjP3s1olDEFQuW+Vc565x/+upvEtqkmkzRNIttGhVw8pzvKnIUc8kkDrz83c8VPcRQW9i0Qi2zfamQHrtRQOM/8CFcmPrx9kko6t79kk9Pnd/cfJ59gfZ0YQg/dhffzs/zv8rFHxZaXq3UM9r5AsjGyLLu4KKANu7OOMEj3ByetY2iWGm6xazXE9rIsoLRs0byhSu4HBG8gncvbsEyM8ne1OTzdI0+KQxeUlzsYuWCKrMFbfjsA7E4IGMcjBNZ+nQT6TaC1tIfkUkAmQEMeSSWI57c/XHat8DNSw65XaSst9+7vp934s9evW9pg6dWOkqiuractlG/3u/4N2sVNU0XS7LRp7q208yMo2jErARk8bjyQAPvEtgcYzVfUtW8yCwS406XdPGLhbWSYpEgyVQgDPzY3kkgEl+QMYG7b3k8jyQNAji4VoyJACHB65Hpjt3zWFqH2ZNbuF3qYIEjjUKflj2rgqoHAAbPA6HNdbqzStJ3a1WvfT5GVCpUVOSld2XNe730Vt/O/ffuX4IvtUUaiVLONWDLBDIzFugO9jgEDk46diG4rldRS7ika4lu3nlJKqpgJyoUnJVU2jd8qghs5HPHK9XqLSRaFMtvGzzSkLJsJzs5GAAeTlW4HXI+lZFvbGWSKKdVgYjyZIVfc5O7rjnZx82f4uMAgsRphsR7T3nTVk2rLdv1fNJvy/K514SPNQUrJ1JJu70tFOzWz5tNZdlffW/LzRXgnktku7efy1w00iJHFnP8ADI+3dxjn3OAQM11XhrRby3M0mqWSgpG21UlX96uCNuzof4uSw6geppmvaNLb214hjWaaF1OzHyOCw7DB5GOhGA1c9qGktG0Us8btNcL5pkQfIRtwQSfmLAjnk8+9dUqnt6fLFKNtH119VZK/Ra/Mh0atajenJRTT1tq1dxezS8n6q3ddPb+Hf+Jtef6NcrCXAt7l5Y02spbe2xSmM4G35WHQ4xxXXm7N4/nSA/c2DdKeQGJyMk8ZP09McAcDpel29veRNeosEql5FkibEg4IK5B6Yyfrn3rpvEMT6T4cuWhlb7VDApuGllAYBnyQMkjIBwCeflO0jIB4cQueUY3u39y2V7+u/wB9jhrYHETTjUn7jdmndWdtXZt7WV7W30V7o2QgUAmJwAQep49+lY3iBNXayF3pAEUtru3NGr+bgjARdgyQep9wpPQmuMGoXdpcl4bv9+qPgGQTBWeQZA6gkhd2R1zn3qzp/ibXoJmWd2njSNSQEQL8wBx93PQ4OME5OCMVMMJUi+dWdu/YmllVbB1I16U00tV+PqvPf/I7TTLq7XTo11FYUuskskSbQoz0PJyffNXYbpWbBkwP98/41wlpqfiG8WNYbtlRgVG6OPk5z/d+lbdzquuQ6gYWisMKqklM4IIByCTyMGn9S55cqcU3528+vb5/M4q+C95yk18m7K+y1/DV7al/xNHbp4bul/drEXjLY4GTKpJ/Ekk/WqUOq232eJfPgVVIQDywdv8AwEDOPwrE15ZdU1S3a/nbIA8tEfCp6lQOxI685x14AFqTQ7VLAXKSXJeJ0Rna4di28kdMgep/AVdJRoR5JV3B7+63re2l1pp5m0MHQqUIYaUnKTbkrei3v0sr30/U3BcwibL+XcJ0yLc9+4+UHI9/SrEkWn4O0W7uD91lRR+jmqWjBV04PKqzqY0dS67vQFSfXrzn+HpzxbWZFcskCRkgA+WzIDj1AIB61rVzJwjHkxE4Ps7yv53/AOD8kedVWEwk5U66k35NK34u/lcrM+nKcJaRbcD70JU/lmilvLmOG8miEe4IxXLKHJx7kEmiuf8AtLMJe9GtKz21PfXB2PkuaM3Z/wB7/gnmWlrNFqMfmJtBAK7sjOenbvgn8K6+PVGhu4ILgOnmlZAcdgGA/mT/APrqjdQXFyGbH73GBIQpKrnnliMDGe9JNJqS6f5C7UsN6uY/kYuVKNnfjcVwWOBjnI9q6azjWmpSt2/r+vmj6HNcolCpGm3zaNq349HtG/4W6tb/AIqc6hq+khzvnlbYYwnzF1Iz0OMEg8Dn0xnFUdG0rVLq7wthfLMDt864iaLywqsm4kgBnGVbb3wM55q/aeIF0jU9PeJI5pDblm8yPcIgSMlV3D5sNgHIyMjgUy68ZapcXIkez04rzkMsrHnqAfNAGRx0rkoSqwpKEV03ul1fQ6IZVjq2HhOilKTSupO1vdS37rV363StZa3dRuNQuPCqLf3k05N2CTPaeQ7xLNtQMAfvfKG5UZB5HRq1pp/tej2dwGLLE8scjFwxDbsc855IPXkdDg8Djbq7mub/AEqaabSljik81jaRXCNG2OkgcsGHP8OT97HXm9ql806xtBqlrNLHgoIC8W0AFpGO+MAk7Rgbs5PGSaivhY1aSglZ3b223XSy19F+j8nEcOY/E05RqQcfi819myW2i5b7W6LudBrN4snhlImnhEgPl7pZCAgJ4LHHyrjvyAB7YF5CzRjejYPTK0/w3apqOJb2bTrm+UKUgW4WUxKCuXwpI3ZGd3XpyCTU1x4antCFt5lO5sRITtLnBO0HdyQFyenGSOmK8yn7GgnQctbt/ecGZYXFxwtChyuTppp9O337ee3mUww+0DgZJ/GuCmmtl1W9njJMLXrsuJN25gzNuBGPlzyP69a9FHh/UZI8XEUxDDEkY2MpHpy3Ix7V5Fc3Kxi6tWK8mSPzVyquCSNygcDpwOQPbrXpYL2dRtQd9r2DJlOm+evFxV4731V0/wCrnV2GpiLSrWYxNKqTM5UKrFi67RgMQDjBPtjPWql/ey3VyjNpFxDdQuDa3IcNmPdgh/7o5GMZ5PXnlumWuoatYCz0uzeQBQkjrtxFtXIOW4OSSOxODzirV74T8S2reakaXlvCwGEPlso5+bDgZAweQTwQTjnG9FQpt8zSk27e9bf/AIPfobYmC54V5K6V7K9tLt/c4tXb0tddNNC4uoxZSreQgiHNw4Rgqjj5gMkcZCrxjqBzkA0Bp0us+ZMFaGJC0ZaVCCuB8x2nGFyMY5wevJGYpbTUrpbZpdH1qQSbkeEwypsUA46AbPmckEk5+Ynb8tdLbw3F1CkMtr/ZtqimDCMGbaDlQqD5lYgH7y84yOwOcqEadG8G1K/3d/XbRJdfW8xw8oexhO6S+J3srP3uXffy1bSvfZRxjb39xpFpcSONNaaNgCgH76M/cyCvTaz4XjcxZup3GzqUxNnc+VpU9shk/s8kwnyZFkyu4E4IHXAGQN6fhF4m1e3s9Rswto9ncFNkMU0av5IQn5QqEoQcrja2QMcL8prBTxFJfm5gubiKG0LjdB0YYJIBLsASuOoAz7ZweilQnVjGajp92na/4J626Wur9NSdSpWVVxUlKTej1TVr7d7bPTorJWOgbw7pguZ3K+XKsbSfuwCrMOWUDsCA2DxjjtxWbqNu8GoqFAETwoVwAflKkEA9hktxxWfdaz4j0e4QtFHFazSDybqeLsecjvgj65wcdDUVxfXQ1NTd7H8xgCY0MaE9T2z6k59+R1BKni5tzco2fbf9O/r3POpZbifZeycr1Oa3pd9Xr+HkdLpcqfaRbvEsKOuGIQAqm0njHQYOc9OhORUqbHeJjDldwG1MjzMEY7Zzjb79D1rGuNNv/DrRy3souI/9Xcfuc/Zt3Q8MQRlic9AQO5FaST294ZZIzBbx5lYKpBwU68d8A5wDj64ArixFOtJ83tLq2j1fdtd1du/6nnzyybpPktdP5t6K2uis11tu7XV0Jq1nF9qhmWL97LmcgDlF5ODt4I6Y+Xg45z1r3Gpww6TKYyssTPA24NyGDcqR7Z69+KmivvMukvGs3ZQpJiEYAbdwdu0EADAPJ59ulY1ybTTLZbywuIIZLeVN6sWfowZZADkjB4wfQ8A5FVGlzqMaid46W6b/APDan0eGpwq1qdWpe6Wj2VuVK+1rbt7O2q6Ghp0U1laafc3F3FJHc7SsSR8lHUn7xPXAyBjjI6HIrYljaCV4nxvjYq2PUVw1peXK6nb3Nxfi9CwRQySShUZU3LIFY7j8wZSCSSfzrsZNTsFuY1kurdN6gjzW2Kwx14xwcdep+tZ5jhm7TirvyXq/w8z5nOcHKUKfLT99yeydrO1vN9r+RheIRcDXrvy7idFL5CrIQBwO1FRa5uvNYuLi0guLiCQqUlit5HVhtHQgYNFelh4WowTXRdPI+mrTtUkudrV9f+Ceh3vw0tJI3it724VZAFPnBW2dctgAbv4cD5ccnJ6VZf4d6UxybzUjgBVzKvygdAPlpW8azLOIhaaWx8kSsRq6BVJDfJkry3y44yBkZODmtnSdXudVhWYWMIi2gOYLxJishcgrxxgLhyc5+YAAmvn6lbHU43lKy9UezWlmFO1ao7Pa943/AM/68zDb4c6Qzb2vNRLepkQkdv7vpTH+G+ktE4jvb5ZCp2szIwB7ZG0Z+mRXYws80CyPBJbuc5jlK7l577SR+tCESKWXIwxXDAryCQeo9uD36jisP7QxK+2zD+08Yn/EZxkHw20pYFFzfXck3O541RFPPYEMR+dO/wCFbaEP+XnUP++k/wDia7LYT6VyvjDxOuh2ZhthuvZCEVtpKxkkck9AcMDg9uT1AbWlisVXqKEJO7NaeYY2pOyqP9F57bFGT4aaQfM8u9vFymI9207W55OAMjpxx0PPPEf/AArlEtIY4dbuY5F8zefLJU7wAdqhhtyoweTn26U7TfFd9HEq6tbj7QJRb+WhRGlcDGFV2X5ixyx6ABflGSR2bKQcbR+RrSpicVTspT/J/ob1Mwx1J2dS/wB3bzXn/TOMXwl4h0+RpNL8SeY06Mkxn3JwSW4+/wA5ZjnggkkdTXPr4A1hNGS1FtZ/a4hJKLgSAlpNxx8x5JPBGQBgjOCK9QKt6H9aZkj2op4+ouzv5W29LHNVxdSvrVSb9F+NrfLsYXgvw8NCtGkuoyL0r5YL7X2J94hWHqT83QZUcEAE9QXQ9WX8qqFj600k5IycgAkegP8A+o1x1l7abnPdmEryle9un3Ky/BFvdHnqpNB8oj+H86p596Qsemaj2C7saUu5YaKI52naWYE4xz06/gMU/ChcB2H0NU+c9aXPvVeyfSTGk11HXWl6dqDo97Z2908YIRp4hIVB64yDiq6eGdBinSePR9OSaNg6SLaRhlYcgg4yCPWpC5Heje3rx9a0XtkrKo7C5L66fcV73wza6jn7Q24eUsfl+UGjyCTkqc8Zxx2xVOD4feG7UxGGwkBiYsD9ol5JABz83fA49vTitbzCO5/OgStjjNVGpiYq0ajSMKeFhTk5wVm/XoZN14D0C6yZ7KSXICENdzqAvcAB8ep6cknPWpYvCthbTIYIbeOCNSqxi3HQrtwTnnqeo5yQc1o+a3vSiZvWh1cS1yupdGs6bnbm6a7tef3eW3kYMmhXqziRGsxKflWZUYPgZIJPPTJPORk+9Uj4KdwA9vpLkcc2iDP5JXW+e3rTvOPpWkcZiofDI8+GV0YNuDcf8Lt+S1Odj8MzpGqZChQFCw3LRoAOgChMDiiuiM3PCiip+uYrv+Iv7Lw3VX+7/I8HX5QcknknJOPwqzbXUMHMthBcjn/WvIM5xj7rDpg4/wB45zxjQ0nwxe3st0b6C4srS2Qme4eMjyCF38ocFvlHQcjcD04Opp3hfw/c6VNdXHiNVkiiaR1UAGMEKUJXJJxuwQP4m2g5HP0tXEUo3Tk/ld7+n9beR+l1cwow91tu1tk3vtqv+H27ox31q2dCraDpYB2cgyg/KMDkP6dfU8nJ5pmlawNNuJHH2uOJ4gjR2d00GWAwHJwcnqcdMn04raPhPRLK/ji1LxCzLJK8ccNvbOZZCp2Hgbtp3hgODnbwfTc0HTvCj6lcXEJszHNMscEN184KbBwm84LliGPLFQQpCkkDmqYmjGm7KUlbs7fj/Whx1syw8KUrRlKNu0rduvX02tuY6eO4Y7MwDTb+VuDuk1ebc5AIBJHTOeQBj24FVNZhn8VXsV7FZtY+TYiGWO7mkInh5ZCr7OSfnJyecDGfmrutXgGnAyWmn2UbxhY7UxQDepbOcnjaCWbgehOTuwOUg0+6vbnUnXzl1NSC5hZdrNGEAdupIKkDHIAYjAJY1lhHRm1OHut3tdt/h+F+58tjcwoVfdoU2pWunzN63svdb1W3N0S+55mk6fb6sotbmSNbmCTd9k82FpCQVVIydwyOQDhg2Mr8u4Z7dvE1nLduovLi3jk2KCt5YlIskZYZYscYJOd3BOATjHH2dsLux+yavHqEsaMUKyynMg3Z2kMeQo8x/l5GCRzjG94J8Pw/2YIryCF4oZDJ9nuLcOVLDAG58nGAvIxnamMAHdWY0lGCqVWvJWfpu99VZb6Lcxw2Npyhasrte7fXflu1Z37PX06HZ6bcW93G4iujcqApEnmxncOVyNnYlGPI659MCrqtxPa3CpbzFFKbiP7OmuecnncjAD6dfzq1Z2dppsKQ2VtFCiIIwFHO0EkAnqeWY89yT3ohtLO3tpLW3s7aK3kz5kUcahGyMHIAweOK+cTSm5Lb0X/BRNOpCE29WvO3+Vvw+Zznj26uIfCTy2QkUSMhlZo3JWI5J4A+Xpg78AAkHkgHgzpthJbWcukXxF6ZAYpLeYLsm3fLkEfMSXcYbHLEd+fQ9b1m2thBbw2cM5afegZAQHOSXHpyT83XJ9+eKsJQ/jHVS9na2V3bjJ2y4DITkyck5kYuuTkfK23BPX3cF7SlQ1Vr69NVolfra/8AlqYOtzTdN3lFJu2yfl2leyT7dHe1vUP3JxmVVZiBt64YkjA9eQR+BoEaORsdW+UNwOx6H6cVl6FrqXcSxTBVPCI5z83HAJYk59yTn69dvz1X2HsK8arCrSlytE0MS6ivF3XpZ/mVmhIHLKPrUTGNbj7MZoRcbA/k7wH2nODjrjg8+x9KyfHTX0/hqRLEK+6aNJI2z+8V2CBQMcksydxxnr0Pnl1BY6lYJp1ppsjTGPzI1WLIkLgggY3ADcjHIHYkdAR24XCutTc5O2vRX+b1Vjq5puyit/uXk/VXta5655Deg/OjyX7L+tZ3h6DUbayc6lcieaTaAojAEYA6bsbnJO5iSTy3HqdVnhiw8uAS2R83U4x09Pbpn3rknzRk4rX0HKpbS5H5DDkqaTym/utisrW9a0/T7Sa9uZXhWOPKeXJh3bnAVMgE5yPmx09AccZc3evTWkOoHVLmCMusojimA2ykbgo4G9TnO0qRt29cEnqo4adSDnJ8qXfv5Wv8/wDhr4xxTlUVNLd26/5fjt5npHlN12t+VAj9c/lVbQb2S+0CyuLuMpcPEN4MgckjjJKgDnGeABzVkROHVvtdxgYyuFwcfhnmuWTcZOMuhs6jVrJv7v8AP8gAA7n8qUD3FSxKUQhppJTn7zlQf0AppWVmYrKgXbwCucN6/T2/Wo511F7TS/8AkN2n1FFJ5F4f+Xy3/CA//FUUc8e/4P8AyMfby/kf/kv+Z5Tp2galqjNpEVxbPhQUkMsrx8AOQrJmPKbyDnvK3XIx3WkfDyz0tVk/tC/N1uG+WCUwhlBJ2YHO08Z5z8owRXHWnxG8RW2/zZba63Yx50WNuPTZt6++elaNj4p8Wa/YmCC2tyqbSbv7I7/MhVieAy7gPmxt7fKM7RXuYuGOkrXUY9df+An8j6vHUsxmrcyjHrr+OydvI7Sfwrpl1bR296L29VMH/SLyVssBjdjfjPJ6Adav2Nnb6XYR2dlCI7ePOxcs2Mkk8kk9Sa4S08IeKrrUor3UNQt4XSZrgPIqzMrsi5IXG042quMgDblexPXaPon9kQojaheXbD5iZXwu7Lljgdcl2J3Fui88CvJxEVGHL7bm621t/l/X3+Di4KEOT2/P1srtX1+X9P58J8Tr27guLaKMzCCeMrOVG5VzuXbtIIBYHAbg/KaydAsZ7OwJtY5Bi5id5WlCbcYdsYByMqFK99wBIGa3vE7tqHj3TPD1szR2NtAskqwAptZiDg5+UhURWUAcHPXpWJaXtpozXGkKzRxwyeYiSHLbGAK5xxnBGffNezQm1hORRu+W9rb3vZv8+x4WaQq0sHP2Xxy1t1sra/Lprp53OoEqXYvJpow12YGCShPmH3cncfucKOmAf54fgC5uLrX1lupj9qEbMSAqB4VMilAqKAMM8Z5ODkY+7Vy21OAYjtZ4J57qNkVFcEx4IyWB7cHnoOpwKZ4dvV8PX1tFtV7a9nW1co4Ox9zKGHqC7rz6NnHFctH208PV9qrydkr6Oy7K3/Dk5JRqRwSlXT5ndq+7u43d3v7vNfXo9G0ekmZcYqnf3QjspCSyqRhmHYd/0zVoogPXP4Vla6E+wuxW4ZQMYt4y788dACTxnj3ry6MU5pWO9yjFNpXZwd9qen6bNDdamJI7i/XzN8cRKKN+NoPsGzgehPUgGJdbiuZTIumCUJAcPEhefa64GwlR82GcFVJ6OQcJ83O6qlzr+spbzKsL28fl74IXbKICxYIcP1JJGMgcckE11Gn6Y8LxX93O1wolZYlIBEHJDs+G+ZyqlCR0LHggDH0clGMVOb95+f3JfLT+rHmYqnCjTcsS2qj27X6rT7r7dtbD31y00mS1TeguWnUXEWS0kMZVjnC5+YFRnGev+0DXohuoFtBdSsEQLubk8eo/OvK9c0mSbVI7+0XzLQB0nM0mGQEEk7yBlQcKoPOdqg8jGxaaxdXfhKOKMytLBiBn3sWD/czuwMnneOT1AJzXNiMJCo4OMt3ZnZgcPGOHjXp3s21J2e6Sa+Xxfgbk3iJbm5ECWuUikSSQSR78bWyMDBG/KggdRx7GuTs3uLjxIuq3VhaxWFudtgrurMgVnchVUlAWAPzbTgKAP7wmm1K0sbZrextmurWCMbZoCDGZAAWQt0HykHPOeQMkYNaPXLB7u4REMenrBCS8UTFRtBkfPl71fazx5OQF5A99aUIcslCDt+P/AA7/ACujCOKbjOU4u6vytfjp8109b2PRtOvku7fEaOnlqAVbkYxxg9xwfyqj4leeDSZrmFN/lqznIYBVWNnPzKDt4UjOOpx1Iql4dureebfZyCSIu8W7HBwpLY9sgYI4ODg9a2b61W/t/JaRo2Vg8bpkFXHQ9ef84IOCPLlH2dbRWN8BN4mhyzjazs+m3pZrtpZ9rHKWj6NqEc1tcxwX9y6GK6cOwKvgeYIt/IwHXJAU7sZwQAKlxplrDq1rpS60q2UsT+Uk74MTKp2nBXAHUDc2T06pksi8KaDpGqJ5EE0t5bosolMzId33eADjb6g5zk5JzmotTtLfUdVZ/LeG6tZVsoJ0RZDMWXJ+Q5yq7wxOOVLccZHpR5VKyb5bX1W3na/p2OWljXhcZKlOV6cfLbXotmvVXXktT0Gyu7SaKJYWiQMP3cKnG1RkAAfQDpx6ZHNXAwBxgZ9M155AIbGPKTRQRWzFGLyFdhBHUtjB5Bz3LZHBFTa5rsl9pWn3+n3MdxYRSBrvZGsuSuGBYYwgBw3Iz/ulQTxvAqdRRhLRvrfT7rm2ExvtU1V1a2etn/k3+WvQ74uR60m8j/8AXXnfg+6uf7SiXT7mW6sHUvcNOxk2rjCgPk87tuBxxu613+/6flWGJwroT5L3PQgpWu46/P8AVInDZHaiovMb1/SiublZpafY8dtI9HuruK0jtL52dtpma7SNQO7sPLbaoGWPJwAeTjNdu3jXSNJ8u10ezt2VNkaKH2b4znblzwuCzMSxJGRkZZ9ljRfh1aaXei5uL8XhXhF8sx7OD8wIbIYHGD2weM4K9jcGJoGjmQSRvhGTZvBDHGCADxzz2x14r0MbjcPUmopOcfVrX+vQ9fMczwtWpGMU5xXm0r+j/wCB5FVdUMzHyNOvnXaWDNEIs4Bxw5U5JBGMcEZOFIY2IbiSVI3e2aFWVtySsu9TkADCkjBGTnPpxzw4gnjNIVPoa8d8vRHz7nFqyVvv/wCG/A82u4ri0+LrSSrLMs0IlURoZGEexkBYIvA3tsHU4XJ65NfVtQ02wtIorxYrqdl8yK1ZA289NxyCFHJ5PbOM9K6m78Jxf8JHNr01x5rMQVjeBRtIAAy3cDtwDnBySMny7XYJm8Q3RWDDiONUIQAL+7U8nvjJ5OTx6CvoMNKNdrlltFbabGGaU4YmrRXNzcsXsrO91p97toX/AA9rUtzqE8cmm2NqrqIRcWiiMLuJwr5b7rFQP97A7g1oSpCfFSLb7/8Aj4tppWY7gsj5PRlI/uNkHjBxzjCQa5p2jWMURElzNGhRltAGO3nDPjCsQEAySTjGPl5NKys1vxfzW2mXVys7k7oom3qxG8oWXcoI+U5/2ucH5R2T5veqOLSsrefnqZZfhJPHVKTTjDVbtJ7q/l1a2vpbXf2IAtkspXn7pxx+VIqAuM9KyvDj3baFCb1v3hLMFZHVlBYnDb/mYg8ZPXHfqdPn0r5mUXGTiz0Jc0W432/ryPKNS8JGDwtexO8j/Y5XBe5XEpjSUhdrbgFUxBW6f+y4xrGPUbZYriIaqbby1MK73eIo6rtGCrLwpI549lIr0rxxqZt9NWCMRzXt4PIhtXQM0gz820EEDIyOQRkjg8g+Q+GvEup6LZPZIv2i1ZgY1ZN5hbcM4UEZBz93I5OcjnP0uBqVKtGU5pPXZu2/9fP5HFX+sSptpKdnZX9FovRNdH8nodlLZ39zezRi+jiEdu6rHEwkEYcgfNgYLlWKngDqVxuyKc2n3WmJ9lVmudPL75Yrfcq7WOMkdFVRsH97BwflJWug0lH12Szne4S3hm3Fx5RYyROdyDGcK3I555J7CtTVfC1hNpjRS3EiuLlLgzlQzMVOMMOM/KxA9Dg9c5xliEpxpzSXybf+Wmr076m2CrwqR0b5bW5FpZ3d9ez0tp+KOW0uxsDbz+YwI5F2k207NrMyghhjAB3Zx35OBVrT4LGw0trvT7cu7hJt8sRnaXDAoxXOT0DAcYznA5FZGo6PLcFGj+yTzNL/AKOggKPOg+8+GyuegJJA+6cnOKfaeHtVQRONQeCKJw0dvK7SmMhl2Hb9w7Mbhzg4Axg8dE6Scdai9Nv6101WljzsesPVrc8K1k3ezfbS3d2to2rJWNHS0SGy8OrbarL5QvooxErkjaZFYqV6Akjkj19Cc+jqF3DceD7V5fBazaB4x0+ZppJLW8/erJcPnZgmOYlwQSwQhy2ABk8ACvRba7W7tYriMMqyqG2lSpX2IIBBHuBXm49OUk73Xf8AT5d+rue1GpTqQpzi9ZK/nv19NPPXyMDxHaCy1CO7IZJSGVyXGHHynKjrwWIGcfdPGMVkJFFPIoeQrbjIkg2oY3yc7ipGPQ59s9zna8ROTcQRt8ys4XGeQT0AHqSB+VYUl3pFtey2E9wYXQuJHKELGRGSMlgAR0wAedwPI6bUW40o82rt26f1+J4GNo1vrPLBe6+ttttXpp69PIowaGbm+JCQnT7Ip+5jAiUswDBm3HcV3O5CjIG4Ac5FSa3fLpY8nSraMHULNkkMDeX5ZjRiGLHklV3ZXjJHsKdp8dvOZrBgHS4UrLIg37GI+8Hxy3XGBx+NWdPQabYxKRO9wshld5x8xf5scLkAYYkfMeW7ZxXdUqST5JO67ba93r31t6M3hWo0VebbuuXl6Sd739e70v5ddTwrfW0UAEpy0wV2lNx5hG75l3Dop2sCWySQy5OAAvUyXVtDsLSKQ2CuOd2SAMY92FcZDDuCCMbBCMKg/wCWS46Y4/L2rVtnjvZVtI52FzC8cvl5ONm4dcfRiM+nHQ48yvShKfP95tQzSpXruLWru0ktF5ei1Oity7wgzjy5MkFQdw69Qffr+NFRafIz6dbM7Es0SklhknIorzJJqTPYpzg4Jv8Ar7h+n6vLqN9cW5066t0gA3STbPv5IK4DHnADD1BB4BUtoDzCz7lAXOFIPUYHXjjnPHPQeuA5WWVN0bq4BKkgggEHBGfUEEfhUbzRx+Z5jBFjTzHdwQgXnnceOMHPpxnqK55NN6KxwzanJ2VvIcxC46H3xTCxz/QVFFdR3F3JAqzq8ecl7eRE4OOGIAP4HmrPlqSM8j2p/DuhNKPxIwPFWtzaJpJmhgMskxaGNgw/dyFSVYggggYYn6AYOeOUntodP045LTXUrosckq5ZmYBScgFmzndnk/e68Ve8ZG4vPFGnaas5jtkt3uCqn7zYYDPUHG3gEc5OeKvxW7XfiEXlpbSSx2NtvgTeEy7IQqEn1GRntjr6+pQrKjCMVa8k2+9lsrvRXfbt9904U6mIipNrkSla9k39n7r/ACfc4vRruOF2heVLi4ePZHK0wZCqe+OwBAxkcjHG012/g62mttASR2mHnyvKqSrtZQT6ehxu/wCBd+p4ewWPVvEc15ZFHs8NJGVO3ggg7QR8o/2RnG3Gc7iPRPDbzzeHbL7Rv3LGUVnXBKgkKeg/hxz3610ZhUk46ve111W/T5fn3Z1NQ5KjhK75ktv7t9PnfrtbuaRbAzknHtSib0UcetIyZ70gXnAxj2ryvdMeVPdnO67b215dotxbxMJXRWJQZIUl1ye4DDODxyfU15VoGn3fiDVbq3I+zyQrJPdPJIwMRz3zuYkH2Jz19a9e15VURuxwRtYcZ/iA5/AnpWP4c1C8uvF/iSCeaTyLdIVji2uFAGcE5UAFsk9z1wSADXr4fEOGHk4q9l92qX6/gcvNyYjlULppP8bXt16X20W4xvNt9QnQTPM8W9VlOdzAMcEnPLcDJ7kE8ZxW/r8pg06VgoLKGZQc4JUE/wBK5X+07v8A4SCysp7aKJ9RmdIlDb0ACFmdXXBJLMq8jGFJwMius15DLau5wFRZHb0HyGsql41afMtP+D5HHlTlGdSXR2af/gX433OL1DUzpXh23u7iaTzI2S3TA3N1G/APGQofGePlGc9KydCs9Ri1SHUheD+zbuJppYELJtyigbY27A4CkHlUwCARUPjh/Ok0nR4Gm8x0GFAyCXIUHA6sDv8Az4610JtvsmsSwFlb5Q2Qu3cf4m29stubHqxr0opezcnvK7+V/wCmYSw0nhfbRStO9777af53vu+utrFzfz6hLJpq6dbStZ+XJH54OH+ZJfvDp0Axgj5dzHHynQ8JXOpyyagL4qIVMaxKhz+8w3mE5+bnKHnjn13VifaTa6tfaWrPNPdjZE0isBsk55PJIUKV47DtjFdnpNhLY6dFbSSCYx7gJfL2FgWJGR2PP49eua4sROFOi6fLo7NPW/RtrW3k9PQ9jC0uelGpO2itG2l1ZJt/NeT8jlvEM8s2tCBcGFwyyAjqAuMfjuOazbhVN/cJHEplvhGjscnywgwGUDGWJA5Oeeewxu3kAbXt8mAilyx9B8tYVxLJc+Y1tHDN5rNKkbPH80Srk9WKsrYVMjGBKDjIweulXcIw5ekV997/AKX+R5ubYpUcTGC2sv0Lel6tpafarawhE8NiUSRlIG7crYEf98llC44z2zxmjb3EtjaWk0zzyvNuW4mnnUR+YwA5J+URAgYZOBn5d25hWHa+HNWsrq8tlguCZFjRuP3cp86Moyno3y7yT/CMg47u0sIv2Szlt7nE0cUgeFH81v3ZVguM7gcgcDH124q4Yan70k+br3e363uaRwFCp7SfNez6O7typ9Lvq9EulrNm3ruuTadfWy2TQOkcf2mR5TgXAYjCI2MdOQwyMj0DVV0vxLqd/wCMNLg8mexijmXzLfhy4I+Y5KglSkgPpgBvQ1PLaPJJYa3baRareeQ0TWzqy4L7Y0Yj5QAm5icgYC44wGX06FrloLc3ZUXHkp5qKRhXxlunuT3xxXHXnSoxUXG7aaeuz9Nbr/OyNcupYWSU1T96Ds7tb73td/J7dCUKqAKigKBgADAAopP+Ak++aK8ayO72a7nl+hm+1K/gk1LxFNbRMGAlOohZEXILcE8A7QMHBJKsAwU13emaRpd5F58F1DdTzxskiXdx9sBxtyxG7G/IgLYyBtAGMhq8razTHVz/AMANNkVZgsskxYMFVXbPI4CgH6YA/AV9DXwzrO8Jcvoj7jF5aqzvGpyei/ryv+FrntGj6eumwLbWcUYgfEzE27Qn5i53HjBbhAVwu3HQDaomuNX0y1nWC6vYbeZlZlWdvLOFbaT82OM9PUAkZArxyfUtQvLcxz6vcXEEoBKyTuysOo4PB7Gs8RBT9+M/XNcX9kucnKpPX0/r8jzFw9GpJzq1N+y/X/gHf+K9a0v7dZalZ3ltczwbopU6fuiSGIYfeyRjb8xwdygDJMOleJtHsdVnvru4k82WLYkMdviTYoBBb0/hXghST3AyOIdN6YCRHkHjGMjkVNbxQSyRrd3ckK7WVmKCXaFX5QOeSTkdgODn07I4CmqfLJva3nbfsEeH4067nz+41rprp6L087k+nTC0hQrcXD+ezEyXB2kdiv3sgbi3LH5iwGMkgen+HNYsLrToLNruBb62ijjmh3EFDwoByB82SoK9mOD2zxFzZeH2tC9lqpt7aPez7LN2kM5LFMMxKiNuoUkMAp+YFnNW9Ht9DUOF0i7u5kjaVkt9Mx5bSn5OCWUnblgG3LtC4w2d2GKpU61NyakpX7fdfb+rO/Q87+zo+8nBxTfZ72S69Py09H6WYyOAB+VRNGScA/hmudttRs7Vbiaz8LavayP+73w6dGjxgj+EDkjK55BGevYVzV74/g1Yy29nBBd2jRIoN7JzJJGfMyyqQmSAflHLcdRha8ujga1SXuLRb7f5/qY0sqqzqcq/T/P9TqfEB8hoGw3JA3D+EBgxJ/AfmRVHRJbC0mvILZrcNLHJdywo4DMd+GY9xg5X26dsVBB4g1HVbCS4vobV4lkhUmxkVjGGycyLvJAyEyDt6kngGuU0VtZ1LVLsW9jEIrq2mSKO2BQCLZtXEm0gcqgyMEkKMgABe6nhZ+ycZu1t9Vr1PGxmAr/XlFSScVffS6T0/wCH9OpreFI4z4svLuS0eNGdoo3MQMUYRzH8r9jJKxOwDOV3HOc13GqqLeweWSNnjUZdVXeSoGTx34Bryyx1m+0+HTp7O3stk9wkCQmDLbxI0mFXj5d0pUckg/dAIGezkv8AX7zQ5472W3t5WhSNJDZSb978NuD7VY4yMKCMsO3B0x2EqwxCcrW0W/Tp3+Zth8JLC4WdVNWX36RS212tbXd69bHPeErUXfxJ1G/mWACB2tkYvg7trhSq9yUicnngZ49NjWvJj1pkX75DhioG7GBj9c4/GuH0vTNW0bXrFtMiF5frceehRG3SxurKEdG2rHgCTOTkbv8AZJHbXzxnxTIdgLCMg8ZB+dhxmumtT5a/Mndcmi9O/wB91/wDGprg3KLvF3t5JbW8v+Cuh02hyq9gUcoJgwdkwMqCq4yPfB/I+hrRMi9Nx9ua4/SbrX7bXJrKO1GoWMUBm8qFowUZ2cRgszBgCIwSQG5L8YxjX1OTWrvTdRjsdLubad4VNsJY4Gwf4kbMrKcjjO0AZ/i6V41ailVs5JX81pfv18/Q1wFKP1aEn18/P+nfa3W5kXcyX+rQyWX+kRDMrFJAA43AKOhJ3beMD7rbgcld1PRra5+2a5c3YibZblEdYCACV+dY/m+U5GW4Jbcv3QuKzdL1PT2sFjkt5JbtS00pMO+dXAIZyxwR1JLHJ574auhgmW08Paw9xa3KyLJKGleRXjlcjZtTYScDCq2cYbcAeDj1KklCmqKhZ6K73evTW1vT5+XPGhGtKpXrwtZKzdvv9LW9L283mxS+WFgMqs6jD4LYVhwVyBz061aaWIKT5byL3KKD+W41zmsX1zoltb2tjFCJp4t3mOGYxjBHC4xnpg5POQV9YrG71nXrFoWP2doolVriOURq5KuSc4PzFQi4A+Uy7sfKMVOHP73T1/H+tTxK+FbXtLWWmt+/V/18jdTV44b02sES3Fz5kYJmUjCOCeNoOGAGc9ADnkggXvAuo6vfXV4l+8EkK9PLV/kYBcY3DIUjPXPIODwQMmUtDrkhvQzRXEflWiwhncoSMFMg7CMjA7F85bgnpPCmgx6c8dxLE0UtwSIk8tmWOIAsccYhZmbOCTkAD72ayxXsoYZ6auzvq+my7W+f3H0eX4WNOk3FJ3S1um9Um7NdE79O6ve51YVSORzRUVo8N9apcRCZUfOBMjRPwcco4DDp3FFeA7J2Z08sTwkhe68j2pe33cfhT84pC3tX2Vz9OE3k9Cw+nFOErg53uT1zuPNNJIHGKaWbrT3HYeZX/vN+JpFlKsWZVcbSu1xxyOD9R1/DnI4phL+tS20iQyFri3FwuMBGdlweoPB9sEehOMHBDeiBqyJWvfNZftdrDexKgVYLguUU7FQsMMCCVUDrjHGMAAWLTV47ExGLRdKPll8GSEvlWx8nLH5RhcYwRt68tmX+1NLbmTw7bvIZtzP9okXdH3GFIUN7gBfRRVqTX9OktTap4dt1gG4RlpmeSMMACFZgfWQjjAZg2Mqd3NKTa5eR29Vb/wBK/Q4px5tPZP71b/0r9CEeK5RMXbR9FK84jNmNo4X3zxgnr/EfbHaeGVlv0/tAxW+mWs6AJc2tpBE28sEMQLM5K7gCMrknuMAHjpvFN+bKO0tri4tooEEVuI7lwVXOSWIILt0HZQM4UZGM03uoTpMftdw0Qy8ixkhFBHl52jhRtITsMEL04rCrhpVYcqSj+On+f9a7nPXwTrU+VRUP/JtPTa/39tdz0i6tNd1FZIQdLuRJKLmzaRwFEe0ZxtU79rOuxmQjK7iBla5RdCvbC4jDeIdPt7iI+QJI7lsRlUwQzKgCE4fAbBAyoLc1g2thfazdOYI5LmVnHmSMeNzHjc7cAseBk8ngc10OmeCteudRtnurWe3CzIDcm4UNGiZBwOWz8q7SOOB1ByM/Zxw0XGVSK8rW/C/6fmcEsvoYWr7apVimla1kvwbfrtvtubWkeAb2AznWbsXS5Z0himkQSsRgCR/vYGO2c554GDpNZXun6RcX2r6j57qTLKpZ3ht4kUj5QQWJ25JJ5bAzzljs2MEWlQFbp7jefJQyS3Es4Zmwo+ZgACXJB2gcYJAyALjwPbTvdme3jtwpMpdCG2BcgF92AASxyRjBxx1PjVMbOU7z29PwW9r/AOVz56dR8sqa0T207a2Vr23/AC6HlPh/Stb17VLa+iZP7Pt8XCM8wVlmPzqAdr4Kq6/w7fvDAJNbPiGIWN/PqNyvlt5TYQZcZznavGcZ3HJGcc4FdvbfY2Kw2s8DAINiROpwoCkYAHTDJ+DL6iqeqeE9L1Yl7uGZnYYJFxIONwYgDdgZx1ABx0IwMdTzOEsQp1FaO1lpp/XkclWnF0o0LWivv137bnLeBFgvNbvLg6lJ/aIRFEIUb0iU/OrZX7rOcgEKQB8oUcV2DW1rb6nNqy307y3JFuIhJvQlAy7AoB6Hcx7ghjkDdmLRPD1j4dtngsIAhkwZJHyzyEDGSSeT+npioPF2qXOkeGbq6iZlkKlFZIwWBKn5gCw6YzxuwBnaRmuWvUWIxNqT0lZf1p3N4NQjyU3olb5b9n69931seY/ECeQuLBr4RSSosssWSRJGv3QzY4CkscH/AGu+A214avzcfDufTnjZGsEQKdmCVdgwBGT82Q3H0681z1rb6JqflWNw8MFvMDNJLGzKyjbliC6u3GFVQck7cZGQT38Wp6ANHuk0JIlNskQl8gI5dNhYAyAsGPyuMkn5lYZ5zXvYx8lOnQSbaad7WW6X47L5XtsJ0GsFVp1ItOadn21avb0f4o8u1q8eC+ktLlnQhwWdi7Y3ANwrEleMZA54AOSM13m23sbt7SzAVEj3ROWJdxz8zEj72e/0xjFcV45+0rEXNvOEfy2dnyI1co21Ez2A3nKkjLnOOBW7DK72WkTHzhLcWMYcTA5YhBubnnk857giuqcFUpxfdP8ACz/z/pnjVabrUZ9n59Vt92v3rU1G1KSx1SCXSYI7i+S0kjNrv3CFXkjYFgMHJ2gKCQWLcZ4B3B4x1Sa2SW38MXpZZmSSMiQ7lAI+VgmAQwwQemMDOTt5+KW4t/E7Ge+lS3t9OSeEw2oka3LfKWO3kKCA5J4IBTkEg6mm67rttfxJcWGt3NsC4eeW1ZW+fkny1BAwQoHJwN+OoVfIxNKMvsqVtd2u+nRM+kyfCU4ZbTfs4ydm92r6vTon00W3S+5ah+I2kwwRpeGaa5CgyPZopiyRnCkucgdM5wcZHBorRktdeeRmWSRlJyD9pRf08s//AF+vHSiuT2eCert/4H/9qZrG4R6yoSv6/wCSsePHqKDRRX05+iId3FMHQ/U/1oooGhp6ijt+dFFaDWwGlP8ArW+hooqkPqI39K6Hw7/yB9T+rf8ApJdUUVhi/wCA/l+ZyY7/AHaXy/NHbRf8lGvf+vy3/wDSOeuj8Of8izpf/XlF/wCgCiivksZ8Ef8ADD/0lnxGP+CH+Gn/AOks5rxt/wAjJ4U/6/f/AGeKtPxH/wAhbS/+A/8ApVa0UVpD4cP6S/Nm0PhwvpL85GZ4L/5GjxZ/19j/ANDkrtW6j6UUVyZj/vL9I/8ApKOLNf8Aen6R/wDSUNHWn9jRRXIjjWxyWj/63w5/2CX/APaFWvFv/IOP0f8A9Boor16X+8Q9X/6Uzev/ABV8/wA5Hlfir/W6t9B/7Y1u3n+v0j/r1H/otKKK+jpfwaX+GX5I87C/7hP1X5M6Dw9/yUaT/sCw/wDow1O3/IK8Mf8AXnD/AOj7SiivCrfx18vykenkn+7UfT/5M8313/kIRf8AXna/+iI6KKK+lo/w4+iP1DDfwYei/I//2Q==;" vertex="1" parent="1">
                    <mxGeometry x="32.5" y="280" width="195" height="145" as="geometry"/>
                </mxCell>
                <mxCell id="25" style="edgeStyle=none;html=1;exitX=0.5;exitY=1;exitDx=0;exitDy=0;entryX=0.25;entryY=0;entryDx=0;entryDy=0;startArrow=none;startFill=0;endArrow=classic;endFill=1;" edge="1" parent="1" source="9" target="12">
                    <mxGeometry relative="1" as="geometry"/>
                </mxCell>
                <mxCell id="9" value="" style="shape=image;imageAspect=0;aspect=fixed;verticalLabelPosition=bottom;verticalAlign=top;image=data:image/jpeg,/9j/4AAQSkZJRgABAQEAZABkAAD/2wBDAAgGBgcGBQgHBwcJCQgKDBQNDAsLDBkSEw8UHRofHh0aHBwgJC4nICIsIxwcKDcpLDAxNDQ0Hyc5PTgyPC4zNDL/2wBDAQkJCQwLDBgNDRgyIRwhMjIyMjIyMjIyMjIyMjIyMjIyMjIyMjIyMjIyMjIyMjIyMjIyMjIyMjIyMjIyMjIyMjL/wAARCACRAMMDASIAAhEBAxEB/8QAHwAAAQUBAQEBAQEAAAAAAAAAAAECAwQFBgcICQoL/8QAtRAAAgEDAwIEAwUFBAQAAAF9AQIDAAQRBRIhMUEGE1FhByJxFDKBkaEII0KxwRVS0fAkM2JyggkKFhcYGRolJicoKSo0NTY3ODk6Q0RFRkdISUpTVFVWV1hZWmNkZWZnaGlqc3R1dnd4eXqDhIWGh4iJipKTlJWWl5iZmqKjpKWmp6ipqrKztLW2t7i5usLDxMXGx8jJytLT1NXW19jZ2uHi4+Tl5ufo6erx8vP09fb3+Pn6/8QAHwEAAwEBAQEBAQEBAQAAAAAAAAECAwQFBgcICQoL/8QAtREAAgECBAQDBAcFBAQAAQJ3AAECAxEEBSExBhJBUQdhcRMiMoEIFEKRobHBCSMzUvAVYnLRChYkNOEl8RcYGRomJygpKjU2Nzg5OkNERUZHSElKU1RVVldYWVpjZGVmZ2hpanN0dXZ3eHl6goOEhYaHiImKkpOUlZaXmJmaoqOkpaanqKmqsrO0tba3uLm6wsPExcbHyMnK0tPU1dbX2Nna4uPk5ebn6Onq8vP09fb3+Pn6/9oADAMBAAIRAxEAPwCvP4G8S3EFpC9jIq20m9dtzHzyeDz6Ej9aZc+DtfghaaTSZCi4yI2SRuuOFUkn8BXsiMk0KSxOrxuoZXVshgeQQe4oAr49ZvV2cV+P+Z7+HzqtQ92nCKS6a9P+3jw9NN1a8ubbSjb3XmAusME4KBDtDsBuIAOCCfqPUVsv4f8AGlxchZvPnkiUN5c12kmFLZGVZyCpKDgjB2+1erc+pqveXcFhbPcXU6RRICSzH/OT7VTzScmlCC/F6/gdMs/rykuSnH53erfTbft36nnGmjxt4adLO305mhCvKYhAro/BzudOS3HA3Z4A9BU1z4k8TXUsK3vhqM73C8WUokcD5iis2cEqG6AkDJHSuq0jxZpuuLG1lI7bxyCBkHdhRgEk5AZsrkAIxYr32ixH8X86mrXXPerSXN80Y4jGwqNrE4aDb3038/P+tTzVvGV3Zysl14Ys0SIRo6vEysrEA8lv7wDkAjPQ/Ng54me2Oty6pqRvUEj3TKsGB8sXO3lQBnjb0H3e2a9/85l6H9aqy29pPKJZrW3kkV/MV3jUkOMDcCR1+VefYela0MdTpXcKdm+t7/n3OCtHBVeXkoKFr35Xvpt5aq/U8v8AAWkQajqkElxao8AyyGeMSg4wygBSNrDOSSCoyoIyy49Pm8P6ZcRPDNbLNAcDyZBmNQAAAF6cbRj3A9BT7eG3tFxbW8UIwFxEoXgEnHHuzH8T61L57jucfWuXFYirWqc0JNJbamFShTkoxUbpd9ddde3Uwf8AhAPDxVojYfui4lIFxIoMmCM7QwAwCcY4G44Aq1ZeFbCyXNvbxwOAArph3XAA4kYbvUYzjHbk1pGeT+8aUzuB1/Ss3XxTVnUb9Wxuk5R5Xsc5q3gWx1BWHmXFuvm+fts2CGSTGCz7sh2PHzHn35JNG2+GWmRfvBeamrMoyrSRMAe5wUIz6115uG/D6Uvnv3q44vFxjy8y+5DjRS6dW9+rd2zi9W+HFlfW8NrbxtDIm0tfSKsrsMn5QMqFwD2GCO2QDVGf4XTXLCNdZCvEFAkawfPGMYPmgdBjjp7V6F9pYf8A66PtRHbJraGY46EeWMtP67/kDpXm6jV23fXXpbTt0/4fU47XvDkB00WEVqRbeU6s5i2hGGdshxtBcnOeRuz6Nzk2vg/xXZxmeOe0fMqsisWViuCp3LtKhj8pOc45zXpS3R/uj86X7UOcqP1qY47ExjyOKfrqciwk1VnUcn72tuz7979fXU8uu/C+ppHILSfTkV1dnvJLpsOT0XCoS2cMeRzgjjAJkj8HazFbGCe9a4a6hVZBbofK9BiUhiBjvtwM/dPAr0z7UD/D/Ojz1PUVTzGva3IjRUJqzi1FrZqK7u/dbO2qvbq2eTT+EbKBljOo3cptw6MjxLl2znOSvXO44JPJHOAcvuNPnmRVg1a8gVSQN1opbGeASHwcD0A+lepv5cgXdu+Vtw2sRz746/ShUhVNijau4vw3cnJ/WtFmlRJXhf7jgqZdXqTfPNNdnG/pu/lo/kfOXxIilQaW91dPd3TecHnYbdw3KVAXoOD+vsK4OvZfj2kQk0F0VQ7/AGjcwHJx5WM141X0OBq+1w8Z2te+nzN1GpHSrLml37/mFFFFdYz6KTxgbS3ktba58O28UjbWW2tbtOSOuUUY4x83bHXik0H4i3Muq/YBZ2n2djtRv3lrEgAABDSZCrtH3QAfbOQeVj0PWZrkWyaVeecdvytCy7QxIBJIwAcHk8cH0qW38P3k9x5UkkNuPK8wyT7wmCxAwwUhgQrNkZXapOcKceNLB4XlalZt+f46an3tTBYPXmad9+/k9Gj0uDxc8mPNTRbZmAwsuroST83HyocnC5+hHvjjPH2qwazaWMkh02e0MzQM9terKFJVWRgRggEhgdwOPKGMZ+bQm+HthaSJFLq0jzLmSREt/vR5AHOTtPDcnOcHAO01n2iC0upJvDsG8x2rjfLIQxfcW/efMFIKqAAB3LEjCk8+Dw9H2iq4dXfzXfq3/mfPYmeAp64eXvPb3Zbab3ez2+fqY9hDqM+mPbWK+fduFQssaP5v+yC3CjG0FvvLtznqD69aPLDY2cK2DMotVObcLHGpC8IFdlZemACMDIzjnHltnvmnmutKhit7pnaILPHCVdXHzOylBkkAk5ck5AHAYG5pun3utXtxb3lpYpPHdGFHtdJgkhjUht+fMUHb0HBY8EHlhmsZhnVh7S6UVr53fku2ljlw1WFenFVGoySV09Uvmtb2tvvY9QgeSd1V7GeEFCxMkkZAOcbTtY89/THfPFR3kkdmV81J235x5EEkvT12qcde9Y2jaHqlgkZk1K3QRNIggFhEqFBxERswRjAfAPoOMZq5JpV7c3EclxqMOwEbkto54dwzk/dnxk5PJB/GvDcYRnrK68r/AKoUFBVP3k1b+7zP80hdY1KDR9Bn1aZX8qOMMqspDMzYCrjGQSSByOM845riT4s8TG1N7FZ6ZLbkfIj5iJ6McsXOW2q2AB3HXoer1LRbddCura41KeMzlSZfOmOQAodcGQna2GGAQMNjk5J87aK4g1r+ybbVY7qxiCkGRgJoFLbQoO3ksORgHqNwAHPp4GnTnTbtd3+1fbTa3Xf+t+d1VKqqHNvd6XvaPpa3XTW7VrnqOn3SalYw3UIIEkaOyHBaMsoba2OjAMMirBjPofyqvptxDeW6RQTtbtGMeTCOFXoANyjgY7cAnGSMVfFu25CbyY7eowvzc554/DjFeXUlyTaat5ERxifwptd9NfxKxGD3/Kk/GjXdTh0bRrm/kJxEBjn+IkKP1I/pmuGuPE/iNtJTUoJLIyJGzRwJC4SZTjlgSTkbeqnoxB9RvQpyqx5lottdDodZJJ9/NdNX/wAPt0vdncHnuKMEdxWJ4S8R3HiG2R54BGyRAzyJB+5LZI2o+8knADdDgMMnJroD55ZhHFC+MEFjtByTx35Hy/XNRVTpycJboHWcfji18v0V/wCvVEOGJ7UoXnpRdTtbCPctou8qn7ybblycBRxzkkAdz6Vy2oeO4rXzltdIlunSTyVPmbV3htrKxAYqQQ3Ufw56FSbpU6lVXgrkPGU07P8AJnU7T6UBT6H8qh0fVLbW7Jbq1hKxtuDB3VijA42tsZsNjBx6EZ54qYSy4/5B1x/30n/xVZt2bi90aSrKO6f3P9BwBz0NKKWIvIxDW00QxnLunPtwTQ7rGyKRId5wCqlgPqR0/Gp5le1wVROPNsvPT8zxz47/APMA/wC3j/2lXjlew/HWZJf7A2rKMfaPvxsv/PLpkV49X1mWf7rH5/mzjnJSleLugooorvIPoePwl4va4ae2u7mwWV9pSbUC7gYLbmZBggszds5Y8dTW1ofgzUrGznS7124imZ1CfZZXKhAu1h82BkrgA4yuxSD2rIufiNf3V5Jb2MaLHLKscBFoWmCtnJx5hBcHGB0b26V03h/V9a1CKFrjSGNpIq+VevKsZdRgFmjGSN2GYY45UdPmr5fEzxkad5qMVp2v+O/5n02Mnj40r1FGKdu1/wDybf0u2VPGOp2uiaakckcstvcHyjmYs5xsBChzz8vuO55JNcJp3iK4xqGr3ttYxrbQh/Lj+VXZFIAPJIJJC5PPC4ycCuk+KLR/ZdN0+WNpLq6mdoJVG1YlUjcx5yWCsABnByxx0FZGk2Z0y4vbK+to4biJkRE4YquRIuSMgt9059R7VrhfYwwqlUV93vvZ+vlb7vn8pjHKjhqmJaulpvrsv1d79NDYfTdNe8zaqkcco/fLcLv3jB3LgnC7sAZ5PzEcZyM/w54ujtPEkGnpbeU1zO9vKGyfMfeoBVgSAQDuOQAduByc1q2LRC7VpHCoFck7iOin0rH8LQ2sHiz7VLcGINPIImjYIGZtqCN/XOQdo77O1Y4bEOvSnGrHSMdLfPffql89jj4fqzxVCpXr781+17JaPTb3n6PXSx6sQMZzUcjpGjO2cKM44ppRvf8AKqt+rpbMFTeT1BOMjqee3p+NeTCCbSuevaK+JnH6rPdazdzxcG1iYK7d2ddpKgg/dBOPfnjrnNkgtU8UWl7De21vdjFtcwKFYshBAyvZjlQN3B+Qc8K3O+Mb5ZLS1tre8kaeCSf7SilgQzfL83qfvj6NnoeXWFjNfPDFPZ3Em1PMuvtSu6AY3nAx80hDnaANy+YDyRlfp1Tfs072jqrW6d9d77/d5HnNzk3XcuVtOysr7267/wDDeR11nM+nCS7uJhAFdQ7nnazNgfgSwHp68Zru0kM0ayKRhhnAbOD3H4dK8Z8UQyaY9ras8lppSTKiRxMPLkAwdxwck7s8Nz8pIzk12/hzxF5vhoiVyk9ufKkLylyCOC2W9gGzzyx+p4sXh51Ixqxd7/l/nfftcrLqUo041VK/M7Ndt7N72bs0/kja8QzWx0a+spp0R7iCSFSRv2syEAke3B/KvOdStbC01+10u1uD9oAkllE6MG8k7GEeyPA343dWUAbmOMgjTgiVkS+1GdfOlcy28crgbclQD23Nkrz6nAxnFVY7a0g1KYwTW4luozOk0JAYOGj2DcQQc7kyA2XViW6jPVhqUKV6cZvS/o3t9y/EqnjZTqTaduWzS81fd+trpNadz0fT7WztLcraRxLGzE5iOQcfKD7nAAJ9qbqd4bWylk3mNVXJbH9e3+e1YejvJZXCho2ffsRtpG4hiFDHJA4J+uM4BPB3b0StaOLeNZJ1KvGrMVG5WDDkEenTIB6HjNePUjy1b35vU1wldYqk7fFtv+JzFrf3viC0llt7+LT7OQyQreKMtKARuEZP8IJI3Z6g4HQjn4LbUdGtbfQ720giuJtsMMwdWU8nOzcQVyDtOAB8q8/ODVew0jxbb/ZgJYVslEawQ3s0kZMcbN8ozlkByCdwHYY2DB1tdGpSPp6aVdOpjlMrwQuUlZSwAZTkYAJOecfMpI4BHq8sVL2V00/w7a97rVPTTocsavssXHDVberls7K7dlo7J2Sta/qdX4Y09dN0dY0CI8rCaULHsKuyqdrD+8BtGTycVtcd2H51wmma3qcVrGZp8sXLsHjCtzz8yjhTjkhcAE46gmtvWfEqado8V4sUjSzv5UaIofYx43MNy5UHHccsoJXORwV8JWlVtu5PodtHGQrTlH4Xdvy1fR/8MdFkDvQJACTn9a4u28aXDarDb3uniG1nnWKOdXJIDZCFhyAS2xcZP3ieinPX5GOv5CuWrhpUrKa3NoSUld3PIPj4+4eHuc4+0/8AtKvGK9j+PBBHh/Gf+Xnt/wBcq8cr6jK1bCQXr+bM5/EFFFFd5B9mWZ02G0jntJLbyXxGJ1cN5h3EAF/4iXZupJLMe5qV7q0W7S0e6hW6ddyQmQB2HPIXqRwfyNYmieE9O0S3jRE+0SptcvKoIMgOd4HYjoOTtHTBZi2tbWtvZQmK0tYbeNjuKwoEBPTOB9BXwFSNPmfLJvz2/r+tjrrey5pcknLs3p/n/wAHyPNPFTvc/FHTIrqV5rVdnkW0sYVUzKqOQM5YMdwywGccZGCZ9U0Y3+pT3MVxNBPuaMFACjDexLMOCTy3cdjVvxZpV9f+M9Oe3sJfs0a75Lgh9pfGASyuMBBuKjKnczYB35PL+MrqdtVjsobmWKDZI0qKzBXVnIwx3fNwp4I/E5496hJyjTUHa0fLz/P+tbnLmsZz9jGDUd33VuVatee2v/AUunTWc+qx2I8RC9VTva2WEx+btBxtY5HBOcqc4zgjqF8StMltcJLsEFzEJozEqmXcoVCFT5ckErgD0BzwSIfDnh+1vEW+fcJXP3SFHk9HR1ODk8JgEAfezkHFS6jbz3euyQysixwWxSASBuQ3Vh2zuO3PccdjXQqkYTuumr0S29LeXy76HHl7nDHrCxl7q1tZaXa2slrrs1pqeswXAureKZN4WRFcb1KkAjPIPIPPQ024t1uonglBKONrAEjj6isrwzrJ1azmeRI1ljZVcRklN20FsNgA85zyTnPbBOzu9MV87KMqc2trHo8soe5ONmt/6/LyPG9U0a5h1TV7/wCxyI1lO6hJjLcfaQiqUBbJZB5RQ5JHUYIwdsVj4guBDFaXmmxSIkyzO63W3bjJ3AMPn5DHlj8+SSMjHp+qW2laZFeXhgES3KvLdlYtysQvzcD+JgMe/wBc58e8MXuiqbvTtYZzJFvFteeYRvQZO07GILckg5bO7APAz9DhKqr03KUW+W22/qtenz+7Q4sTOE4ONSDkobKPeyv1WrVr6u176nT3WrwkxW7WkmoGSVPP2Mp8pQA4OdxUt3AyRlTn7pU5WkalcWUN7Df2subsnyQzFFQbQC5B45yoJ7BeAx+U9AXt1MTWsdzcJARAtvHC29C0aspC7QR94ZycZPqSan1bQtRk0i+Y6b5jxRBUtTk+Yd2WbCsM4BLADklQOwBHWppKCi1dp3bt923l5W3fU1wLSo+ypNRpTvJ31fNslZWa2ve7+e75yOzutU1G9gv4Inh8sRxTR5QLIVKkKyEZXYcNk5xsznirWm+G7yC5kuLqfykhiaKDySyvjLnkRkcbm3EAsxOPm9ast/faLd3aKksZiCNJDcQHYrEYypBBy2OvfBAzjiK38Q3VvbzWr2olnkZw107lc7gx3sqjICqADg8BeCMcdDpYhwvBaabf8Hb+tzDMMPW9o40H7knpteyVn5LbZa2a0V2bFjf32jWd/e+XdahHHOPJMzEPsTIjJUj+L5d2MHkkhjgV6SqSZAkULJ/EFbIB9AcDP1wK8olupLeYaZcwXdnpVwRKrzfNJFHvG9cgHD4Kkr8xHGea9WMwkZmyMhiDjoGBwR+BFeVmEXzJ2tf8dF8u+i2PSo04RpxnTVnK/wD5Lptdr1t5HN+Iknhvra6BX7NuaJju9RjOPqCOM9M1gX1u1zcuyw7vtirbTMiLuWFVPy/eBwSwyQRwpxggGup8SSR/ZQqpHFI5UGQAAv8AeABOOeXJ/E1z9vaXZlCR7GLFUwTg855/DGPX2rTDzaopz0tp+Nz5/MZOniVday+75fNafrsZt7qWqRXslvCVlu52+UCFljhXlQxLk4yUk4GQ2FIxk7rD+ZYWJt9W1AahZXQfhgseyVSWA3kpgFSQASRkqBgZwto73GoStcrBuKmJTcQCbymyckgkBWPIwPQZBAIqrb6dPqFmqara/ZIre5jaC1kcFMoV3AJz+7GG4Awd2RznPY0ocsbJLS763v02/J/kzow1KEY3lbRP1v0a2tby011LPgGzS7kW6ubhJXUu1vHJIPMTI/ujBfA3AsQACBgH+H0YoRgep4rz+ytm06GOC2n328ZbGQq8M5IOVA+boCe+xeBiugmvL19HkMTPuhTLOeG24PJ75Az75APPSuLFU3VqKXNozsjmtKVSUYxdktO7SXbfXVo87+OUkcn9heW6uFa5VsHOCPKyD715BXrXxqMbQaC0cSx5kuwwA6kGMZPucV5LXr5d/u0fn+bNqj5pX7hRRRXaQfaZY4ySPxFMLjP3QfwxSOSeM0mwnp/Wvz1JdRqK6sbcTwJGRPJFCjfLudwvYnv7An8DXlNzaQ+IJU1O6g+zq6Dy1DbgV3sx5yMnqeg6gDOM113j67jg0aHTHh82W/mSNVLbQArBixODgAgD8azJbF5bDStMhJD3aKsxDDIjH3sdVDBcjv0PU4r08I40YKVtZuy8ktXLRr010E6PtqkKdOSXVt6vlT1sttXp5JPyT5W1tE1mSWKSeVbVImDxfaFWJth3Kdq4A4we5PBzknG74N8P6fK9/DcW00kEDqIHDsiEEknlSMscLuOTkbOMYzjak7w+MFgjlJi89ZYpZGViUJ+X229WBJyRlzyxJ73wc8TaRceXAYZTdSebuclnOAdxB+6cEDHtXo4vEzjStFWva1v1/rS9jvcOWrVqweqasr6q/XRR16Pf9TXsLG30y2+z2Ubxw7iwQuzBc9hknA9hxVsFe5/SoSDjGKaBjr1+leI1zO7epjaUndmB4ztZdR042cF4bdCDwoILuRhAWzkLk8gckHqMYPj19YWi61e20KIoFw0Sop4Vu+M4wAc8EnGAMt1PtWvRP9l3xrlhgkZ7AhifyBrkbDStHHxIQW6PJeNA95KkhV4kY46KRkMcluTxkYyDgezga8adFryb08tdf68jjqThTq+zd7SS273tv06L56kugRjTLKzhihltmEe4o77iu4eYpVgACPm4xnHQkkGu2ublptOadPlaSMMBnpuHT9a5LVdTtLa8nuHkkuzb4DeQfNOQVjCnHO9jkY9VYZ4rprkbdItlTqViAPYcCubEPmlCTWr/AOA/1ObLp3xlVNaNt2+f6XORWeCfS5LkmaKHfJLdEucPECSQQATt4yQOuO4JFY9r4hj0vWYtDj0/yLGdlgQqxjIYsVO4EkNggKTuIyrHJzgTeIXbT/BjIisou5BEWD7Sqcn8chWBH+0fpSaEslnpum2rK4DxC5WOdTuQsCCMHoPvEYAyGHU5J9NRU1OXRt9fx/T0ON0OanKryt3dtHZJ2308/vNbxBBZXWlIjvEmo2TtchZY3wsZXayuVUlQxHQYLFcAgkEanhrWba5u5dLS+mv5Nst19oZgcjzAG5AAALNlQuQB7YLYsAt28QvJIqobKAIWZ8AjaXDE/wAP39vrz15xW14XhSVZr94DFdOdmDFtBTapBQ/3W4Podo4+UE8dRw9lKM077p6W1b+f5b6vY9bBU5zowtpy7+baT00/lau76tLysniq8ihMMEm/a+F+X72Se2R6A1zGpwG61K2ubq4CQw26SLtyY47hWKgrGSexBwB7Zzk1veIozLq9upUkb1+bsDg/5/CszVIliuHVxKxhCuqIpJkbJAC8YLZ+UKDkkj1FdFB04U6aa6Nv5v8A4YyzKuqE4Lq1vbXf+revcXT7EhbWfVr0JM7BYRK4Qbj0HGAX+g9eKIJpJrqcPZLbRS3rwqYrj5p2DMDLjA5+UZBOSAx52/NysGs3cXia/ujKtxm1mgikTGxAoMiMq8jB8s8c9ckknmZWN9ps9t5NrHu3fZ0ZHKkiULjH3c5Ck55YjncWJrWVGpKXNN79ui8lpt/S6nPLATrOTv7qs1vs9PLZ9X2d7bnT3Wr2Gj29tPPI3lT48oKhkDKANz8dgCD9OmaZc+JtOsL20kt7qS73SbDFZzRuCm5d27nOdpOB0OPYEY9/DcT3mmyza2u1LhrW7llUkW7tud2BGVICllyMABATgD5eh0rwJ4a1GysNTtmvirqd+cRq5UspypUFc5I4A4UHgkk89SNKmlKq3rfvbr5L17s1wmAw7nCo5yck3eya08nbTa9uu60OW+OVv9mXQoy24mS7cn3Zoz/WvIK9j+O5z/wj/Of+Pj/2nXjld+W3+qxv5/mzskrOwUUUV3En1LoOnXojil1m/vIZo3URhJ7gLJhkwZDISpL5ACgD7zDG4YTr9rEcc/WvM4fiHdLGDPp6PcoZGidLmRUBb+8hJ3gHoCeBgDGKyr3xprV5cLKk/wBkYOsjeQ77WKjAyrMQB6gAA55B4x8nPL8RXnd2X5fhr/XzPpauR4rE1G52XzVvlbW39eZ1nj1ntbvQb8p/o8NywkYsBtYgFR+O0joadpO9vEltFEiXEUcD/P5WdmfmDA5wM54IySDjHUjz241PU7i1aOTVbmZCOYp3MiMccZDZHBwc4yCARUcd3eraROlxdxRxsplZJmKs+WK5PGDnLYzyRnGRmuyOWv2aTauk1f18vmzCWQ144qKSulFrm2SvJX06u23oaNp9ntvEWqSw2yC0W9l8na4KOHYnCbV6AAnIBwCvJwDXfeC4WfS7q48xH826dtqnJThRgjseM/Qj1rgT4a1a0gg/0STfdzZt0WBvMZgq5Vi+FQA84c7SEbghVDbegw+KkuC0E89tBsKQ28ltIqqCCzHEgA37jkZwpIIyq7QxiqUalKUo1F879OvXd7+j7HI8PTjWqwpz+K2r2tG/W3ey6677noxjHdj+VRlNpHvVGeTxBHEjoIJWKqSiWi5XOcg5uAOMDPP8QxnnEGo+Ik06GO3uHgt9Se2aUR3W5VDDgH5A4wdrkDdngDqcjw405SaUXf0MoYSpNpQfM/L+tvMTXsixJYhUCuSenGw1iaXprJ4wl1SaR23W/wBnhjErfKoXJZsnBOcjAwO/U8aF1reja1ZC3gvBc3MYV2CwvGpbKqD8w4G8rxkn61yi+ILSx8XW1vLftNHZyM0irbBtrMjrjJ5yuckgg53DDbtqejh4VXSlFJp2d9H5fmebiqOJji6dOmmnpfR3ab1W3XoNu7OTWvFi2IREjt7gXL3CKCxYORHGzAkAHLuO5U8AEEn0S9VWhdpI1ZRyUIyPyryqK805pZL6+nEd3O0jRS28ZdlcRRIoUZw5GZgMgqScgrnFejf8JZoupCe3h8+Ty0Z2UQMxZFJzjGT0UemdwHXIGuOpVouFotpLtsPLsNWpxnUlB8tot9Ut2/lrv/lr5tr1kureMNG8NPOTAjeXI6gh/m+ZhzkcqqkdevNdfrWnraaharGSkcYESJyc5HHJPbbXndvr01n4tN7KlxC0cturQtHIJ5I1aNicEnnZHzk857jp6Lr8y32r2UkUwa2l+cEDrhQVPPsx/Ou+tCpCpTjtHlk/nu/z0KjGVPDSVrQtprf7/nr6dxLTwzZ63cLdyiWJo0USeVJtLnPAIwc8IRuBBGO/GOxWBEHQknuzda5HSdctdP1ZdLKz7nDKBDEzglQH+6AWJCuDkcfOODglegGpC402S8toLqX9w9xEnkODKqkgbTtPLYBA+8QQcV42KVVySd+Xp8/+GLy6lVlhKcne2ur82/8AL7kjG8Qn7NeRzhQzb1CgsByQQOSQMkkAZIyWFYFnbWuo+LUslmkkiimNzLL9n3CcruUDAXDKGAIkYbRsj5JYVLZXMusO2rNdDBcm2iljEoJJC5wG+U7cgY6BuS+cvu6NbA6le6mYY4VhVYVcyjK5G515PT7hyfzrrlOFKjyc3vpa+WtkvW+vo++3JKjSx1eTntBeff5b6tap6X16c1/Z2l3XlTz2USSxxmANGzRhl2shBAIBIUkdMgcZ6YkbwzY3EyTIskTCR3AhJA+Zi20DgKAT2x261XivYrSzS5v737ND1jRXY9wPlUZJ6jOM9T0qODxLp99ZtKkU8rqSGgl2h9q7ckAE5JLhVHVmIHTkdlR1FJqDfbuvTV2PJU8TTipU5NaJbu23np/kav2Gxt7K5tLnNpZEN5wkZ3LCTIwMsWIJY4Gc5atLw54j0u61A6LB9nW4jBDvawCOOWUZDcDocLkHkEdD2rl18m81KwhMjxM9oPOSGTzFVXAkwAuPQDOfmBQjjBrX8K2V3H4luJ2hiRUA83YS5jBbaiKAc4y0nzDKEDJGArVhiKUXSk6jfNa67f8ABb+fRbs9rK6Dp80m221d2a3adrrVaN6NJXvbZNrmPj0gX/hHyDnP2n/2lXjVe0fH4MD4eDAD/j575/55V4vXoZX/ALpD5/mzon8QUUUV6BB62JpAuC8jHJP3sd+n9Ka7uynaWVv4SzZwfXp0ppCjkmmkrnvXDdn6v7ONrWJA3yjf8zY5OByfXpTBLJFKJYXMbo4ZHRMFcY6HI5689uPSmll9DQmZZEjQLuZgoLMFHJxyTwPqapeY/ZRtZmhb394jQiHV5bZ36zmRwsKAYKkKCSSEiAxwAFznGA3S47H7VCdQlsjGqKkhMM53ljncFVh8ycA5OMA7QxPLDYwrKsb6rYqCpbdiVgBxjO1DyQc47chsHir1nolhPFK9xr9hAFZdm1GbevJY4IBGArAAjJOBwGUnGc4xi3dq/Zf8D+t/M5qkaSTk3JX7J9/Jf56al9J/DMWUJtHD7Y2YWNxgfMcvzPkD5VPHzYbHOWApabo+nXesSNZ6trN15LtJ9ntrGI7kAJ3LvLDaCFGGGTkDBJ4zfItreCOS4k86STafJt2wUXIJLMQRkrwAM4J5wV2nS0zXYdFuPMsLEs5+7NcbTJEGB3hCBjONoBbI+VjtG8qMpKrGMvZybb72t+K/roc9XBy9m1TlNvzdl9+j+fbY1rq40fTEm0+GOWW0ksyZLq4iidIQWUhw8Q3PhiVzvwHRQCPvLz1rqVo94l9Fatc7pjMwaUwvsZztz5bfK2F4Bwfut0xnSk8aahLDFFJZacyRsOPIIyg3BYzg/cAcjA6jIOQzAtvPHWu3MjMbqOEblaNIU2hGGOeuWBwchiQcnjpiKcK6jyuN77+9/kv6sup5ksmq1MRGtJbb3l17p20ffyXcoQW6+IJr3T7awa2+0zo4jMoCREk8B2TAQFscLnLAYJOK6XRZbIT39tb6fHaIsJR7yK5eSOQo6hyC5wRhlYHqB1J3cdboWqXxto4dZ+yQTK3lF3u42klkJIACoAoyVcAZzlCMHk1fvLr7LfRpP9pMHlkskNpLLuYkbTvRSFxhuOvIPGOfNr5hOUnTcfuk3tb79lv8zx5KNJVKCp35u0r9W+mj36nkOvS2h1JNPECmSS6ZMSuRHKMxs3mEnp8oUfN8vX5di10+phZ9S02S0hjSF4SFit3DxoNqjylKcfKUxkccV0Ph/wAL2WjtHdKZLu4AZori7RfOTczsTkgMGIkIYnk47dKZ4h03WL9mFhBEQVdmmeba7fKMIAB3yQORgKeQSDW0sfSlWjGGkUmrt918v60PJ9gqWGWGgrtve7S6XTvstG799OyOatJl1vxJYxPoKavZQ20pcGKKRNpdVDKzsFDBlPGSSpPf5R0o0W2XWo7dPA+nrpi74vtG2DcAwwWCdlPzAjqQf+AnN8F+FtZ0nU2vNUvtkaKVW2t3d1kIyoaQsMt8oBA7Zz8vSuuvhFeWEqyXFy1tLy6Qx7t8ZXBQYUnaeuR83PBHSuTG4hRq8lKV426OXVvs7N/gdGFp06EFRsmrNderv31fbpt1PLfFdpZ6Gl9LYpcmJmYLbRSDylkZsKcY+VBj7vTOzkYAq54FmtL7wtqWoBI11TDQtJCjbli2kKA3JwXVmPPX0AUDF1e+1DxQBc7ksoUaT7PD5mxnQsUzIScEHdjqAAWzwcV1Ph7wjdeHNIN/eyp9rntWjmtl42lmDMQ/QsACSAMZzzgZr1MRJQwkY1ZWm2uuunf/AD6dSaPJKhVTlZtWjpa7TVk2+y721frfjdZvfMtoLNikdvbDcI9zF5HwMZHAGOeeT0xwQTraLoi2LRXM8dubqWBXjgZQxRS28MxPBJODggldg5yayvGVnbQ4nj3KEjWKOQSgl2D5IweSAMgsCeWQDgGtTSb2SXQNAvCCsfkGIYbdwjGMde3yZx2rqcL0lKGl7r56v+vuPHnRcqMqcbr3Uvus+nn+VmaWowR3A07zrz7LbGZhPdRP8ywhHfZnuc4XpwTwM5z0a3vhKLSyo1CFLaORZQsczrLvI6/Kd7YDAe2MH7uByF3JHJqOlwm0u7mbypJ44Y7dGSTBIIH8ROdhIOVxhirdDNby+F5b9o4tFvDa3zxxJbyTHM0ZDA7RuAx5qoDudh6Yxx51ei5RSblZa+7bv59fw0fmfRZDgFPAKdVydtdGrWXTX523W7OW+NV5pl1/ZP8AZ14bnE9202Znk2sfK+7uPCccBfl64715PXpvxi0+ysb7TBZ+f0lTbKyFUQFSqptGdo3NycknOSW3E+ZV7GAio4aKTfz33PPxDpOo3Rvy+e4UUUV2GJ1f/Caf9Q//AMjf/Y0n/CZj/oH/APkb/wCxrlaKj2cex6/9u5h/z8/CP+R1X/CZcYGngf8Abb/7Gj/hM/8AqHj/AL/f/Y1ytFHs49g/t7MP+fn4R/yOq/4TL/qHj/v9/wDWo/4TPB/5B/8A5G/+xrlaKPZx7B/b2Yf8/Pwj/kdV/wAJof8Anw/8jf8A2NOXxoNsgawYsR8hE+ADkdfl5GMjt19sHk6KPZx7B/buYf8APz8I/wCR2Mfje3Tzt2jmXfDsTzLo/u34y/yqM/xYB4GRnOOei0n4uaXpcEa/8IZbzzRvuW4e5XeMfd58rggBeRjJBPUmvLKKyq4WlVXLNaer/RnPWzTGVo8tSba+S/I9fv8A473VzYeTbaK0M5iMRuHvixwRgsAqKA+QCD25wOabdfHOWVoRbeH47eCBAscH2ncgIIYErsxwUTGACBvwQWBXyKisFleEVrQ283/mc8cTUjaz28l1+R6vafHTVbecPLYfaE+QurzgbmHDdEwoI6BQMEKefm36v/DQR8xm/wCEaYqVA2G/GARnkfus5OfXsOnOfE6KmeU4Obu4fmvyYp15zd3+CS/JHth/aBU/8ysP/A//AO11S1X43w6vpz2M3hp0gkI81VvlPmL3U7oTwfUYI7EV5BRRHKcHFqShqvN/5kKpNbM7W28cWVr5ATS71hFKXYSX6MHXkKDmHnAIHOQQDxzxrWfxXi08/uNJvGURCFYpL9AiqH3jhIVyQd3JJPztnOa80orpnhaVT4lf7zX63X5OTm07HYaj43g1CARNpAQLAIY/9Iz5ZBLF1G3AJOwHjOFIzzkS2XjyGw0iz0+HRyBBIZHf7V/rDk9tvHGB+FcVRWqpxSt8zCDcE1HZ/wBfoehSfEy2n1DTbi40AyRWcU8TRC9KGQSAA/MFBXgY9wcdKaPiHpCRRovhCFiquGeTUJSW/uHjABHGcDB7be3n9FZfVafn978/PzZ0YbF18LD2dCbivL+vP+rI6zxt42PjE6eBpqWSWayKoEzSFwxGMkjqAoGepOT6AcnRRWlKlClBQgrJHPKTk7sKKKK0EFFFFABRRRQAUUUUAFFFFABRRRQAUUUUAFFFFABRRRQAUUUUAFFFFABRRRQAUUUUAFFFFABRRRQAUUUUAFFFFABRRRQAUUUUAFFFFABRRRQAUUUUAFFFFABRRRQAUUUUAFFFFABRRRQB/9k=;" vertex="1" parent="1">
                    <mxGeometry x="316" y="280" width="195" height="145" as="geometry"/>
                </mxCell>
                <mxCell id="22" style="edgeStyle=none;html=1;exitX=0.5;exitY=0;exitDx=0;exitDy=0;startArrow=classic;startFill=1;endArrow=none;endFill=0;" edge="1" parent="1" source="10" target="23">
                    <mxGeometry relative="1" as="geometry">
                        <mxPoint x="750" y="270" as="targetPoint"/>
                    </mxGeometry>
                </mxCell>
                <mxCell id="26" style="edgeStyle=none;html=1;exitX=0.5;exitY=1;exitDx=0;exitDy=0;startArrow=none;startFill=0;endArrow=classic;endFill=1;" edge="1" parent="1" source="10" target="12">
                    <mxGeometry relative="1" as="geometry"/>
                </mxCell>
                <mxCell id="10" value="" style="shape=image;imageAspect=0;aspect=fixed;verticalLabelPosition=bottom;verticalAlign=top;image=data:image/jpeg,/9j/4AAQSkZJRgABAQEAZABkAAD/2wBDAAgGBgcGBQgHBwcJCQgKDBQNDAsLDBkSEw8UHRofHh0aHBwgJC4nICIsIxwcKDcpLDAxNDQ0Hyc5PTgyPC4zNDL/2wBDAQkJCQwLDBgNDRgyIRwhMjIyMjIyMjIyMjIyMjIyMjIyMjIyMjIyMjIyMjIyMjIyMjIyMjIyMjIyMjIyMjIyMjL/wAARCABrAHIDASIAAhEBAxEB/8QAHwAAAQUBAQEBAQEAAAAAAAAAAAECAwQFBgcICQoL/8QAtRAAAgEDAwIEAwUFBAQAAAF9AQIDAAQRBRIhMUEGE1FhByJxFDKBkaEII0KxwRVS0fAkM2JyggkKFhcYGRolJicoKSo0NTY3ODk6Q0RFRkdISUpTVFVWV1hZWmNkZWZnaGlqc3R1dnd4eXqDhIWGh4iJipKTlJWWl5iZmqKjpKWmp6ipqrKztLW2t7i5usLDxMXGx8jJytLT1NXW19jZ2uHi4+Tl5ufo6erx8vP09fb3+Pn6/8QAHwEAAwEBAQEBAQEBAQAAAAAAAAECAwQFBgcICQoL/8QAtREAAgECBAQDBAcFBAQAAQJ3AAECAxEEBSExBhJBUQdhcRMiMoEIFEKRobHBCSMzUvAVYnLRChYkNOEl8RcYGRomJygpKjU2Nzg5OkNERUZHSElKU1RVVldYWVpjZGVmZ2hpanN0dXZ3eHl6goOEhYaHiImKkpOUlZaXmJmaoqOkpaanqKmqsrO0tba3uLm6wsPExcbHyMnK0tPU1dbX2Nna4uPk5ebn6Onq8vP09fb3+Pn6/9oADAMBAAIRAxEAPwDlPGMMNrdSXcLNGzshiKyg71CEFsfeXJxgkkna5J6V1z30sslreyhlF3ZRygFt33l34OeuN3WszXNFTXDNHBbEz5dIfLZN+2EiMg+ZIAqFjJ93jlCeRg6c2nQWcmmWdqT5FvBtBJB3fKvPBI5JJ4JHPHFeUqtOcIRe9pfdp+q/Mwp8lehOae2jX+evl+HyHwiG/wDEa2U1rfXa21p5r25iXZsZQSY8c5O1ly2cNhVKk7l1tLsPC88w0+bSp7eWV5JGt7i6ZZMgsY8oG/uF+TyoHJO4Mxpukpqni66iczLDFpUCs8MnltHJ5j7CCDknKMQCCAQD1NaNv4K0zy7SUadDDMCDN+/lypBBBXD8Hjpk4LZDHb83kYnEU03Fya0W3zfdep9DlOKowy6nBTlHT7Pe8nraS/K+xzmpSWGmLIixXFxJtcedcXCllDp5bKsceEAIAAwvTpgBSM2DxFbRIYxpkKkvv3JA8Tg7twG6Mg43YIBOBhcAYFek3ejz3aIFvLeBlQjfHZqW3fIVIyTjDqTjoQcdQGrK/wCEKeWyea41KWXVnjbLgIIvMIOBjbnA4GevHGOlXQzHD8lqsfxd/wArL5Hm1qWMqSU44p9FbmnG2/RRa0/W+hzr6faeIbiDMlrp4uv9HiWC1eQBlO7CLnCA/MSQP4Scj591qH4eakk8cD640UaM0kJiR227GBQ9QFOZHOM8ZOM5JFDU9AtvCY/tv+0RPrxmaJHi+Un5U2l13cAIMkAYJkUHK9bh+IyQWV/HaQXJnllItmmk3eVGI1VWJOcncu4qeu48nvU5YiaTwjvHzS0fzW3n1t0PoMto5rHCxUanPdvpe3zkrtdb218jodI8F29nbxnULia6l+zmF4lfZCMqy/KqgHOHcZPUszcE10yKsUSxRIqRoAqIoAAA6AAdK8tbx3q8LXUdqJHWKFlZpXSbZIZP9buVQCBuCgD5eV69DJba/wCML+F721b9xNvIePy/LiZSCd5fIQBeACVzw3JJLcVbAYqo+erJfN6FV8rxtV89ecV6vT/LY9Hvb610u1a5vbmO3iXjc5xk4zgDqTweBzUepaxZabpR1G5nU2+0MhQhvNJGQE9c/wD1+nNeXx6T4yvDA8dvK5+aRH3xjaw+UljnhwWY8/MGLtw241XvNE1CLV5RNZ3moTx7S0cVs6p/EoGQOEyg27Rgp0KEYFQyyldc1VO29vy8vVlU8nw/MlOsnbe1vu8vVv5Haan4hsta0+WK0WREIfY867VlXlSwxk49NwGTwOQcec6za3EXjy2mllmtbJdnk3BOfJQR4LAA5BU5baOec981r22t6aBbxw2UdruiZLx2ICtHHlk+6MyPjPPy5Y4wc8VTqZk1PVb1oJLOeC1mFqD/AKyARo2FcYUE7xuOegOCcV6WGp/VVJWajZ+e9lf8Pu9bHi4yhVwmPU1BqMdr9feSWu29vKzO2j+Jfh6yjW0iF3JHABGrqkShgvAIG4YBx0wPoOlFeO/8Ll8R/wDPppv/AH7k/wDi6K6P9XsG95v7v+Cec8c3q8N/5N/wTpJrOzu/FlykG4bpjBvSdw6kkmVVyDjcTIMAMc52j5gD1bW7J/ZsUoTzBbrzE25cBE5DDgnAB4/Akc1iWvhG5lLW0cDR26rGBNGiTGVtxK/6skJmNtxBbbnBYgMpG9NpviKLR7VX0SWW6tY1Bk+0R7Qik5Cqu47tgUDg5Oc9MNzV6sOaKU07K2/lvrZep6+Py+NLLlh6M05uyeuvr5rXW131IPCWl6rfanNqKSyWUQOMyxfv5gWc/vCMc5SMFBt+TABwcn044J6V5Zo2j+NNKlmhia6TcEJkKwyZXef7xAzy7HByWOTjdkegKNYtmeNY7S9Td8ks1wYmxgDBVYiM8ZJzySSMDCjyM0XtKvNGUWuln6b9PxHXw3JCEIzjotk9tm7v1emuxoKjCVidpjIG1cHIPOTn06dux654ZIDDK9zLOsdtHEcqwwAepZmPoB7Y+bOeMYcVhrkDuyiOXc6Mqz6nIyoAVJUYiBOQgGWJ75zubdTv9H1+cwLDPHZQq+wvHf3UzhG45HG4hmZsnsFBIVTnjjQi5Wcl+H+f6ChhoOVnNL7v873+RmeLtYsbDXSt3ZQ6swZQYpiFFsoVW2pwTlmKsxIwwAXnBxmWfjzT7No5k8K2Edyg/wBbAyxnOMEj5CQDzxk9ao+HZ9E02W6XWpLvMC5jt2RkZJRsJ2bfuvuTbnKcAZzuIXr11rwNaQAx29mIbl2QkWwclc7yWXBYLuwACByBgbQDXtTp06UVSdOU/NXSfyT/AOH8z36tGlQiqLoynpurpPTsn26W1tu9zl18X3U05nj0fdNLema0dZ5yPNwqkEBv3h2FVwMAA9MNirSa94p16283SrBlTzVHnRTSErICpIO59uCZfukY28chMjr7jXvC1vNJpEr2eN6pNEY18tSMKM5G04wi8ZK45wFJF6LxBoEIFvDqunokaLtVZkCBeQAO3boOnHqK5pYlJJxoO/S92rf1/n1OOeLSSlDDO/S/M1b+vl16nN6Z4Z8SXjWdxreqyIIsDyFkbeoUgA7kYDcymRSxJOG7k/L0iaKEgltWuLmeBphMPtNw8hIJw0RGRlNowAxYEscg45beXujyzyi7vbVo1XyZC88YWM7slG5DZfbypyCIyCPWG71Xw+blNR/t23jmgQgmK6R90edzLsORzgZ2jccAA1xTq16rWlvRaLt/X5nBUq4mu1pbslGyXVbf163JjpFsL4TxrFBfyRGGRzI7yS26kDg7lO/Gz5+SDgZPBrzzXIlPi3Uh5scrvpswuJYWI3SbZc4+diuBtXbu428AAjPRarZeHbi3t1h8SW8Rgd2ic3AmdZJJMhshgw2l25zzhSxISuItIPs+o3OL4XgbS3ber7lUeW6heuQfl6HB27MhTlR3Yam/ZzlzNu1rNPvpr+lzZUkqcak5v4oqzTX2l1e+mtru35eIUUUV9kfOn1BpHja7aA3U1hJNZNcujTq21YkBDFtpLuWw5YqDgKny8KxG/a+JRJPHHdwfZGlmEapOwV0zt2ptyWZzvjY4AVQ+Ccqc8LD4m8SR3UX2XSVjlRTEEW3kZj85ZvvEncTG4YjlsNnJUFU/tfxTd30V42k3UipK4Iit3JAJw6I7bjGfvDKkEZx0VQvyNXL4zbfKl/2993l/Xrf7KtlcJyb5Yx/7e18vK/8AXe/qajzJYZGtWWQxH532kxZ25QkE9eOmR8vXpmXFcWvijxKII5f7IWdAVEr29tI27epKmPnDhduS2QG3AA4+c9MtzqDwBBFbi5Z2GWEgREBwTyvJBOAMrvA3AgHA8irhqlO3Nb7zwa2Eq0rczXyZaeaOKeOBm/eS5KoBk4A5PsBwMnjJA6kUy9u47C1M8rxqckJ5jEKWwTyQDgcEk4OACTwDRPFFbPcX4dhIIiSJrlxEAB1IJKqOOSF9T61kW+swtdhoZ4BZxDZKtw03nKiZXftcf32wzngBDuY9EinT51dJtL+rf5dyKdLnXMk2lv69v8u5xPxMigTxHA6LtmktlaQbAM/MwBznJOBjpwAOT24vcePlrrPE9rJqGqQjTYbBowVhMFu2JYpGCDEm5Q20M2wE4VdoXCnitFPh0DEnmayiSbQWC2pYKe4B3DP1wPpX1OHxFPD4eEaj1t8/wufZ4fHYfCYWnCtLW3Z3+5X7nA7iO3epraFJ2lMkqxBI2cZ/jIGQoyQOfc+uMnAPZy/Dkr5Yh1cSMzgN/ouAq92J3+gxgA846DJHOa9oNzoc5hmAbcJZIbgcpIi7ckr1TG4A5OCWAHTJ6YYyjUfLB6+j/U2WcYKS92p+n52+7cy4RG/meZL5RCEoSpYMw/hOOmecHB5xnAyRsw6RYxqY72+VZmKbBG2BtdSyN8wGQQA2TgDKBiNzGPLtdPudRMzWxiiSMDHmZbceOBjGB1OfcD3Nh9Cu47XznuLcyBwDCsLMSvAyCDjOT0OK0nKLajzqLfS6ueZieJsvhWeHlUcZdrf19276ab7WneHNHutpuPEFhCJFyhE5yuFYMWDquDvKEKcZXdycZrF8Qr/Y+geJ2gdT9h1CO1hWdh8yk56Y+ZtyK+Bj7vOQCpil0rUpbeCawitp/N3jyTLscBRt35bAI35JHOAyjJ5ajQXs9Z0PWtJ1USNybho7KYDe0UbYB6gjowyQCVHPanQk6E3XnO8Unp1Wjttr2PFznMaeLi6FGpKUoyV47Wab7a3vZLo3qmeRUUUV6J4R9CRfEC9Foba70zT7jbuILR4BZlYMzDoSxbJxjILD+LIS/wDHdzcaYmnWqSWsaIoEsDCKTgHjgYAB2fd252nhQ2FoadFoV7BcWB+0ec0Za2nkQLtfIBLFeiAKXbduwpbBBXL2WvdEtdRfzdIjFpe2zJFIX3NChyEbhSu4Y5K7iOOrq+7590MOpaUnda/1r6/M/Q3hsKpu1FtrX/gq79duq9C9B8S74zqb22jeDmRliLI24cqFIPCkhcg7urdQQoZY+NIU0tdM+zw2iJbyCKUAhoZWG1ShUE4G5iW4bBPLMMvTuNQ0Bre5it7WSaFEMyNLIsTh5NocquwqW+YLtC4URblOTkUP7U0ua5S4/spEuhcPIZbq5eWJgz5HmLjcwUeh5xkg9KUcLRktKTX9dr+fa/yFHBUJR0oNejXZ2dm/Ptfpax1GqmCaO3sV11oriG0E6hpIYVyEDIFZSVUFvJxGCBiItySrGOP4eNcWCLb6qsLyxiRYWcSLOyjHmArjCZfjhiFYE8sVDbP4hxacn7nRLYeZkhYJBGIl3NtT/V+5bqeXJ4ztFSbxzE8cUdrp91YiK3+zoYL1SQnTALRsV6DlcE4GScDHPGnjo+7Tjbz938v+HOaFHMo+5Sjyrv7uvy6fj6nQR/DDTY5rV3vJ5Ej5uEYACU4/hI5UZ+pxxkda6MsQ3QD8fevNNP8AGt2l/bST28dxILkuWefb8vlmNI97Zwq72OWJ+8STnJPpT58zA5965cTTxMJpV5X00/X+v8jx81p4qlKKxUubR2276/pr8ug4HNU9Vs5L2zKxH94hLxgngtggZB4PXjOQDg9QKshWJwSP504Hy2zn8qwjJwkpR3PFfLJcvc83Ok63FfTtpui77MlFU+dHH92NVKgEjHII6YzU2pab4kvtGS1j0GSMBi7oL+EMTkYIbOAcf7PY9Dgn0hpUcYYZAIPPPI5FQpa2QcMtpArA5DCMZB9uK6FjnzKbpK666/j736GNHBxoPmUVKTjyt7O1ktLJ2enc838SXEui31lLbSw+VDcGHzthkJUhcszb1LP8rMR0LZJ5UMcSxH2G7vppDD9nNlMsUcMa71B8wfMF5JJJPIHooC7RWt4vXU7nXEs1tTZNbshW380v9oydm5MAbt24AAc/fyOoFO1ne4vbq7ks47dZrKcoIIiqN8rjIGccfdyAPu8knJr0p6YW76rXZ+fT8/8Agnp4TLJ0aLxTSTc42fk56XV9V11/4J4jRRRX0B5Z7KtzFBFZXUImimgP7udYFCs6jfzknedzqueMKqnBzgRATTvEEjW4DCIiKSVZHfbiPYMYYZPAQc7cdQA1RWkjW++crEyjCkNsJ3clThgcjKjOByOCRup4vEigSJIY5V+XzDLCo3AENtyBuHzFwWDZZdo4xivN5Wnpufqzg03y6v8Ap/1+moR3cNvfKVt45rMOu6NkAMigFTydxQsCScHgkEfdGL76lpr3HnrpNiEkUSXEG+T5juwyRkcRg4DjGcdNxHyVW0628q+RH3Nc7v3TQTKwiwWDSFgwwV2lgMgdGJ2j5tKxtY9CvfO1SFhY3du5Nuk8TyoBINodWHzMHVSVwOhyMK61nVdO/nbva5jWdK/Vyt0dr/5vTfv1Q+28U/2f9naKz0+aO2T91A6u4jdstujLDK7W685JJwSAuyzP4zVNUt72Pw5p8UOyMossQLfIxG5HCjHACjggbOO9WLXVPD0moq1x5fm29tHIbyOMh5Z40LFlLYy7M5++CD5YzksNunN4p0GW6f7WssmXihuXaKGZXAJO7HGSdqB2VWHyKF6I1cFTl5r+xb011fX+vU8yooc9/q7emur6/wBet9DLHjzxHbXQh/s60jeUkJb/AGZ1y5dgxA3ZLFsg9eR65z6DIV8z5fTsKwtO8Z6FJM80dl9l3uW3rDvdw4+ZsRBjuLIMg4yArZPStOx1C01RZJLOYSxxsEY7SMMVVsYIBzhlz6Hg8givOrWctKXJbc+ezPlc1H2Xs2t/O/8Aw35k+QT1/OgqOP4qkCqPf3wKUqdp8sAtjjceDWHMeZzRXQjCnPSnAYxxRHHPlfNihUZO7EhOB2/h55qR0WNCyxGQ/wB1Scn88Cpc43tcpVFKLa/L9NzHuo9CXxVNc3d/Il7B5MxLzAJCu11C5HKqc5YEgEsnXdg8hrUenL4klk0vD2smkzt5oy3mPmcMxc8ucjqc8YwcGtOfTPD+o+Lryx1S+ubq48gRJIIfLCMqBjucY3yBSDkjHY5OAMC/ns7rWNQv7C4umsDp8kRubpcOJG8xVUOwy/DxBdxYjcoPPA9CFP3XyuT91dNNtLfjb57npTq0lGjLnlduGn2d+nezur7XT33PBKKKK+vPCPWCyjoP/rUzI55waf5YC5bgdjTSMN6f0rgTR+tJoRUaVtscbM2CxUAnAAyTx6AE/nSOjIqM6ModdyEgjcMkZHqMgj8KMAk9veh5GlbdK7OQoUFjngAAD6AACqLV7+RL9mmNu1wFUxKoLNvHBJIAP+0cE7euATjHNWH06ZLSO5RkkWUHakRLMMLvfOBj5VKk88bvUMFpI7xuWjdlJUrlSQSCMEZ9MEj6GrsM99Ne27f2i0cs5AEz3BG3Mm75iCSo3jcc/wC93zUT5lroZVOddVY2/CemInie+trmEzPDFDzDIVIPnjnOVIA6lTzwQRnius8FTq0etqVRdmpuowMZ/dxnn88fhXG+F4ZpdYuFmFw0gjsWA2Fm2LcxlTyfu7QOegXntiu28GqscGvmFI3lGpS4UjAJ8tMAnnHbkA8ds152ZO1J8zvp+sT86xsf9vq672v57nSjaT2/E0NgKMCogbyVWils7ZI2BVjHcMGGXxwQoIOz5sgjDcf7VSyzOLePfGscjL86hsgHHOOOfrxXz3W36mPLomkRhj64/ClweuT+dQhz7/nQrncOvX1rVxZFpehxSSaTJqetWc/k/axFJ9rZYmgCW7vu2u2/GdzyNuxkhgcqMZ8Z8UaxqFtqVtFDdyLELSF1j42hjGOQvQHk4PbqMV7Fqdl/Yesa/Ja3E5ul01riMR25ILsQOSdxbDbTkZzzk/Kc+L+PovJ8TmMABVt4QoU5AGwY/TFfYZNUajVlCT1UX+KMMVhZUpUrNuPLfXo227W20TtdN3OYooortIPW3BJ5/M00jjIzjqDT9MAudLM0vzSfaUjz0+UsgI4+pqvK7JLKq8BZblRx0CICv5GvHWIjzOPY+9/t7DRpQq8srSs1ourtrqOOMZGKTbg49KfrgFoZPI+XAj9+vmZ6/wC6PypL791BYsnBltXkc9csI8g/nVRxUWk11/yubTzzD05zg4u8bX26y5e/f8BsbtFMkqhSUYMAyhgceoPB+hqV5ERYpLY+S+xonVXbe3HzEnAGDuYADsMH1OZc3EqaXYTK2JJfM3nA5w3FTa+7Wd/HFbkIhjDEYzzuI7/Sr9rFyS73/DQwnxHg4wlVcZWio30X21ddenXz2Or8KXG/X7+feR5htjunkZmO67Xqy4JY5xnABJ54zW5pl/dW93q0dnd2lrbf2jmWQuDK5OzeEVlI3BQnJwo3HOTynL+CbmZUNykjJM13aRF1OCU+0LkcdqzfEeqXll4q1K0glCwL5rKjIrBSAxGMg4GQDgcdfU5qtgo1afO+z+5Nf5M+MnmCxGLqVcNBauy5um2vXuvx+foVn4k1IzSXM+twE4JS1ks9sJJXpvUFwFYnHHIUZIzxvx65bXkOTd28shcfJCjKEDEKBlvvYJ5bA47CvnRvEmqpu2zxDkni3j/+JrstD1S91O71O0urh2t4/NiEaYRSm4rtYLjcMdjmuapkcKk4qFk36JfgjjqY3F+ydWry2jvaNns3pay6ddfM9mGD3NOUdOM+9cx/wjejZ/5Btt9zy/ufw/3fp7Uo8M6IEVf7LtcICFHljC5649M1k8gq/wA6PeeAT+1+H/BMP4g+GwV17U1uIohDFHL5ADu0gkYqSxY4U5DAbcjAHA7+UfEzyR4sURIFb7FbmXAIy5jBJ5JzwR2HpjjJ7e9b7Boniu1tFSGCW8gjdEQAFfLkbHt8yg/hXC/En/kcn/687X/0QlerltOdONSnOV7LT09z/gnPmcZWp87vy6L0SWn36/d2ORooorqPMP/Z;" vertex="1" parent="1">
                    <mxGeometry x="540" y="299" width="114" height="107" as="geometry"/>
                </mxCell>
                <mxCell id="12" value="" style="shape=image;imageAspect=0;aspect=fixed;verticalLabelPosition=bottom;verticalAlign=top;image=data:image/jpeg,/9j/4AAQSkZJRgABAQEAZABkAAD/2wBDAAgGBgcGBQgHBwcJCQgKDBQNDAsLDBkSEw8UHRofHh0aHBwgJC4nICIsIxwcKDcpLDAxNDQ0Hyc5PTgyPC4zNDL/2wBDAQkJCQwLDBgNDRgyIRwhMjIyMjIyMjIyMjIyMjIyMjIyMjIyMjIyMjIyMjIyMjIyMjIyMjIyMjIyMjIyMjIyMjL/wAARCACRAMMDASIAAhEBAxEB/8QAHwAAAQUBAQEBAQEAAAAAAAAAAAECAwQFBgcICQoL/8QAtRAAAgEDAwIEAwUFBAQAAAF9AQIDAAQRBRIhMUEGE1FhByJxFDKBkaEII0KxwRVS0fAkM2JyggkKFhcYGRolJicoKSo0NTY3ODk6Q0RFRkdISUpTVFVWV1hZWmNkZWZnaGlqc3R1dnd4eXqDhIWGh4iJipKTlJWWl5iZmqKjpKWmp6ipqrKztLW2t7i5usLDxMXGx8jJytLT1NXW19jZ2uHi4+Tl5ufo6erx8vP09fb3+Pn6/8QAHwEAAwEBAQEBAQEBAQAAAAAAAAECAwQFBgcICQoL/8QAtREAAgECBAQDBAcFBAQAAQJ3AAECAxEEBSExBhJBUQdhcRMiMoEIFEKRobHBCSMzUvAVYnLRChYkNOEl8RcYGRomJygpKjU2Nzg5OkNERUZHSElKU1RVVldYWVpjZGVmZ2hpanN0dXZ3eHl6goOEhYaHiImKkpOUlZaXmJmaoqOkpaanqKmqsrO0tba3uLm6wsPExcbHyMnK0tPU1dbX2Nna4uPk5ebn6Onq8vP09fb3+Pn6/9oADAMBAAIRAxEAPwCCXwV4jljtYzpzhLc7lBuY2yTnPcdmP86afA/iJz/yC/8AyNF/8VXsRQ4pmK+MWb1ekY/j/me9RzyvRjyUoxS+f/yR4/b+GvFF/pywLZ3n2SNztgnfy1VuuQjkf3jyB3PvV5/D/juUBZvtc0YIby5rtJEbByMqzkHkDgivUefU1Bd3MNlayXNzKsUMa7nds4Ap/wBp1JOyhH7m/wBTb+3cTKVowi+2je/zOB0u38d6K8VvbafB5IUt5RSFUfAC5ZlIO7p1bJx3watf8JF4vmsxPP4bVl85UOyBw5Tq67G3HDAAbsYHPU4xv6V4o07WVU2kj7ydrRsvzK24gDAznO1jxkAKScYrXLEfxfzqata8/wB7SV/Rr9SK+NfM1XoQv6NfqcIniuWzkik1vwl9ntGyrSLbFTu2jGN4A6h+M9CP7p3cHdxDXJtT1eOdbaRrplihTJCoMADcMDIxxwO2euR7t5zL0aoDHA04naCEzBiwkKDcCQFJz1zgAfQCtcPi6dFuUIWb8/O+z7nFP6pP4aCj6P7vNa6vfZaHmnw80FNUuRdXFqsljEdx89Q4yBmMAAgBvmLHIbjqASCPSptD0yeB7eW0ilgZQpikG5ABjGFPAxtXGPQUW8NvaLi2t4oBgLiJQvGScce7MfxPrUvnuO5x9a5sVXq1qvPCTS6HPOnCSUFG6W19fn66sw/+EA8OGIxGxOwyCVlE8iguAQDgMAOGOAAAMnAFXIPC2m2jFrSFIXOMOqKXXtw5BYDHGM4wTxzV8zyf3jQZ3A/+tUOtino6jfqU4Nw5Ht8zndX8C6fqKEB7m3USeeVtHCGWTBBZ8gh2PHzNznJzyapx/DLS4pXlS81Bd38PmRso9wGQ11huG/yKXz271pHFYuMeVS09AVNJWt1v8+r+dzkNV+GenahYQwW7/Z7hCN11KgldlGcAAFVXqRwMY7ZwRRvPhdd3mwvrwLoAFke0ZmGDnr5v8vXtXe/aGH/66X7UR25rWGYY+C5Yz0+RTinJzau38/LqcprPhU3tgmn21qXiMTx7ioXay8K/G35uTk5G4Z7E1j6f4O8V2mJUn09lMySBZiysVAKncu0gEggnr+deirdH+6PzpftXXKj9aiOOxMY8jSa8zmjhpRrSq8z11tpa9t+993q3qeeSeCNXg3ND/ZxBDGaWe5lTeD2O1OemST/ex2yWp4N1VIhbX145a4VY50tIW8sLnHDnJ4Geo4yOCBx6J9qB/h/nR56ntVfX8R1iv69TVwkopUvdts+WN1ffpr21ueVTeDrK2lWGTULpjEGRlmhGclg2/O3udxwdw+br6k1hcSbPs+q3cAjJwHs1Y4zwCQ+DgY6KB7V6ozIygHOMg8HHvTvMQ+n6Vqs0qpa00/uPOqZfWqSblUTXnC/przdPK3a1jyi7052sZLqWW51LURsVZFQ73/eqdoiBIHHfknn0q3YXd0bqL7ToOsYzkD7C7KcdAx7cjpjp7V6YzRkqWAODlSQDg9OPzNQyQ28pyxkHOfllZfQdj7f5zUSx0aqtVp39Ha3y2KlgPaNSxD9o1K6vdLpfq3bTY8b1C31W4vpJToeujdggR6ZIygYGADuXtjjAx0or2L7Fa/3p/wDwIf8A+KorqjnHKlFU9F6f5EVcC5zc9Fd36frC5yMXjE28chg1Hw9E8mZZFjtLgB5S3JJA5yvO7Gc8Y70zTvH1+2qiCZNOnjnY5dZnhRCDjJaTOF2rnAHO7+9kVxUeh61Nci2TSrzzjt+VoWXbuJAJJGADg8njg+lbVt4D1OTVFtLuSOFRDHLK8YMpj3sVVdoxk5U5I+UAE5roqYTBwT52tf66an6BVwuWU4y9o1druv0SfY7218UedbtJM2j28mPlhfVFY5zj5iqEDjJ4J7DvxyHxB1hL3TtNZLyzltZ2eO4Fpe71jYg7CCMZDLvySp4XAxk7pZvh7YWkiRS6vI8y5kkRLf70eQB3O08Nyc5wcA7TVKwSOzvjPoVs0qRW7By8xR2bcW+fJC4KqAo2nruPRScsHhaLqKph1dr1XR9X9/X9D5/FSy+C/cSfM9lyu1uz5ns9te/qjLtvtt7pssVhbxNeyJHERDGrrIQOdu44XIAyeCvUYxivV7R5YbGzhWwZlFqpzbhY41IXhArsrL0wARgZGcc48001pppbmXS4RFK7MphfySsgZG/espj5ONxOXJ+baCBuzZ0nT77Wrq9t7yGwhnjnMSG20mGSHaT84+dQcDj+I42EH5ioOuNwrnBSsoxXrfXuvL7jnw9aOIpr2zUWkrp6pP1Wt7W1e9j063Lzrl7WSA7c7ZHQnqRj5WPPAP8AwId8gRXckdmV81J235x5EMkvT12qcde9V9IstRs5DNqWpRXcxMgZ1t1QspK7MkegU8f7ffaCZ5LNruRjfXJaME+Stq0kBUHsxV/nPTnA7+tfPaRnrqvL9LmcXBVHzvT+7f8AC6Xrr95U1fUIdJ0KfVZgwiii3hXyrMTwq4IyCSQORwTzXFN4t8SGx+2xWWnSRc7UcmLP3Wxkufm2q+BjuPTB7HUbGEeHZrK7vAqumwSZkyQdpYH95ubJDfxcAhTkZz548It9UXSLbXftNig3FGA82DgBACVG4uS2MKdoIyCOvq4GNOUG3G7vu72tptbrvv8ALWxEqsJVPY83d6J8zSV+mq63te7Vj0uxm+36fbXkcbok8SyhWHK5Gdp9x0PuKlMZHY/lUOl3MN3bCGCUwMi4EUQ4ReANuVHHHoQNxHPBrSCANkyMevB9zn9Og/XNeZUk4Taaa8jOnioy+F3XfTX7ikRj1/Km/jRrupw6No1zfyE4iAxz/ESFH6kf0zXFnxN4gl06G9juLIcAiJLc4lU9WIZs/LjswHzc46jooUp1Yc60W2rt/wAP8jZ1kkut9u767b/Pbpvodmee4owR3FZPhXxG3iC1RpbYq6Qq00scf7gueNqMTkngtjBwGXnueg27mO1YyOOv15/T8/as6rdOTjLdGjk43UlaxVwSego289KluWaMqsSQOzHGHfYSfQYzXK3/AI2S1aWO10l7qRW8tCZlRN4OGVmG7awIYYI/h9CCdKNOpW/hq/8AVjJ4qEZcr39H1Ol2n0pQpz0P5VFo+o2mt6at7aqFVmZWjdwzoQcYbYWAPQ4z3Gand3ThbKZxzyrL647kfX8aycrScXujSVTlV3+V/wAhADnoaWpEBdnBikQKeCzL830wf54pCVV1TD5bOCBkDHqeg/GlzLuHNdX/AOANxn1pQPrTEm81gI4LhhnDMU2Bf++sZ/DNTxxl4wWV4z/dZlyPyJFJyS3ZnGrGb913/L79hnTvRSSTwROUbziR/djZh+YGKKCHiKSdnNfejBvdH8S3umfZ4LqWylVwRI2psxbaqpk7YgSCFLY3DlySM8Czovh/UrWO4lv9Wmju5JSVNrJ5iBPQ+ap3N23NlsKoBxkVg3XxLe4vBDptidryxpH5kXmOwOd/yqw+bOwKM84OTyMdRpWp6pqDyPNoslrbs5MTTvsbYCowV5bcf3jdAOFGTndXXWjiaVO04qKfp+p6WIhi6NHlqRjFPXpf8X+Bm+ONbg0uwRZ4jJBOTF8pAc8rkKpxu4PqOh61wmk67d+bd6pf2WnxrFCGSIt5UchUMoyS3GSdu4n+FevSul+JgtvsFjaXQMt1czv9mCZTywASZM85K5QbcjduJA9MTR7Q6VPf2d9axRXERREXcGKrkOuSOCfunI7iu/AqhHDJzXd/JPovlY+dxblQw1TEWulovw/V3fyNsaRp91fSPZxrHG6s86Sx+ZuXB3LgnaobABPJwxAwSCKfhnxEItdNvaWxEfmeTdeawDO7SIu5MOc4L8nbg4HQtVyweNbxXkcBFVmJzjop9P5Vk+F4Le28VLdTTGFZJpTC6EIHZiqBG9c9cDuFrKliXiaU1VXwrSy39fN2++1kcmQ1amLw869Xfmu+ztbR6be87dm79D1UgYzmo3dI0Z2yQozjimFG9/yqrfK6WxCpvJ6gnGR1PPb0rx4QTaVz17RW7OR1aa51i6mjDK1rGcORnJdSDtB9AePfPbnOc1vYr4mt75L+C2vFUW09uiK/mA8DcM/K2CAC2QTsGOgPPeLr9Z7K1sbWd5LuOaUzhC+8M2U2kZwScsOQTg8cNy/TYLm6MMUtveM6RE3JuC7IiMpdwAB80jCRgABuXzc8nlfpVTfs97R1VvLv539PToec+ed6/NyOzsrK+9uv9bWtodTZzvpwku7iYQBXUO552szYH4EsB6evGa7tJDNGsikYYZwGzg9x+HSvIPE8MmlGysll+y6W7rGI0ZTGwDBtxPUNuHRuflJBO5q7TQNez4XXzZttxFlJC028rg7SxJ5H3dxz655zk8mMw05xjUTvd/g/617XLy6hKFONXmupu3p1V+z0aevY2tcmtzpF9aS3SxNPbyQbh8xUupXpkZPPTP5V51rdpp1n4pi0uznRZlaWWRWVyBCSjLGqoeuN3JZQBuYkZBGtaJJKEvLh9lxKrSRRbznbxlj/AHj93J6ZPAGagjhtbK5Vo/s3n3aPcxSrEEJ+eMIBIfv5ZgCAckc5BIrbD04UW4Kbvr83t57a7/8AD7U8dGdSUeazjZr1V3rt92m1rs7+xht4LVI7cJ5K5CeW2VCgkDHP5++ai1O8+y2Usm8xqq5LY/Dqen+e1Y2iF7W7Cv8AxgKx7kE4BIz6/pmtu9ErWji3jWSdSrxqzFRuVgw5BHp0yAeh4zXlzio1b/F6hg68cTSfL8W3/B6bnOJd3WuWhmtdSgsbSZXjF0nzO+CAyoTgbQSeQfYDPK87DbXmi2FroV7Zxx3c2IYZw6FM7udgbkfL8p4A4X+8CWW+n+Lre9R0eBbIbY4INRmbcYkLLtyVyuQwJYgc4wNoxWnrc+rmbTf7JvHzDMJnt0b52UEBWGTjaMkEHj5hkYAI9NJJ+yumpefzV36rZ6adDCNdUcZ9Wq29W1dOy3svddloo/DfudR4asl0/RYYkAV3/eyqF2bXYBtpHqAQDnk9e9bAx3YfnXDadrmpJArSygFpC5RowpG7kBl5wcckA4GcdQTW3rHiSPT9GS8COZZm8uONVD7XPGSMj5QSO46qCV3ZHFXwlV1LbuT6dzspYyOIqSjezV30t8n/AMN6HQ5A7/yoEgBPP61yFp4vkbU/I1C0EFrLMsNvPHlt5Ztq5H8OSVGMnr6DNdTkY6/kK5a2FnSaU1uaxaerv/XoT+aSODmjcT0I/Cod+Bxn8qXeff8AKseTyL16Im+f+8aKhDnHf8qKXIO0yzZ29pDBG9osWx0GJV+YyLywJbq2SzHJJyWJ71K5jUoHdVZ22oCcbjgnA9eAT+BrLs9Es7WG38yJbieEL+8cEjcuMFVJIQA5KgcLuYLjJzbtrW3soTFaWsNvGTuKwxhAT0zgfQVnNRu2pXM5uDbabf8AXr+n3HnnjSRLj4laHaToXjiRCsbsCjF5QC20E8EEqcj+H6Gm6popv9SnuYbiaCfc0YKAFGG9iWYcEnlucjsa0PF2n3+p+LNLENlL9mtl3Gby2CMxz8zOrqfk5KjIOS3ZhnlfGN9cf2gmnQ3DxWzK8kqLnDAsygFs5YYByp/HOePoMM3KFNQ0aXr3/MwzWNSSoxg1F2u9mrWWrWur2s/10l066tbjUIdNHiMXsUbtKbVYDH5hC4+Vzn2OVOcZxjrS+IFnaOaBzEIrxFkiZNgkDALGcKdo4JUjBHABJ4JFfw5oFrexpfPuErHG0hVMPR0dTg5bhMA4H3s5BxU+ox3N3r1xFK8aRpbFIVdWAYMclgPu/ewvpjjsa6lOMZ+69ld6Jba9LX1+/wC45MBKosesKpvlir6paXstLW7rRrTU9ZSUyorD+JQ35jNRXFut1E8EoJRxtYAkcfUVm+G9aGr6e7PHGlxEwSURZMZbaCSGxgnJOfTHcYJ1t3pivm2pQk1azR6PJKHuVI6rc8f1bS7lL/VL17OVW0+Z440maW4E6INygsCWUeWyHJYdeCP4IbDxHcxQLZXmm28qGRJZHFyPlA+bcoYfMcqTksfnJyRnj1DV4NOsobzUJU2idC1023eGwmMbeuSqgfQY74Pjvh3UtEZrnT9YXbLD5ggvFcqJVyzYIRiN3zHGMgjAHQZ+hwdWNek5Ti3y22/FrXp6v7tDixdSNSnatBy5LWS9Eu6eyXV2Onk1eBpoYHgN6WkVpj8riNVUOvcoWOMgZK5B3YCkVmabqD2NveQ3cErNdAeWHLRquV+Z9p47qpP+zkBvu1vrLCJLc2ouJEgxaiGOBg8e9AwO0KG/i5ye/qTU+r6LqlzpF80tiJXhh2pbvkmUggk/KcsAOVUckqB06jq01aKi1drVu2nltrt5W3fU6MvlFYf2VFpU53b5t+bZaJprZSvd9PO+HHbXmo3Dm/WGZI90Nu2fliYKDhQCAUIdgwYnI25zijTvDd5BcSXF1P5SQxNDB5JZXxlzyIyONzbiAWYnHzesFxe3eiyTeWTHJGFM1tNA+EbpuByOW7YPO0jBIyIIdfu7WCW1ktlluJC+bppMA7lZg7BASAqgA4Pyhe2ON1RxDhenHR/8Hvt+t+py5jhq3tGsPbkk1a1r2Sd/JbbLvoldmzY6hd6Np19eCG81Dyrn9200mGMS5EXyEdSQCxBB5yQSBn0l4yJmUZyDivJpLya2caTcxXlnpFywmVpjueNA/wA6kgHD4ZSV+YrkA85r1d5NzkkqTuOdpyAc8jPsa8vMI2lF2tf8dvl30Wx6VGlCFONSmrOV79tNO7X3O22hzXiJJ4b62ugV+zbmiY7vUYzj6gjjPTNYV5ALieY/Z2drxFtneMKDHGoPB5yQc4OCvA4wQCeo8TTK9sPlRJW2qZO7DDAAnHP3z+Zrn7azuTJsUqWbagGcZJJ6/QD6+3prh5tUU56W0/G/5nz+Y3hitVrL8fT5rRfnexl32papFeyW8JWW7nb5QIWWOFeVDEuTjJSTgZDYUjGTuvJF9jtfs2taql5p12HG6QCIRzA7h+8G3C7W6c84Ax0DbGV5tQnNyIsvGYB50Ql8tsk5IJwGzxgegyDioBbXesWqf23b/Zxb3KNDDKwIcqys+V6lPv8AbB3jB6g9kuWCULJbe91Tv0N8NShCKk7aJ301T6OPp92uqLPgixhuZ4rmaTLqm+GOedTIpZc52hVLDG7kgbcDG7qvoOwjA9elef2Vv/Z1ulvbTF4o2JXO1flLsQflA+f7oJ/2BwK6Ka+u5dKmkUuXjQszjCHBDcnjggZ4HpXDiqbqVE1LQ7o5pRnUcYJ8qWnV2S+/u+v377sUkcm7y3VtrFWwc4I6j61IF/H6CqtrIskJdYwh3spHqVO3P6D9KsBwPrXlyWp2uTet9CQBcfdFFM3+360VHKLQuljjJI/EU0uM/dH5YpHJJxmkKE9P61ikupyqK6sZcTwJGRPJFCjfLudwvYnqfYE/ga8wutNh8RXD6rLC0NuI90W/B3x+Y3PB+8d2cY43DBOM10/j67jg0aHTHh82W/mSNVztACsGLE4OACAPx+tZ0+nSNZaVpce5XvI0EpJAbyu+OqhghI4z368V6uClGhBTtrN2V3ayWrlo0327IPYe2qQhCSW7l35V20tq1b0T8r8vaWya1utZriRLKJX3xrKgVsEFThcdgpxk8nOQWONvwf4e06Zr1JrWZ7eF0WBvNZVI5J+4Rkn5ck9RtHQAnK1ZPs3iyOGC7MqNMk0UjFW+Q84PsOoY/e+Z++T3XhP7ONImWKJo5/tMn2jc2dz5HzD/AIDt9OnSu/F4mcaPuqydrWuvW/n8tL2PRdPknVqR3ura6q+t9ErO1097312NSwsbfTLb7PZRvHDuLBC7MFz2GScD2HFW8rjJNRHpjFNAx9e3FeI1zO7epzWlJ3bMLxhDPe6ebS2vTbowOVC/6xzjYGbP3N3UAZOeoxg+N31haLrV7bQoigXDRKinhW74zjABzwScYAy3U+2a5Cfs29c5HzHH+yQ39K5LStN0WL4lqYI53vjbveOpkUxxSHGDtILZOS3UYyMcHA9jA140qLt2b08tdTmnOMKqpTbtJdO97fLou2uo7QIxpllZwxQy2zCPcUd9xXcPMUqwABHzcYzjoSSDXbXNy02nNOnytJGGAz03Dp+tcze3lidYbdd+b5bIjSA7wrZWMKxXJDFsjp1Vs4wa6C5G3SLZU6lYhnsOBXPXlzyjJrVnHl0/9sqxa3bdvmcm1xDcadLctLMsIeR7lzIcSQqTwRgnb8udo647gkVjQ+JVsNeXR109bezuZBCvl/uQrMzKQV+6QGAUkHGVY5OQBJ4hdtP8GMiKyi7kERYPtKpyfxyFYEf7R+lJoSyWem6bbMsgDxC5WOdTuQsCCMHoPvEYAyGHU5J9NRjNSl0bfX8TknR9pCVflb5nbR2s7b/euu5s65a6fd6Si3E0cV/ZPJcqrxs21Sm0q+0FlViAOMElcLzWn4e1y0vL2TTIrqS8k2SXPn7twI3hWJPbLNuAXIAPGBjORbxwL4iWa6iaJbaADezYDphm3gkccsU49xnmtbwvCkqzX8kBiunOzBi2gptUgoeu1uD6HaOPlBPJU9n7FqV291tZXb/q2m+r2R6uCpSqUYOOijv1u2k9NOzV31aS6aN8VXkUJigk37Xwvy/eyT2yPQGudvVml1SC5lvzbwx2ySAozeWk6P8ALtjyc/wnGOuOQctW34hi87VIAecSLj/vlqytUiWG4dXErGEK6oikmRskALxgtn5QoOSSPUVtQdONOEWr6Nv7/wDhjPMq6w9Smur+/f8APt699STTNNlaOG51O6Ikyvl+YwUKScKDjA3EkdupPrQkvm3kwFp5EEt20IZJgrzOCwaTaOOq9zuKgntg8nDq17D4kvr0uLhWtpreGZANibFMiFV5GPk6c/eySSebNvMt3YS2slvbCNmJii2sN2JQmFJBUHhTyCWYDduJzWzo1JS55y0fbovJabfj+JzSy+pVlJt+6rNaPZ6eXXq/O9tzpbnU7LSLKC7ml/cTMqxqB5m4YyXAHUAck+nuRUc/ijTdOvrSWC4e9DPsMVpMjKUyoYtg5yFJIHQ459Rm6tHdXM+kTXOr24xM1tdTkf6hjuLnC5T5VDDdheAGJx93b0zwF4av7Ow1K3a9IdMv8wRXKkg5UjK5yRxjhR0OSeaapQXNVb1utPn1su1+/kjXA4Gg5Qqubcot3stPk7eV7dV5XO5jtvs4aNm3HzHcn1LMW/rUgAByAMfSgc9+nvShWPvXht9ZHp8i2YZz2op+JPQflRU8yDlh3MrSEnW5a61S6mMm5UhZlmgVvlVdzoXMYZi4woA57bgQvQFWI45rzlfiTKkIxpQ+0hGAdrtym9jknYR0yOBngcAgVkXXjzXbiVHjmitCrmQ+SpIY7dvIYtxjsMDJzjPNdry7E1ZXaS+a/Q9iWQ4uvO8ko+rVvklsjr/GsPlyaRqbb1gs7nMpCZABK457HIAGRjk8g4Bi0olvEdpFDGtxHFbvlzHnbn5gynOACDwRkkE8ckjhNQ8QatqVtIlxqLSq+SY3jAQnAAyuMcbQRxweRgnNV4Jr90hW0mvgokUHypGPmSEsU9wc5YAHlhnkjNdsMtl7Nc7V1dX9f+HZH9g4mFeN7P3Wr9FeSuvPuvuNYebY+KdQlmtHWCK7kW2ExyjLvI2oAv3V2N0BwABztFd54SSCXRPPhwZHmkM4DZw+49u3y7OPoe9eeDwzqdpaRbrSYz3kw+yxpA29mCqSrl8BACM4YhWCseQih9/w9aeJvtKm3vZrO3OIkhuLSRUiDKWZsMMl9xJBIAyuMqpVWWKownSco1Evv6ff1/FeRyvCQVSpGFTfq9ko3Xa76bX6N7noJjHcn8qjKbTTLMao0yNdzWwh2BmUW+1skH5c+awBBxngjngntT1PXrbT41S4kis7uW3lkjiunyVZfu7hHuG04P8AFk4wATwPEjGTlyx19Dmhh5ynyQfN6f1cg17IsSWIVArkknHGw1i6Tpm3xfPqk8shJt/s9vGsjYACglnycE/eAAGO+Mni/cazo+uWf2a3vFubmNRIwETRKWBABG4cDcV4yT25rmLbxDDZ+MbaxOptJHDIVmUQgLlwwCszdNpwSdwwQw5zhPSoQq+ylGKadnfR7afmcOLo4mGKpwhFp9bp6q+q2+4bfWR1nxlHYFohDbzpcyXUEfzbg2I4mIOO7t6sOmOWPoN2cI0hUfKdwHXkV5ZZanp8N42p3sqLeytI8MsMbOVcRRRrtAbDlczAEjBPIK5xXon/AAlOh6jDNFDJLKyB2eIQOWKKTkjA7447nIHXitcdSrRcFytpLtsVl2GrUqcq0otqyb3dtL3/ABf69DzbW9PXWfGOkeG3uQIIjslk5Vzn5iBnPVQpHB688Zx1utaetpf2qxkpHGBEiYJzkccn021wVh4hudN8UTai8TRlJLaB4ZomNy0e5GLKrEnd5cWCSf4vcEd/r8y32rWUkU4a2l+cEDOcKCp59nP5131Y1IVYR2jyv77Xf56DUXTwrSXuW7318/zXl3H23hyz14pdXMlzHJboseyN8AgsSQevQr1GDyfbHWLAijoST3ZuTXLaJrFna6smkfv1uJWMcaxx7kJADkt3BAdeemJO+0lelmnSON5FM1wogNwDbRGTzF9EIG1mPZc5NeLinUc+V3tuvmLLoTeFhdu2v5nO+IT9nvI5wu5t6hRuA5IIHJIGSSAMkZLCsOyggvPFQsElMsW83E0ptQ4m2kgD7uCAyg+YeBtQEktiptPu59b3aj9oXl2e2SSISnnCsflPHyAjjO0Hq+4l9nRLQy6reaj5Cx+Wq26HzcsMjLqOc4+4efbmu+U6NLDuDledremv53/q60wnh6eOrtz+GC897/Lza1T0T9ObWx0ydRLLYwJJ5Jtt6ZUMoBXHHGQp25HIBxnHFObwzY3EyTIJImEjuBCSB8zFtoHAUAntjt1qIX0VpbrcX98lvAOIhGWwQMD5VAyeoJwOpJOKii8R6beWImjEs8nzb7eTAdApAPHOSdyhQM5LAcckdM5VFL3G+2116ankOWIopOnJ7JXu7bfd+n4Gp9hsbeyubW5zaWRDecJGdywkyMDLFiCWOBnOWrW0LxRpd/qZ0S2MavAGVfJjARmBYsMAAA8E5xg849K5JBFfalYQeY8TPaDzkhk8xVV8SYGMeijOcMChHGDW14Yt7/8A4SW4nmVNqENNhmkMe5gqIADnBJf5hlSFBIwFassRQi6LlUb5rXXb7+rfz6LRs9rK8P7PmnJttq7tbdp2urtaN6NJXvbZNrvViA5B/OnFG9acEkJxlVx6nNOZXSNmAEjKpIRTyx9BnAz9cV885eZ6KjfdjRGSAeaKn+zseev0oqOfzD3TwMTSBcF5GOSfvY79P6UeYSf4/wAX/wDrVHhRyTTSVHrX2urP0xU49ESl17gn64P9KWGQLdQskpt2DgiYDHlnP3uBnjrxzUBZfQ06BBcTLEHjjZuA0jbVz2BPbJ4yeBnkgc07aajcFZ3Na11a4it0t4NVuLZplXfM80nlxbSRyqDOSioo+8APwCu0wWUDRi81W0kSImIrHDc7ZFkHzyBQy4ONqkZ5VW46bov7Gt2ikkXXNNCRKhZZDIGO7+6oU7h9OQPvBTkC6PDenRxMl14i0xJlYNmBzMrIck9AMMAjcZOSVHy5G7lnOmk7Nq/Zf8Ds/wCtzgqxw7u7yV+yf+X9J+dy6H8JRytEs1kUkAVpPsVyVA5PeXcDlQMgfxDtuwmneGNPn1VZrTVNRvI5SZ4YYbDajAMdyo0p24U7Q2/OQQMljWalho0Gnr9reWTUE3NMlveIIlUfdwwRsscgbVLY5JK4OJtJ8SWuiRyJZaWHlZg0d3MU86Inhgp2kY28D3yxGDsGMlWUX7Gcm/Pls/Pb8umxhVoVZQfsJTb21cbPpfp/w22tmbstvoenWepWDTPH5Vsoka+gjZY0aQBnEkQ3sUcgEbsblwCMZHLWmpWsGrx3yWoumjuGmbdKASN525EbEdFGAfZuVwDqyfEHVWuIp1tbLzEYMXki3MeGGM5GFG9sY5AOCTliYbzxvrd5ukS4jtwgV9kZCgMGHKjqwwQCjFwcscYxtVGGJScZq/Nv73y6Lrueb/Y1aeIhWqRTtveXXy001/rRFG1tW8RT6lpWnafNCt3MsvlCTCxrlm+8UICAt2U4JA5ziuxsJbaWzuoLW2Mdtax+XNeRXbvbiRmBZYlftj5i3b3BBPT6NeX15GFura2haNPnC3QllDBiuWCqFGSrdD1BGOoFuaTy7lIpRL5bFQQkTv8AMx+U7gMKBtbPplckd/NxOYzqS5HH4f71/wDh/L8bnjycIqpR5N/711u300e9l97uePa7d2r6hHpskXmP57wxpO58pxuR2EhJGBkYA3EA8/LtFdNq8cc2qWEunogtDGVjSFlZVXaAI1CEjjZg44GOtdDoXha10CbzVd7u5G4LcXARpAC7scMMHJ3/ADHvgdBxTfEmlarqCF9Pjth8rFmaZlkb5eFGBjk5H3hgehOR0Sx9J1oxp6RSerffy0PNVCNPCrD01dt73stbb3vZXV76ehzemuuueI7QvpMOo2dpayuQ8ccgbLqoKEnaHDIeM/dzyG+UdZJolpBrUKW3hrTjYmJvNuFjjVw7sAQBjpjlvUH1GGwvBvhjWNI1F7rUbzy4VXaLaF3kEjAFQzsQCRjkDoM9uldlcuDbT75roK5BxEh3KOMqu1d2Dg8j5huOCMDHHjq9q3LSleNujfX0er/A6MPCOGpqlDVJPv1fr80eU+Jrex8Ptd3FnBPLB5jEWaSYh3s2FyBgqgx0BHJTBGBWh4Jng1TwzqF+8MEWqrEYTJDF5bCAJ8mG6nLKzE5JJ9goGJrl1d+IwLhbqK2jQs1vCjFN6NlSJGYgHBcp/d5fkgiuo8M+Drnw9pMl/qEuLiWzdZ7eJQShYhid+cZ4yeMDJwSBk+tiZKnhIqrK1RteultH69fuYqCg6NXmerVo6Wu01o/Tztq7nGa1fI1lBYuBGkGHRd7bnOCOVIA65wc9u4INbGg6IunNa3s6RpdSxB4l2hiibldW5wC2dp5yV2ryCaxvGkNpDEjhEUbPIg5IclZMuePlIHT1O8nPAq9ot403hvQ73dGSqNEVTgqQxQZ567VU/iK63T5qSlHS7a9XZv8ATX7u55HsZOjKEU1olf8Awtbdd1vp2Nu8hgmOnm7nMFoZJFnuYZNrLF5TuFJ7ndtGMdegyTnrbG68N2+nobTUIEhR0nPl3JDDcQoMmDuxllBD8AYB4FcTuaTXNFt2gZd8ck4uXucImwkOxTgAqrBtwIbAwrA8jWh1XRbbUjb6loej2cklyN0a7JzGu0IQWA2od+DjI+UPkA4L+TiqcpJRTeivZW7vpe/+XY9zI8G5YJN8zersmtvTfv3t1SudHFquhx21zi8kmhuZmDBzLMJGY7dqA5ypIICr8pw20fK2IbTV/Ccmo/ZrWay89d/zLCVUBWMrHfjbjcC+c4zz1rB1Y2+m3ck9jpUHmM27zGEkrDbyPLLD92AARhcYAGMAA1gf23q1lG9pNYzLHIF3QzRIysBgKdjDHAUAf7oHalQyz20W4zeveSX+e39WOatmOEoytGM353irX8mtfvV/I9Q/tTRrP/Rv7UsIfJ/d+V9pVdmONuM8YxjFFcRb+LNYit441adFVQoSOzTaoA4AxxxRWDymrfWS/wDAv+AcLzrDX+CX3xOC3tjgU3cR/CKlLKBgDP8ASo8g55wa+lXofsKfkS2cSXN1HDJKkCMQDI3QD8SBntyQOeSBkhsHlyTBJZBDGeDJsLBTjgkDnGeuMkDOAehaqNK22ONmbBbaATgAZJ49ACfzpGRkVGdGUOu5CQQGGSMj1GQR+FFr6Bu2r/1/X5GtaabZrCs2oXaIskayxLGSMrvCnqpOQ25cAEja7chVD6FhoGkzTL9o1yyjj3+Wcz7X3BwWJBUqB5e4AhmUvjDEGud+yym2NwEQxKoLNvHBLEAf7xwTt64BOMc1ZfTZVs47hTHIsoO2OIlmG1d7ZwMfKpUnnjd6hgvNODe07fd/XqclSm3e1Rpt+X9ev6HZjwPpgmgjOqpIk0qqJY5h93Yh+7tI+YtgZYAb4/vEgFD4c8KxasLM398y+UX8xipjlyowkbKAWk+eNwAGyOMHNcyvh7VoLllRPLHkyOJw+1WQHY2T1XkhWDYK5+YKMkSf8IhrLWdrMlt5huNwWKMMxVgwXa5Awh5J5IxtYHBGK4+Rr4q/l03PO5H9rFbq3Ra/8Mv+GOpXwv4ctClzbTPfwGRYmnku4zFESCxYBVO5lCglWG3DZPAYjclj0HTNUtkh0azea6mcwG3iDtujVQQvGEYNxjIUbWYsDkV563hvVoBG9sbiSDeJbKWP5Fbe8ao+SQELZU4yWG0ZAHNa3hmz1nTruaG6a2tEt0ZDDM7JKQxKl4xH8z/MVHXDEIAcqpXmr0eaPO63Na+l7X/p26HJiMOpQc3X5rXVrtN9uve3S3pua2seNJrif7Npun3kzTI0UckPmKZFbDFk4BDCPaRlTgvkHA+emnxJ1W5EdtZaZHcXbIc7Vc7m4JwgJOANw688Hjla6O38PXwksW1NrPUX3yG5k8llcb1yx3b8MMqkeNv3OMAZFSXPia106P7TqdlcRyp5o3i2KhF3ZVAzYDMQFzsLAlSc7RmuSMsNZQp0ue3m99fv28vyOKM8LZU6VH2jXm99fJN7bafO6OSsvGfidnhi/s64u5YX2zKIeX2lt4wq/Kf3kQ9ioyDuIrpdI1fxJq1vFMNMtIYJLcyJcTkoHfa2AEDFtu4pz3VSf4gBoNr1nDbXt7eyRxfYXaAqlxuEj+Wjsq5wGbOVGRng9MkVRPjjSYhILomN0habEciSggOVCAqxG8jDbRwAeTxmpqP2q/d0En/W39foRVbrRfssMk/LX7kreXktmtjolXbGgkKtIAAzIu0E45wMnA9smq9/p9vqmmzWNym63mG1xgHIyDjkEf19MHmubPxF0ZZJgIriRE+ZWjCjcuQvRipz3wM8YJxyFwNR+Ikt5biGITWis2ZGhAD7dp+QMc4JJA3AAjbuwd21c6OX4qUrqNjGjlOMnLSNvXQ6C0+Hmn2D2r2+p6qGtmDxl5UbBGcZynbJ46dfWjUNI/sCCS7GpXk8jxGMJcMmzht65CKpZt2eSSTvbJOa5fU/Fms6tatpx22tmyost1IhjZ1KZy5GQA4BbaoyRwN3eWzgNjBCz6jC76jGRG6t80s4YiXd8xMuOFVl4zzxuyfQVHEXjLETW+1r6b7/AHseMwlbC4VzrVPRLX010S9P8zG1yO3e2v8ATDNaLfQ28cUUfyhiu0OVJ4fhjuznYNqZPD1dgsba28P6Lb25iKJtd5Ig213y+4/Mqt1B4IyAAOcZrO1eO2v/ABRcQLfRxiK2MUjNKfKyASwBUnp8mAAfmJ4B5PRxW4g0TTQfI8pnYJ5JJji+Z/l3E/Ng5GRx05I+Y+i6jpxgr76/NxZ4eHwzoYCWIn9p6L/t3/NL9ehYs7a2vPFuh2U/kSJFa3EksExBDg7Qo2EHLZJI9kb046RPC1itoYBZ2MZWQ7H+ypIfK5AUll+ZscgkcEDO/B3chougzavr9yLiV7Wzjkc/Z0m3NJ/qg285zhoyQACNgI4+YbvTowUiRGYuVUAu2MnjqcYH5AV4uYVZUpxjCXT/ADf6/wDDnTg6lShg6UYz6Xt6tteXV/07GfLpccsKW/2m5jgQ/wCpiKopTDDZwv3cMB6jYpBBGTn2fg/TogXu5by+uPMLieW4kVgM/KMqRyABz656cAdDtJlVw5ChSCnGDnHJ78YPfuevGEeDzJ4pPMcCPJCKcKxIxk+uOeOnOcZAI8xV5pNJ2uX7aVrX8/mrnDH4dXC4WHxBcKgA4aLcc4553dM5wOwwO1FdZ/b+jDh9Xsom7xyzKjKfRlJBU+oIyKK6vreL7f8Akq/yOlVcSlb2a/8AAI//ACJ4V5YC5bgdjTSMN6f0qVwSefzNNI4yM46g19cmfoCZFgEnt70PI0rbpXZyFCgsc8AAAfQAAU44xkYpNuDj0q7lruIjvG5aN2UlSuVJBIIwRn0wSPoauwz3017bt/aLRyzkATPcEbcybvmIJKjeNxz/AL3fNU43aKZJVCkowYBlDA49QeD9DUryIixSWx8l9jROqu29uPmJOAMHcwAHYYPqZkr9CZx5uhtWuqzfYY7S++0XBg2lLdoy5MARnGM8BQdjHduBAQ7SI8HNtbm+tYp4bO9jEDofMXeq5DxncoDYPQYOOCVXqQhocmVo7qW53W8tyWCXLSuMk/PuYKNxwELFeSGXHPAS5jNnbtGCqy7VjmWN2Qg7mJR0cAkgqvK/KNo6k5rGMIq+m/3HPGnBXVt+ltL9f67lqPS73XoHntWguJYE/eBSwlmdiZOdwy74L9O0R/2dz7HRbt5YsS2LQieMTOrxTGNucALkmQkZO1dwbpyQQMyO2mgtlvRE3DCRAYwylA2CzA/w7iqjIwTkZyCK2dL8OXepwWElu8aG5SSGJpbbCFwXLAtg5wgJDcnJAH3SVmrL2cX7yUfT7/6tp8ia03Sg7zSj6X13fl57afLW5pvgNtViZ7XV7FxuYRqGy/y5zuAyBhjGDgsMNkE8borLwdb3NmbmXxJpEceY9pWTI+bk7t20q2ASFPXBHGKk0jwXcaq6SXUyxq8UbQ+RHuWT92G2uyjETYK8spyWyA3e1Y/D2W5LkXKviJH8pw0LozMDsf5WAby8kjkqSOCME8k8Tytp1u32f1/r7zhqYzlck8R2+ytPn17X6Pz0SWXhDw67xzTeLrV4GG4opSJzkcfeY4PsR7cVA+l+G2uryRtUt2iW5KyHzirLGSMNGqxYZtwbgAqFOO4Ya8XwsPlyefq2HOQnlwcD5uCctzle3GCepxzeT4Y6etso+1yNcK4YSMvysMLlWUEHGQ2MEEbupxXO8dQTvKu36K36I5HmOGUryxMn00VvyS/ry0MV7rwjpdkkaLFfyRNmNz80gSTOT/qgjsq7WCvnBLDI2jMmmahpd/cWUOm+E4ZuNjPcx5HLKGXKoQQm6M+Y/O0HPLZPU6X4F0TT7RIri3W8lVtxlmUdfl4AH8OUHBz1YZIJzs+TJbR/ZtNt7eCJE+RTGAgZm5ICnt8xIwNxYfMOa5KuNo6qHNJ927L8DgrZhhtY0+aT7uTS/D8vU5efw1a6lNcz3ukRpe+cE8pr6SVER3Y+cqp82C7Mdp2j5ScryazYfAcdne/aIr2U28kTQxi3cs6TkFGVnWMgJ98b9oKnHAIrvJ5byO/hEdsstmy7XKOPMViRgkEgbAM5wSxJGBxzhalqfiSyFtNHpsbkecZ4Ig0gZQ+FwwGQxGzbwc72LKoWsqOKxEvdjLR9L/537fiYUcXiai9mpK0lazldWs9LO+9vx13ORl8DfaHvxY2U6QJGZbH5Dltz48tzLsIxtY4wSA2SzfKG108I6/baXJY276d96TyJpppHaANjAA2AHHzegJbPYhm2fiHxde2i3CaZNHbShh5ywCRl+QuGjQlc98EkgjaOWzv1j4mvIF+0XtlNbRySLGkbwsd5y2FiG0M7vsb7/l7cpwf4umrVxatF2dvO7/rf8fI2xcMTOksNJRlFW0vfayt+D/HyOWt/BXiC0vxcR3iWb3iuQq3roUcjf5Y+8euWwN2dpy3Q13dtp2pWcUa22oqT5SK63ivckMOuG3pkEknJXP0AVV1B5/yZSMZdg+HJwvO0j5eT93I4xk8nHLytefiMdUrW5rf163PPq46c4qFkkuyXf5/16nOyeHbqSaecXenrLOjIzfY5GUZ3ZIRpSmfnfnbzvbOdxzX1bwveX8MhN1p6kP54SDS03M+ckgu55fCg5ODtAPGc9NNJ5JjxHI7SOEARc49ST0AABPP0GSQCTyi3t3l8t5MYASMZYknAA/Ejk4A6kgZNRHF1k009emi/yCGOxEZKSevTRf5HkV74aNjf3FsfD+tXSxysEmhlG10z8p4iYZ24zz1z06Ar12zmN1ZxTKyyblwzKpQbhw3yk5U5BBB5B4PIoru/ticdJR19X/men/b9SOkoarf3pL8LngB6N9KYOooor6dH1sRH6H6Ukn8X1oopljX6j601+lFFUjRmlof/AB/S/wDXndf+k8lZX8A/z3ooqI/xH6L9TOP8aXovzZ0erf8AIIuf+4Z/6SPWpof/ACIcn/X3df8ApFJRRXnVv4C9V/6Sjyq3+7L1j/6QjuB/yL7f9hj/ANv60fEX/Is6p/15y/8AoBoor5p/xV/if5o+Rf8AHj/jf5ozT/yHm/7DH/thWjqn/H/o3/X63/oiaiiipvD/AA/owq/FD/B+jNN+n4ms24/5Gey/687n/wBCgoorGlv8n+TOSj8T9H+TNPsPrQOo+lFFYoxMzQv+QdL/ANfl1/6PkpZ/+Rnsf+vK4/8AQ4aKK6X/ABp/9vfkzsf+8T/7e/JieHf+RY0n/rzi/wDQBWmOpooqK/8AFl6swxH8aXq/zOJ1P/krWi/9eh/lNWlpX/IVtv8AuJ/+laUUV6Fb+FD/AAr/ANvPYxH8Kn/gX5VDzjx9/wAjrqH/AGz/APRa0UUV9Rgv92p/4V+R91l3+50v8MfyR//Z;" vertex="1" parent="1">
                    <mxGeometry x="420" y="470" width="195" height="145" as="geometry"/>
                </mxCell>
                <mxCell id="13" value="&lt;font style=&quot;font-size: 15px;&quot;&gt;Last Image&lt;/font&gt;" style="text;html=1;align=center;verticalAlign=middle;resizable=0;points=[];autosize=1;strokeColor=none;fillColor=none;" vertex="1" parent="1">
                    <mxGeometry x="80" y="20" width="100" height="30" as="geometry"/>
                </mxCell>
                <mxCell id="14" value="&lt;font style=&quot;font-size: 15px;&quot;&gt;Current Image and &lt;br&gt;Detected Difference&lt;/font&gt;" style="text;html=1;align=center;verticalAlign=middle;resizable=0;points=[];autosize=1;strokeColor=none;fillColor=none;" vertex="1" parent="1">
                    <mxGeometry x="334" y="10" width="160" height="50" as="geometry"/>
                </mxCell>
                <mxCell id="15" value="&lt;font style=&quot;font-size: 15px;&quot;&gt;Reorganized Difference&lt;/font&gt;" style="text;html=1;align=center;verticalAlign=middle;resizable=0;points=[];autosize=1;strokeColor=none;fillColor=none;" vertex="1" parent="1">
                    <mxGeometry x="515" y="20" width="180" height="30" as="geometry"/>
                </mxCell>
                <mxCell id="17" value="&lt;font style=&quot;font-size: 15px;&quot;&gt;Inference&lt;/font&gt;" style="text;html=1;align=center;verticalAlign=middle;resizable=0;points=[];autosize=1;strokeColor=none;fillColor=none;" vertex="1" parent="1">
                    <mxGeometry x="120" y="246.75" width="90" height="30" as="geometry"/>
                </mxCell>
                <mxCell id="20" value="Perspective&lt;br&gt;Transform" style="text;html=1;align=center;verticalAlign=middle;resizable=0;points=[];autosize=1;strokeColor=none;fillColor=none;" vertex="1" parent="1">
                    <mxGeometry x="226" y="310" width="90" height="40" as="geometry"/>
                </mxCell>
                <mxCell id="24" value="&lt;font style=&quot;font-size: 15px;&quot;&gt;Inference&lt;/font&gt;" style="text;html=1;align=center;verticalAlign=middle;resizable=0;points=[];autosize=1;strokeColor=none;fillColor=none;" vertex="1" parent="1">
                    <mxGeometry x="590" y="250" width="90" height="30" as="geometry"/>
                </mxCell>
                <mxCell id="27" value="&lt;font style=&quot;font-size: 15px;&quot;&gt;Clip and Combine&lt;/font&gt;" style="text;html=1;align=center;verticalAlign=middle;resizable=0;points=[];autosize=1;strokeColor=none;fillColor=none;" vertex="1" parent="1">
                    <mxGeometry x="440" y="430" width="140" height="30" as="geometry"/>
                </mxCell>
                <mxCell id="28" value="&lt;font style=&quot;font-size: 15px;&quot;&gt;Inference Result for Current Image&lt;/font&gt;" style="text;html=1;align=center;verticalAlign=middle;resizable=0;points=[];autosize=1;strokeColor=none;fillColor=none;" vertex="1" parent="1">
                    <mxGeometry x="392.5" y="615" width="250" height="30" as="geometry"/>
                </mxCell>
            </root>
        </mxGraphModel>
    </diagram>
</mxfile>